<?xml version="1.0" encoding="UTF-8"?>
<svg version="1.1" xmlns="http://www.w3.org/2000/svg" width="300" height="168">
<path d="M0 0 C99 0 198 0 300 0 C300 55.44 300 110.88 300 168 C201 168 102 168 0 168 C0 112.56 0 57.12 0 0 Z " fill="#FDFEFE" transform="translate(0,0)"/>
<path d="M0 0 C1.17481934 0.01764404 2.34963867 0.03528809 3.56005859 0.0534668 C8.69421346 0.33354455 12.04546107 0.57486737 16.26171875 3.6328125 C18.27844363 6.76630389 19.6372432 9.87441535 21.0625 13.3125 C22.53621158 15.32699966 24.05642196 17.30845483 25.625 19.25 C29.07969946 23.57980292 29.07969946 23.57980292 29.00390625 26.80859375 C27.47392906 30.87795217 24.84719901 33.91741577 22.17578125 37.30859375 C19.95650955 40.20178515 19.95650955 40.20178515 18.85546875 43.47265625 C17.3165734 47.25882734 16.44727007 48.93595931 13.0625 51.3125 C4.84807246 52.72435473 -3.67243721 51.97315063 -11.9375 51.3125 C-8.47163645 48.41587804 -4.96722083 46.0482602 -1.04296875 43.81640625 C0.07787109 43.17509766 1.19871094 42.53378906 2.35351562 41.87304688 C3.52720008 41.2067781 4.70102914 40.54076399 5.875 39.875 C16.6364257 33.86685294 16.6364257 33.86685294 27.0625 27.3125 C27.0625 26.6525 27.0625 25.9925 27.0625 25.3125 C23.9698093 22.98738768 20.57211334 21.10369533 17.25 19.125 C15.8568457 18.26745117 15.8568457 18.26745117 14.43554688 17.39257812 C13.54287109 16.85697266 12.65019531 16.32136719 11.73046875 15.76953125 C10.90828857 15.27428955 10.0861084 14.77904785 9.23901367 14.26879883 C6.95586454 12.97519555 6.95586454 12.97519555 4.0625 14.3125 C3.60617188 15.21097656 3.14984375 16.10945313 2.6796875 17.03515625 C0.62387399 20.97623371 -1.01420955 24.05530339 -4.9375 26.3125 C-13.10558012 27.91940386 -21.69865516 27.0415186 -29.9375 26.3125 C-28.27103937 22.89809925 -26.35667907 19.79122689 -24.25 16.625 C-23.60675781 15.65175781 -22.96351562 14.67851563 -22.30078125 13.67578125 C-21.93170654 13.15927002 -21.56263184 12.64275879 -21.18237305 12.1105957 C-19.86264506 10.25351423 -19.86264506 10.25351423 -18.56176758 7.95776367 C-13.65208614 0.34560242 -8.7356999 -0.22724335 0 0 Z " fill="#28669A" transform="translate(38.9375,57.6875)"/>
<path d="M0 0 C3.36415551 1.26705319 6.37031789 2.71113193 9.42578125 4.6015625 C10.22177734 5.09140625 11.01777344 5.58125 11.83789062 6.0859375 C12.65451172 6.59382813 13.47113281 7.10171875 14.3125 7.625 C15.14845703 8.140625 15.98441406 8.65625 16.84570312 9.1875 C18.89931199 10.45487004 20.95063341 11.72578573 23 13 C21.78589807 16.64230578 20.93219346 16.91732284 17.6875 18.78515625 C16.78402832 19.31149658 15.88055664 19.83783691 14.94970703 20.38012695 C13.97630371 20.93531006 13.00290039 21.49049316 12 22.0625 C11.01499512 22.63379639 10.02999023 23.20509277 9.01513672 23.79370117 C6.99477388 24.96542024 4.97246053 26.13378234 2.94824219 27.29882812 C-1.34301306 29.77493499 -5.60869942 32.29373465 -9.875 34.8125 C-11.26802279 35.63186138 -12.66123005 36.45090929 -14.0546875 37.26953125 C-15.02664062 37.84058594 -15.99859375 38.41164062 -17 39 C-21.4246231 34.88673926 -24.80479078 30.32326619 -28.25 25.375 C-28.79140625 24.611875 -29.3328125 23.84875 -29.890625 23.0625 C-33.8687996 17.39360119 -33.8687996 17.39360119 -35 14 C-34.29504395 14.03778564 -33.59008789 14.07557129 -32.86376953 14.11450195 C-19.90618095 15.17076793 -19.90618095 15.17076793 -7.83447266 11.67675781 C-4.30573374 8.31920028 -2.04352977 4.38596389 0 0 Z " fill="#429CC3" transform="translate(44,70)"/>
<path d="M0 0 C1.42505859 0.00580078 1.42505859 0.00580078 2.87890625 0.01171875 C5.4375 0.3125 5.4375 0.3125 8.4375 2.3125 C8.7675 1.6525 9.0975 0.9925 9.4375 0.3125 C10.7575 0.3125 12.0775 0.3125 13.4375 0.3125 C13.55397041 4.85394994 13.62484502 9.39501394 13.6875 13.9375 C13.72101563 15.22269531 13.75453125 16.50789063 13.7890625 17.83203125 C13.91126043 29.62413114 13.91126043 29.62413114 9.4375 34.3125 C5.66234763 37.6435168 1.82511307 37.93596862 -3.046875 37.8046875 C-7.17674512 36.99666943 -10.08873438 34.6791148 -12.5625 31.3125 C-12.5625 30.3225 -12.5625 29.3325 -12.5625 28.3125 C-7.86981707 28.94664634 -7.86981707 28.94664634 -6.25 30.875 C-3.8699271 32.90246951 -1.60744416 32.84638376 1.43359375 32.734375 C4.86743086 32.01146193 6.39676777 30.03347631 8.4375 27.3125 C9.29869134 25.13903432 9.29869134 25.13903432 9.4375 23.3125 C8.6125 23.8075 7.7875 24.3025 6.9375 24.8125 C2.96846259 26.51351603 -0.34873237 27.33549561 -4.5625 26.3125 C-8.41593964 23.91446907 -11.05605878 21.07216183 -13.5625 17.3125 C-14.03378944 12.52105735 -14.07548393 10.2835053 -11.8125 6 C-8.11619461 1.58496856 -5.85709305 -0.10359484 0 0 Z " fill="#1E3460" transform="translate(146.5625,70.6875)"/>
<path d="M0 0 C1.40765625 0.00580078 1.40765625 0.00580078 2.84375 0.01171875 C5.52087334 0.3148636 7.19965635 0.95073996 9.5 2.3125 C9.5 1.6525 9.5 0.9925 9.5 0.3125 C10.82 0.3125 12.14 0.3125 13.5 0.3125 C13.5 8.5625 13.5 16.8125 13.5 25.3125 C12.18 25.3125 10.86 25.3125 9.5 25.3125 C9.5 24.6525 9.5 23.9925 9.5 23.3125 C8.675 23.8075 7.85 24.3025 7 24.8125 C3.03096259 26.51351603 -0.28623237 27.33549561 -4.5 26.3125 C-8.35343964 23.91446907 -10.99355878 21.07216183 -13.5 17.3125 C-13.97128944 12.52105735 -14.01298393 10.2835053 -11.75 6 C-8.07714531 1.61297912 -5.82131187 -0.103952 0 0 Z " fill="#142B58" transform="translate(236.5,70.6875)"/>
<path d="M0 0 C4.28575173 2.26892739 7.5624855 4.7812249 10 9 C10.85093424 13.6888213 10.44429904 17.07722508 8.375 21.375 C4.78174634 25.34649089 1.79988182 26.77501477 -3.5 27.4375 C-8.64442984 26.79444627 -11.53772194 24.70599107 -14.875 20.8125 C-16.48047982 16.79880044 -16.67667379 13.26304489 -16 9 C-12.44295878 1.88591755 -7.97117847 -0.97891665 0 0 Z " fill="#0E2755" transform="translate(121,70)"/>
<path d="M0 0 C3.36415551 1.26705319 6.37031789 2.71113193 9.42578125 4.6015625 C10.22177734 5.09140625 11.01777344 5.58125 11.83789062 6.0859375 C12.65451172 6.59382813 13.47113281 7.10171875 14.3125 7.625 C15.14845703 8.140625 15.98441406 8.65625 16.84570312 9.1875 C18.89931199 10.45487004 20.95063341 11.72578573 23 13 C21.33342235 17.99973294 16.55877264 19.6909515 12.1875 22.3125 C11.27162109 22.88806641 10.35574219 23.46363281 9.41210938 24.05664062 C8.08469727 24.85811523 8.08469727 24.85811523 6.73046875 25.67578125 C5.91989014 26.16989502 5.10931152 26.66400879 4.27416992 27.1730957 C2 28 2 28 -0.1574707 27.296875 C-2.77954361 25.45131368 -4.45547536 23.24802113 -6.375 20.6875 C-7.10460938 19.74261719 -7.83421875 18.79773438 -8.5859375 17.82421875 C-10 15 -10 15 -9.484375 12.4765625 C-7.80562259 9.67569664 -5.95584745 7.20465417 -3.875 4.6875 C-3.15054688 3.80449219 -2.42609375 2.92148438 -1.6796875 2.01171875 C-1.12539063 1.34785156 -0.57109375 0.68398437 0 0 Z " fill="#FAFCFC" transform="translate(44,70)"/>
<path d="M0 0 C0 7.81279683 -6.5000695 16.29197366 -11.44189453 21.98730469 C-17.81787416 27.00387045 -26.41160485 25.51923476 -34.0234375 24.73828125 C-35.68436745 24.50661127 -37.34425442 24.26620644 -39 24 C-35.53413645 21.10337804 -32.02972083 18.7357602 -28.10546875 16.50390625 C-26.98462891 15.86259766 -25.86378906 15.22128906 -24.70898438 14.56054688 C-23.53529992 13.8942781 -22.36147086 13.22826399 -21.1875 12.5625 C-14.04405445 8.49604704 -6.92965967 4.42373108 0 0 Z " fill="#1F7694" transform="translate(66,85)"/>
<path d="M0 0 C4.84870783 -0.73547815 9.17720012 -1.00518399 14 0 C17.66396757 3.44601452 19.63345412 7.6064341 22 12 C24.15656527 14.9207315 26.38342001 17.77251087 28.62890625 20.625 C30 23 30 23 29.71484375 25.3125 C29.47894531 25.869375 29.24304688 26.42625 29 27 C28.67 26.01 28.34 25.02 28 24 C26.05787423 22.47283521 26.05787423 22.47283521 23.6328125 21.08203125 C22.74722656 20.55029297 21.86164062 20.01855469 20.94921875 19.47070312 C20.01722656 18.92349609 19.08523437 18.37628906 18.125 17.8125 C17.20074219 17.25369141 16.27648437 16.69488281 15.32421875 16.11914062 C10.48803827 12.99148665 10.48803827 12.99148665 5 12 C2.3125 9.9375 2.3125 9.9375 0 7 C-0.14453125 3.31640625 -0.14453125 3.31640625 0 0 Z " fill="#6DA3D1" transform="translate(38,59)"/>
<path d="M0 0 C3.36975944 1.87928892 6.59983707 3.93312514 9 7 C9 7.99 9 8.98 9 10 C4.30731707 9.36585366 4.30731707 9.36585366 2.6875 7.4375 C0.28685768 5.39250839 -1.99997329 5.52106236 -5.05859375 5.65625 C-7.20517465 5.91150963 -7.20517465 5.91150963 -9.5 7.5625 C-11.56851618 10.9238388 -11.48505011 13.11959911 -11 17 C-10.25463249 19.5771736 -10.25463249 19.5771736 -8 21 C-4.90454673 21.56867229 -2.09394551 21.58503697 1 21 C3.31377147 19.10415891 3.31377147 19.10415891 5 17 C6.32 17 7.64 17 9 17 C8.52695318 21.25742137 6.1136178 23.25705098 3 26 C-0.61930698 27.20643566 -3.19231005 27.32268559 -7 27 C-11.33833918 24.74740081 -14.20287362 22.5926563 -16 18 C-16.64636328 13.16424508 -16.77686142 9.35231432 -14.3125 5.0625 C-9.59886847 0.85845026 -6.46027452 -0.79336705 0 0 Z " fill="#132A58" transform="translate(93,70)"/>
<path d="M0 0 C6.93 0 13.86 0 21 0 C21 5 21 5 18.69921875 7.75390625 C17.70762502 8.7031355 16.70315482 9.639061 15.6875 10.5625 C12.48135748 13.57006853 9.65907239 16.45457015 7 20 C13.93 20.495 13.93 20.495 21 21 C21 22.32 21 23.64 21 25 C14.07 25 7.14 25 0 25 C0 20 0 20 2.5546875 16.9921875 C3.64912861 15.94014605 4.75646619 14.90138915 5.875 13.875 C10.28439188 9.74901095 10.28439188 9.74901095 14 5 C7.07 4.505 7.07 4.505 0 4 C0 2.68 0 1.36 0 0 Z " fill="#0C2654" transform="translate(200,71)"/>
<path d="M0 0 C3.34425629 2.57250484 4.81699852 4.62748893 5.375 8.8125 C5 12 5 12 3.0625 14.875 C-0.52965328 17.36751452 -2.61708799 17.74496707 -6.90625 17.48046875 C-9 17 -9 17 -11.5625 14.9375 C-13.37781677 11.22793965 -13.65622237 9.08316143 -13 5 C-9.28222104 -0.46048784 -6.17499257 -0.8821418 0 0 Z " fill="#F6F7F8" transform="translate(122,75)"/>
<path d="M0 0 C2.475 0.495 2.475 0.495 5 1 C5.66 0.67 6.32 0.34 7 0 C10.3858534 -0.41948626 13.62068431 -0.49414522 17 0 C20.0625 2.4375 20.0625 2.4375 22 5 C22.33 5.33 22.66 5.66 23 6 C23.08651611 7.41570123 23.10704904 8.835595 23.09765625 10.25390625 C23.09443359 11.10791016 23.09121094 11.96191406 23.08789062 12.84179688 C23.07951172 13.73962891 23.07113281 14.63746094 23.0625 15.5625 C23.05798828 16.46419922 23.05347656 17.36589844 23.04882812 18.29492188 C23.03700225 20.53001314 23.0205222 22.76497437 23 25 C21.68 25 20.36 25 19 25 C18.96261719 23.80761719 18.92523438 22.61523438 18.88671875 21.38671875 C18.82105968 19.820281 18.75461232 18.25387616 18.6875 16.6875 C18.66494141 15.90181641 18.64238281 15.11613281 18.61914062 14.30664062 C18.5659668 13.1706543 18.5659668 13.1706543 18.51171875 12.01171875 C18.48553467 11.31522217 18.45935059 10.61872559 18.43237305 9.90112305 C17.87043067 7.43029 17.00912207 6.51592899 15 5 C10.37177673 4.39775668 10.37177673 4.39775668 6.31323242 6.27270508 C4.74504422 8.3353434 4.58479352 9.44449224 4.48828125 12.01171875 C4.45283203 12.76904297 4.41738281 13.52636719 4.38085938 14.30664062 C4.35830078 15.09232422 4.33574219 15.87800781 4.3125 16.6875 C4.27833984 17.48478516 4.24417969 18.28207031 4.20898438 19.10351562 C4.12661896 21.06851904 4.06162933 23.03423696 4 25 C2.68 25 1.36 25 0 25 C0 16.75 0 8.5 0 0 Z " fill="#0A2152" transform="translate(164,71)"/>
<path d="M0 0 C1.32 0 2.64 0 4 0 C4 0.66 4 1.32 4 2 C4.99 1.34 5.98 0.68 7 0 C10.39057026 -0.54593928 13.60984923 -0.55150778 17 0 C20.0625 2.4375 20.0625 2.4375 22 5 C22.33 5.33 22.66 5.66 23 6 C23.08651611 7.41570123 23.10704904 8.835595 23.09765625 10.25390625 C23.09443359 11.10791016 23.09121094 11.96191406 23.08789062 12.84179688 C23.07951172 13.73962891 23.07113281 14.63746094 23.0625 15.5625 C23.05798828 16.46419922 23.05347656 17.36589844 23.04882812 18.29492188 C23.03700225 20.53001314 23.0205222 22.76497437 23 25 C21.68 25 20.36 25 19 25 C18.96261719 23.80761719 18.92523438 22.61523438 18.88671875 21.38671875 C18.82105968 19.820281 18.75461232 18.25387616 18.6875 16.6875 C18.66494141 15.90181641 18.64238281 15.11613281 18.61914062 14.30664062 C18.5659668 13.1706543 18.5659668 13.1706543 18.51171875 12.01171875 C18.48553467 11.31522217 18.45935059 10.61872559 18.43237305 9.90112305 C17.87043067 7.43029 17.00912207 6.51592899 15 5 C10.37177673 4.39775668 10.37177673 4.39775668 6.31323242 6.27270508 C4.74504422 8.3353434 4.58479352 9.44449224 4.48828125 12.01171875 C4.45283203 12.76904297 4.41738281 13.52636719 4.38085938 14.30664062 C4.35830078 15.09232422 4.33574219 15.87800781 4.3125 16.6875 C4.27833984 17.48478516 4.24417969 18.28207031 4.20898438 19.10351562 C4.12661896 21.06851904 4.06162933 23.03423696 4 25 C2.68 25 1.36 25 0 25 C0 16.75 0 8.5 0 0 Z " fill="#0C2353" transform="translate(254,71)"/>
<path d="M0 0 C3 1.4375 3 1.4375 5 4 C5.77603649 7.17523327 5.78917248 9.82639922 5 13 C3.23789262 15.74863933 2.01931191 16.35310259 -1 18 C-4.92191148 18.06761916 -7.10771518 17.54909835 -10.4375 15.5 C-12.7870516 11.74071744 -12.75943729 8.31138877 -12 4 C-9.22767237 -0.73605971 -5.07715518 -0.9551084 0 0 Z " fill="#F7F8F9" transform="translate(240,75)"/>
<path d="M0 0 C3 1.4375 3 1.4375 5 4 C5.8878631 8.2821716 5.71120785 11.7321947 3.5625 15.5625 C-0.27382489 17.7145847 -3.70704811 17.74831272 -8 17 C-10.5625 15.5625 -10.5625 15.5625 -12 13 C-12.75280262 8.68129022 -12.7380068 5.26076161 -10.5 1.4375 C-6.99375069 -0.57859335 -3.88841529 -0.73148406 0 0 Z " fill="#F9FAFB" transform="translate(150,75)"/>
<path d="M0 0 C5.94 0 11.88 0 18 0 C18 8.25 18 16.5 18 25 C12.36773137 19.36773137 12.36773137 19.36773137 9.921875 15.8984375 C9.40109375 15.16109375 8.8803125 14.42375 8.34375 13.6640625 C7.8178125 12.90867187 7.291875 12.15328125 6.75 11.375 C6.20859375 10.611875 5.6671875 9.84875 5.109375 9.0625 C1.1312004 3.39360119 1.1312004 3.39360119 0 0 Z " fill="#4786C1" transform="translate(9,84)"/>
<path d="M0 0 C0.33 0 0.66 0 1 0 C1.0992502 4.03833789 1.17164562 8.07619872 1.21972656 12.11547852 C1.2397799 13.48800023 1.26703028 14.86043717 1.30175781 16.23266602 C1.35054552 18.21072044 1.37088876 20.18941119 1.390625 22.16796875 C1.41157227 23.35672607 1.43251953 24.5454834 1.45410156 25.77026367 C0.91044915 29.63691841 -0.30538712 31.2338737 -3 34 C-7.29918852 36.82591951 -12.0362164 36.88937624 -17 36 C-19.8203092 34.41763183 -22.07960101 32.61352313 -24 30 C-24 29.01 -24 28.02 -24 27 C-19.30731707 27.63414634 -19.30731707 27.63414634 -17.6875 29.5625 C-15.3074271 31.58996951 -13.04494416 31.53388376 -10.00390625 31.421875 C-6.57006914 30.69896193 -5.04073223 28.72097631 -3 26 C-2.13880866 23.82653432 -2.13880866 23.82653432 -2 22 C-2.99 22.33 -3.98 22.66 -5 23 C-5.99 22.01 -6.98 21.02 -8 20 C-7.195625 19.113125 -6.39125 18.22625 -5.5625 17.3125 C-3.2960841 14.61712968 -2.31582634 12.57936522 -2 9 C-1.34 9 -0.68 9 0 9 C0 6.03 0 3.06 0 0 Z " fill="#152D59" transform="translate(158,72)"/>
<path d="M0 0 C1.32 0 2.64 0 4 0 C4 2.31 4 4.62 4 7 C6.31 7 8.62 7 11 7 C11 8.32 11 9.64 11 11 C8.69 11 6.38 11 4 11 C4.33 15.95 4.66 20.9 5 26 C7.475 26.99 7.475 26.99 10 28 C10 29.32 10 30.64 10 32 C4.50581395 32.36627907 4.50581395 32.36627907 2.1875 30.6875 C-0.2375734 27.24134307 -0.11750765 24.08906759 -0.09765625 20.01953125 C-0.09443359 18.85615234 -0.09121094 17.69277344 -0.08789062 16.49414062 C-0.07951172 15.27919922 -0.07113281 14.06425781 -0.0625 12.8125 C-0.05798828 11.58595703 -0.05347656 10.35941406 -0.04882812 9.09570312 C-0.03703065 6.06375332 -0.02056921 3.03190094 0 0 Z " fill="#0D2756" transform="translate(281,64)"/>
<path d="M0 0 C3.63 0 7.26 0 11 0 C11.12375 1.6396875 11.12375 1.6396875 11.25 3.3125 C11.63689209 7.03276664 11.63689209 7.03276664 14.0625 8.9375 C14.701875 9.288125 15.34125 9.63875 16 10 C15.4887988 14.50343911 13.82478642 16.87525426 10.9375 20.3125 C10.20402344 21.19550781 9.47054687 22.07851562 8.71484375 22.98828125 C7.86599609 23.98408203 7.86599609 23.98408203 7 25 C6.34 24.67 5.68 24.34 5 24 C5.02618408 23.40985107 5.05236816 22.81970215 5.0793457 22.21166992 C5.18329224 19.53721755 5.2483128 16.86318935 5.3125 14.1875 C5.35439453 13.25873047 5.39628906 12.32996094 5.43945312 11.37304688 C5.48551062 8.82146139 5.4880582 6.50613552 5 4 C2.64937666 1.83551023 2.64937666 1.83551023 0 1 C0 0.67 0 0.34 0 0 Z " fill="#2B7BA4" transform="translate(27,59)"/>
<path d="M0 0 C1.65 0 3.3 0 5 0 C5 8.58 5 17.16 5 26 C3.35 26 1.7 26 0 26 C0 17.42 0 8.84 0 0 Z " fill="#31446B" transform="translate(191,71)"/>
<path d="M0 0 C3.90371537 1.30123846 4.8170602 3.11715718 7.1875 6.4375 C7.90292969 7.42621094 8.61835937 8.41492188 9.35546875 9.43359375 C11 12 11 12 11 14 C9.54462432 14.83848804 8.08559627 15.67063934 6.625 16.5 C5.40683594 17.19609375 5.40683594 17.19609375 4.1640625 17.90625 C2 19 2 19 0 19 C0 12.73 0 6.46 0 0 Z " fill="#40AEC7" transform="translate(33,85)"/>
<path d="M0 0 C1.98 0.66 3.96 1.32 6 2 C6 1.34 6 0.68 6 0 C7.32 0 8.64 0 10 0 C10 8.25 10 16.5 10 25 C8.68 25 7.36 25 6 25 C6.33 24.34 6.66 23.68 7 23 C7.07092842 20.7927077 7.08415025 18.58332548 7.0625 16.375 C7.05347656 15.18648437 7.04445312 13.99796875 7.03515625 12.7734375 C7.02355469 11.85820313 7.01195312 10.94296875 7 10 C6.67 11.65 6.34 13.3 6 15 C5.67 15 5.34 15 5 15 C4.9175 13.906875 4.835 12.81375 4.75 11.6875 C4.33575749 8.05417849 4.33575749 8.05417849 2.3125 6.125 C-0.44784782 4.78212809 -2.96182759 4.34524686 -6 4 C-6 3.67 -6 3.34 -6 3 C-4.35 3 -2.7 3 -1 3 C-0.67 2.01 -0.34 1.02 0 0 Z " fill="#1B325D" transform="translate(240,71)"/>
<path d="M0 0 C0.99 0.33 1.98 0.66 3 1 C3 5.29 3 9.58 3 14 C-0.96 14 -4.92 14 -9 14 C-7.31184863 10.62369726 -5.54968586 7.81066899 -3.375 4.75 C-2.74335938 3.85796875 -2.11171875 2.9659375 -1.4609375 2.046875 C-0.73777344 1.03367187 -0.73777344 1.03367187 0 0 Z " fill="#274A8C" transform="translate(18,70)"/>
<path d="M0 0 C2.475 0.99 2.475 0.99 5 2 C5.33 1.34 5.66 0.68 6 0 C7.32 0 8.64 0 10 0 C10 9.24 10 18.48 10 28 C9.67 28 9.34 28 9 28 C8.67 22.06 8.34 16.12 8 10 C7.34 10 6.68 10 6 10 C6 11.65 6 13.3 6 15 C5.67 15 5.34 15 5 15 C4.9175 13.906875 4.835 12.81375 4.75 11.6875 C4.33575749 8.05417849 4.33575749 8.05417849 2.3125 6.125 C-0.44784782 4.78212809 -2.96182759 4.34524686 -6 4 C-6 3.67 -6 3.34 -6 3 C-4.35 3 -2.7 3 -1 3 C-0.67 2.01 -0.34 1.02 0 0 Z " fill="#32466C" transform="translate(150,71)"/>
<path d="M0 0 C0.33 0 0.66 0 1 0 C1 9.24 1 18.48 1 28 C0.01 28 -0.98 28 -2 28 C-3.24546405 25.50907189 -2.7767578 24.58919267 -2 22 C-2.99 22.33 -3.98 22.66 -5 23 C-5.99 22.01 -6.98 21.02 -8 20 C-7.195625 19.113125 -6.39125 18.22625 -5.5625 17.3125 C-3.2960841 14.61712968 -2.31582634 12.57936522 -2 9 C-1.34 9 -0.68 9 0 9 C0 6.03 0 3.06 0 0 Z " fill="#082051" transform="translate(158,72)"/>
<path d="M0 0 C4.95701674 -0.52179124 7.98403453 -0.54240368 12.0625 2.5 C14.02726686 4.37586338 14.92914325 5.31505144 15.2109375 8.0390625 C14.9375 10.125 14.9375 10.125 14 14 C14 15.32 14 16.64 14 18 C11 20.25 11 20.25 8 22 C9 20 10 18 11 16 C11.23512598 10.88761 11.23512598 10.88761 10 6 C7.94566049 4.9712226 7.94566049 4.9712226 5.5 4.4375 C3.03125 3.80859375 3.03125 3.80859375 1 3 C0.67 2.01 0.34 1.02 0 0 Z " fill="#0E2655" transform="translate(115,71)"/>
<path d="M0 0 C3.3 0 6.6 0 10 0 C10 3.96 10 7.92 10 12 C9.01 12 8.02 12 7 12 C5.17578125 9.8828125 5.17578125 9.8828125 3.3125 7.125 C2.37857422 5.76761719 2.37857422 5.76761719 1.42578125 4.3828125 C0 2 0 2 0 0 Z " fill="#4A6FBD" transform="translate(9,84)"/>
<path d="M0 0 C0.66 0.33 1.32 0.66 2 1 C2.59355614 3.64860427 2.74209269 6.29197322 3 9 C-2.28 9 -7.56 9 -13 9 C-9.92381039 6.53904831 -7.09106693 4.28654382 -3.8125 2.1875 C-2.80123047 1.52814453 -2.80123047 1.52814453 -1.76953125 0.85546875 C-1.18558594 0.57316406 -0.60164063 0.29085937 0 0 Z " fill="#286799" transform="translate(40,100)"/>
<path d="M0 0 C2.9719385 1.12451727 5.33440687 2.22293791 8 4 C7.55530671 9.03985731 5.28656638 11.37634988 2 15 C0 13 0 13 -0.1953125 9.9609375 C-0.17210937 8.77757813 -0.14890625 7.59421875 -0.125 6.375 C-0.10695312 5.18648438 -0.08890625 3.99796875 -0.0703125 2.7734375 C-0.04710937 1.85820313 -0.02390625 0.94296875 0 0 Z " fill="#2C82A6" transform="translate(35,65)"/>
<path d="M0 0 C0.33 0 0.66 0 1 0 C1.3743038 4.67879749 1.44402217 8.07780011 -0.625 12.375 C-3.31072294 15.34343061 -5.2283052 16.6688136 -9 18 C-12.875 18.1875 -12.875 18.1875 -16 18 C-16 17.34 -16 16.68 -16 16 C-14.02 16 -12.04 16 -10 16 C-10 15.34 -10 14.68 -10 14 C-11.65 14 -13.3 14 -15 14 C-15 13.67 -15 13.34 -15 13 C-7.25 12 -7.25 12 -5 12 C-3.65117592 11.36525925 -2.3153341 10.70151152 -1 10 C-1.20625 8.906875 -1.4125 7.81375 -1.625 6.6875 C-2 3 -2 3 0 0 Z " fill="#2A3E67" transform="translate(130,79)"/>
<path d="M0 0 C2.31 0 4.62 0 7 0 C7.87867729 3.73437848 8.08912219 7.16774573 8 11 C7.01 11.33 6.02 11.66 5 12 C2.5 9.9375 2.5 9.9375 0 7 C-0.3125 3.1875 -0.3125 3.1875 0 0 Z " fill="#608FCB" transform="translate(38,59)"/>
<path d="M0 0 C0 4.13997696 -2.16832917 6.45607031 -4.5 9.6875 C-4.92925781 10.29400391 -5.35851563 10.90050781 -5.80078125 11.52539062 C-6.86093138 13.02138026 -7.92965571 14.511287 -9 16 C-9.66 15.67 -10.32 15.34 -11 15 C-11.59355614 12.35139573 -11.74209269 9.70802678 -12 7 C-8.04 4.69 -4.08 2.38 0 0 Z " fill="#238A9B" transform="translate(66,85)"/>
<path d="M0 0 C1.32 0.33 2.64 0.66 4 1 C4 6.61 4 12.22 4 18 C2.68 18 1.36 18 0 18 C0 12.06 0 6.12 0 0 Z " fill="#071E50" transform="translate(273,78)"/>
<path d="M0 0 C2.93237157 2.80883485 5.4311214 5.71119081 7.8125 9 C8.43769531 9.845625 9.06289062 10.69125 9.70703125 11.5625 C11 14 11 14 10.69921875 16.3125 C10.46847656 16.869375 10.23773438 17.42625 10 18 C9.67 17.01 9.34 16.02 9 15 C7.34954877 14.01819311 5.65467418 13.10979467 3.9375 12.25 C1.1953125 10.6875 1.1953125 10.6875 -1 9 C-1.6830425 5.27431365 -1.68544672 3.37089343 0 0 Z " fill="#88C6DB" transform="translate(57,68)"/>
<path d="M0 0 C0 0.66 0 1.32 0 2 C4.95 2 9.9 2 15 2 C15 2.99 15 3.98 15 5 C8.4 5 1.8 5 -5 5 C-4.67 3.68 -4.34 2.36 -4 1 C-2 0 -2 0 0 0 Z " fill="#031B4E" transform="translate(205,91)"/>
<path d="M0 0 C3 1 3 1 4.75 3 C6.49906681 7.19776033 5.7938148 10.61010852 5 15 C2.525 14.01 2.525 14.01 0 13 C0 8.71 0 4.42 0 0 Z " fill="#78B3D5" transform="translate(51,61)"/>
<path d="M0 0 C1.32 0 2.64 0 4 0 C3.52695318 4.25742137 1.1136178 6.25705098 -2 9 C-5.47325181 10.1577506 -8.36067448 10.06866652 -12 10 C-12 9.34 -12 8.68 -12 8 C-10.02 8 -8.04 8 -6 8 C-6 7.34 -6 6.68 -6 6 C-7.65 6 -9.3 6 -11 6 C-11 5.67 -11 5.34 -11 5 C-10.37351562 4.89042969 -9.74703125 4.78085938 -9.1015625 4.66796875 C-7.87566406 4.43013672 -7.87566406 4.43013672 -6.625 4.1875 C-5.81289062 4.03667969 -5.00078125 3.88585937 -4.1640625 3.73046875 C-1.64179359 3.12455058 -1.64179359 3.12455058 0 0 Z " fill="#142A58" transform="translate(98,87)"/>
<path d="M0 0 C0.66 0.33 1.32 0.66 2 1 C2 5.62 2 10.24 2 15 C-4.75 16.125 -4.75 16.125 -7 15 C-7 14.01 -7 13.02 -7 12 C-6.21625 11.443125 -5.4325 10.88625 -4.625 10.3125 C-1.00715843 7.12535386 -0.85725808 4.67595315 0 0 Z " fill="#0D2654" transform="translate(246,80)"/>
<path d="M0 0 C0.99 0.33 1.98 0.66 3 1 C3 7.6 3 14.2 3 21 C1.68 21.33 0.36 21.66 -1 22 C-0.67 14.74 -0.34 7.48 0 0 Z " fill="#2A73A0" transform="translate(30,62)"/>
<path d="M0 0 C-0.33 0.99 -0.66 1.98 -1 3 C-3.32671854 3.68939809 -5.66067594 4.35466922 -8 5 C-9.0194119 5.98020375 -10.02246356 6.97803008 -11 8 C-13.6875 8.6875 -13.6875 8.6875 -16 9 C-13.3723811 0.40051996 -8.11766964 -0.63667997 0 0 Z " fill="#142C59" transform="translate(150,71)"/>
<path d="M0 0 C-0.33 0.99 -0.66 1.98 -1 3 C-3.32671854 3.68939809 -5.66067594 4.35466922 -8 5 C-9.0194119 5.98020375 -10.02246356 6.97803008 -11 8 C-13.6875 8.6875 -13.6875 8.6875 -16 9 C-13.3723811 0.40051996 -8.11766964 -0.63667997 0 0 Z " fill="#102856" transform="translate(240,71)"/>
<path d="M0 0 C0.99 0.33 1.98 0.66 3 1 C3 6.28 3 11.56 3 17 C1.68 17 0.36 17 -1 17 C-0.96519531 15.73542969 -0.96519531 15.73542969 -0.9296875 14.4453125 C-0.91164063 13.34960938 -0.89359375 12.25390625 -0.875 11.125 C-0.84019531 9.48917969 -0.84019531 9.48917969 -0.8046875 7.8203125 C-0.69939466 4.8628949 -0.69939466 4.8628949 -3 3 C-2.01 2.01 -1.02 1.02 0 0 Z " fill="#2A5A93" transform="translate(21,66)"/>
<path d="M0 0 C0 0.33 0 0.66 0 1 C-1.65 1.33 -3.3 1.66 -5 2 C-5 2.66 -5 3.32 -5 4 C-3.68 4.33 -2.36 4.66 -1 5 C-2.216875 5.268125 -3.43375 5.53625 -4.6875 5.8125 C-8.22121044 6.68494361 -10.9768282 7.92156939 -14 10 C-14.33 9.01 -14.66 8.02 -15 7 C-9.87675926 1.7382933 -7.47754677 -0.28217158 0 0 Z " fill="#283D66" transform="translate(93,70)"/>
<path d="M0 0 C0.33 0.99 0.66 1.98 1 3 C0.01 4.32 -0.98 5.64 -2 7 C4.93 7.495 4.93 7.495 12 8 C11.67 9.32 11.34 10.64 11 12 C11 11.01 11 10.02 11 9 C6.05 9 1.1 9 -4 9 C-4 8.34 -4 7.68 -4 7 C-5.98 7.99 -5.98 7.99 -8 9 C-8 6 -8 6 -6.25 3.9375 C-4.21005384 2.18087969 -2.45849217 1.0536395 0 0 Z " fill="#1A305C" transform="translate(209,84)"/>
<path d="M0 0 C4.64294955 0.62742561 4.64294955 0.62742561 6.4375 2.5 C8.70217889 4.67409173 10.95707737 4.66189749 14 5 C13.01 5.33 12.02 5.66 11 6 C11 6.66 11 7.32 11 8 C9.234375 8.671875 9.234375 8.671875 7 9 C5.078125 7.890625 5.078125 7.890625 3.25 6.25 C2.63640625 5.71890625 2.0228125 5.1878125 1.390625 4.640625 C0 3 0 3 0 0 Z " fill="#233762" transform="translate(134,99)"/>
<path d="M0 0 C0 3.3 0 6.6 0 10 C-1.65 9.67 -3.3 9.34 -5 9 C-5 6.36 -5 3.72 -5 1 C-2 0 -2 0 0 0 Z " fill="#253A64" transform="translate(138,79)"/>
<path d="M0 0 C0 0.33 0 0.66 0 1 C-1.65 1.33 -3.3 1.66 -5 2 C-5 2.66 -5 3.32 -5 4 C-3.68 4.33 -2.36 4.66 -1 5 C-3.01822917 5.42317708 -5.03645833 5.84635417 -7.0546875 6.26953125 C-9.37046549 6.92308838 -9.37046549 6.92308838 -11 10 C-11.99 9.67 -12.98 9.34 -14 9 C-13.21448343 7.68381002 -12.4213763 6.37214772 -11.625 5.0625 C-11.18414062 4.33160156 -10.74328125 3.60070312 -10.2890625 2.84765625 C-7.63562194 -0.95560855 -4.29817793 -0.07959589 0 0 Z " fill="#0A2553" transform="translate(121,70)"/>
<path d="M0 0 C3.88862987 1.26117725 5.89375599 2.45264167 8 6 C8 6.66 8 7.32 8 8 C5.6875 8.1875 5.6875 8.1875 3 8 C1.97895449 7.02149805 0.9793879 6.02019573 0 5 C-2.60611077 4.27802838 -2.60611077 4.27802838 -5 4 C-4.0409375 3.8453125 -4.0409375 3.8453125 -3.0625 3.6875 C-2.381875 3.460625 -1.70125 3.23375 -1 3 C-0.67 2.01 -0.34 1.02 0 0 Z " fill="#1D345F" transform="translate(269,71)"/>
<path d="M0 0 C0.66 0 1.32 0 2 0 C2.06058594 1.03640625 2.12117188 2.0728125 2.18359375 3.140625 C2.26803371 4.51042873 2.35267997 5.88021975 2.4375 7.25 C2.47681641 7.93191406 2.51613281 8.61382812 2.55664062 9.31640625 C2.76666472 12.64448041 3.01934002 15.80255402 4 19 C2.68 18.34 1.36 17.68 0 17 C0 11.39 0 5.78 0 0 Z " fill="#05184D" transform="translate(283,75)"/>
<path d="M0 0 C3.63 0 7.26 0 11 0 C11 2.31 11 4.62 11 7 C7.37 5.02 3.74 3.04 0 1 C0 0.67 0 0.34 0 0 Z " fill="#4675BE" transform="translate(27,59)"/>
<path d="M0 0 C0.66 0 1.32 0 2 0 C3.2890625 1.4609375 3.2890625 1.4609375 4.625 3.375 C5.29402344 4.31472656 5.29402344 4.31472656 5.9765625 5.2734375 C7 7 7 7 7 9 C5.02 9.66 3.04 10.32 1 11 C0.67 7.37 0.34 3.74 0 0 Z " fill="#46BFCB" transform="translate(37,90)"/>
<path d="M0 0 C0 2.31 0 4.62 0 7 C-1.65 7.66 -3.3 8.32 -5 9 C-5 6.36 -5 3.72 -5 1 C-2 0 -2 0 0 0 Z " fill="#2D4069" transform="translate(228,79)"/>
<path d="M0 0 C2.4375 0.75 2.4375 0.75 5 2 C5.875 4 5.875 4 6 6 C5.67 6.66 5.34 7.32 5 8 C4.34 8 3.68 8 3 8 C2.566875 7.525625 2.13375 7.05125 1.6875 6.5625 C-0.44693733 4.58616914 -2.16307947 4.38336764 -5 4 C-4.0409375 3.8453125 -4.0409375 3.8453125 -3.0625 3.6875 C-2.381875 3.460625 -1.70125 3.23375 -1 3 C-0.67 2.01 -0.34 1.02 0 0 Z " fill="#1D335F" transform="translate(179,71)"/>
<path d="M0 0 C1.98 0.495 1.98 0.495 4 1 C4 3.97 4 6.94 4 10 C3.01 10 2.02 10 1 10 C0.63883954 8.5225254 0.28624952 7.04295325 -0.0625 5.5625 C-0.25972656 4.73878906 -0.45695312 3.91507812 -0.66015625 3.06640625 C-0.82837891 2.04353516 -0.82837891 2.04353516 -1 1 C-0.67 0.67 -0.34 0.34 0 0 Z " fill="#226993" transform="translate(42,99)"/>
<path d="M0 0 C0.33 1.65 0.66 3.3 1 5 C-2.63 5 -6.26 5 -10 5 C-3.87096774 0 -3.87096774 0 0 0 Z " fill="#275591" transform="translate(37,104)"/>
<path d="M0 0 C2.475 0.99 2.475 0.99 5 2 C4.75 4.375 4.75 4.375 4 7 C2.02 7.99 2.02 7.99 0 9 C0 6.03 0 3.06 0 0 Z " fill="#308DAC" transform="translate(38,67)"/>
<path d="M0 0 C0.66 1.32 1.32 2.64 2 4 C-1.6441774 6.4294516 -3.71241272 6.16179575 -8 6 C-8 5.34 -8 4.68 -8 4 C-6.02 4 -4.04 4 -2 4 C-2 3.34 -2 2.68 -2 2 C-3.65 2 -5.3 2 -7 2 C-7 1.67 -7 1.34 -7 1 C-3.535 0.505 -3.535 0.505 0 0 Z " fill="#34486E" transform="translate(94,91)"/>
<path d="M0 0 C7.50769231 -0.36923077 7.50769231 -0.36923077 10 1.5 C10.495 2.2425 10.495 2.2425 11 3 C10.34 3 9.68 3 9 3 C8.34 3.66 7.68 4.32 7 5 C4.0625 4.1875 4.0625 4.1875 1 3 C0.67 2.01 0.34 1.02 0 0 Z " fill="#0A2252" transform="translate(87,71)"/>
<path d="M0 0 C0.66 0 1.32 0 2 0 C1.67 0.598125 1.34 1.19625 1 1.8125 C-0.20787988 4.05386471 -0.20787988 4.05386471 0 7 C0 8.66666667 0 10.33333333 0 12 C-2.2477975 9.94766315 -3.0022242 8.99332739 -4 6 C-2.1875 2.8125 -2.1875 2.8125 0 0 Z " fill="#162C59" transform="translate(109,73)"/>
<path d="M0 0 C2.31 0 4.62 0 7 0 C6.67 0.99 6.34 1.98 6 3 C3.93359375 3.73046875 3.93359375 3.73046875 1.4375 4.1875 C0.61121094 4.34605469 -0.21507812 4.50460938 -1.06640625 4.66796875 C-2.02353516 4.83232422 -2.02353516 4.83232422 -3 5 C-2.67 4.01 -2.34 3.02 -2 2 C-1.34 2 -0.68 2 0 2 C0 1.34 0 0.68 0 0 Z " fill="#031E4F" transform="translate(143,71)"/>
<path d="M0 0 C0.66 0.66 1.32 1.32 2 2 C-1.21451269 3.60725635 -4.43612536 3.05748185 -8 3 C-7.34 2.67 -6.68 2.34 -6 2 C-6 1.34 -6 0.68 -6 0 C-3 -1 -3 -1 0 0 Z " fill="#041B4E" transform="translate(151,105)"/>
<path d="M0 0 C1.98 0.99 1.98 0.99 4 2 C4 1.67 4 1.34 4 1 C6.31 1 8.62 1 11 1 C10.01 1.33 9.02 1.66 8 2 C8 2.66 8 3.32 8 4 C6.25 4.6875 6.25 4.6875 4 5 C1.75 3.6875 1.75 3.6875 0 2 C0 1.34 0 0.68 0 0 Z " fill="#152D5A" transform="translate(137,103)"/>
<path d="M0 0 C4.455 0.99 4.455 0.99 9 2 C9 2.66 9 3.32 9 4 C6.36 4.33 3.72 4.66 1 5 C0.67 3.35 0.34 1.7 0 0 Z " fill="#072050" transform="translate(83,91)"/>
<path d="M0 0 C2.31 0 4.62 0 7 0 C6.67 0.99 6.34 1.98 6 3 C3.69 3.33 1.38 3.66 -1 4 C-0.67 2.68 -0.34 1.36 0 0 Z " fill="#031D4E" transform="translate(233,71)"/>
<path d="M0 0 C0 0.33 0 0.66 0 1 C-1.65 1.33 -3.3 1.66 -5 2 C-5 2.66 -5 3.32 -5 4 C-3.68 4.33 -2.36 4.66 -1 5 C-3.31 4.67 -5.62 4.34 -8 4 C-8.33 3.01 -8.66 2.02 -9 1 C-6.04335481 -0.4783226 -3.25770263 -0.06032783 0 0 Z " fill="#4D5F7F" transform="translate(121,70)"/>
<path d="M0 0 C1.98 0.495 1.98 0.495 4 1 C3.67 2.32 3.34 3.64 3 5 C1.68 5 0.36 5 -1 5 C-0.67 3.35 -0.34 1.7 0 0 Z " fill="#0C2152" transform="translate(192,62)"/>
<path d="M0 0 C2.3125 -0.25 2.3125 -0.25 5 0 C6.97610386 2.04424538 8 3.1176825 8 6 C7.401875 5.690625 6.80375 5.38125 6.1875 5.0625 C3.91043228 3.89790296 3.91043228 3.89790296 1 3 C0.67 2.01 0.34 1.02 0 0 Z " fill="#172E5A" transform="translate(134,88)"/>
<path d="M0 0 C0.33 0 0.66 0 1 0 C1 2.97 1 5.94 1 9 C0.01 9.495 0.01 9.495 -1 10 C-2.25 3.375 -2.25 3.375 0 0 Z " fill="#1B335E" transform="translate(130,79)"/>
<path d="M0 0 C1.32 0.66 2.64 1.32 4 2 C3.01 2 2.02 2 1 2 C1 2.66 1 3.32 1 4 C1.66 4 2.32 4 3 4 C2.67 4.66 2.34 5.32 2 6 C-0.64 5.34 -3.28 4.68 -6 4 C-6 3.67 -6 3.34 -6 3 C-4.35 3 -2.7 3 -1 3 C-0.67 2.01 -0.34 1.02 0 0 Z " fill="#2D4269" transform="translate(240,71)"/>
<path d="M0 0 C4 4.625 4 4.625 4 8 C2.68 7.67 1.36 7.34 0 7 C0 4.69 0 2.38 0 0 Z " fill="#04174C" transform="translate(105,80)"/>
<path d="M0 0 C0.66 0 1.32 0 2 0 C2 1.32 2 2.64 2 4 C-1 6.25 -1 6.25 -4 8 C-2.66666667 5.33333333 -1.33333333 2.66666667 0 0 Z " fill="#041E4F" transform="translate(127,85)"/>
<path d="M0 0 C1.98 0 3.96 0 6 0 C5.67 1.32 5.34 2.64 5 4 C3.0625 3.6875 3.0625 3.6875 1 3 C0.67 2.01 0.34 1.02 0 0 Z " fill="#041D4E" transform="translate(115,71)"/>
</svg>
