<?xml version="1.0" encoding="UTF-8"?>
<svg version="1.1" xmlns="http://www.w3.org/2000/svg" width="354" height="142">
<path d="M0 0 C116.82 0 233.64 0 354 0 C354 46.86 354 93.72 354 142 C237.18 142 120.36 142 0 142 C0 95.14 0 48.28 0 0 Z " fill="#FDFDFE" transform="translate(0,0)"/>
<path d="M0 0 C1.670625 0.4021875 1.670625 0.4021875 3.375 0.8125 C4.87656874 3.81563748 4.46781204 6.60317522 4.4375 9.9375 C4.42847656 11.21882813 4.41945313 12.50015625 4.41015625 13.8203125 C4.39855469 14.80773438 4.38695312 15.79515625 4.375 16.8125 C6.05529297 16.76029297 6.05529297 16.76029297 7.76953125 16.70703125 C9.24217251 16.67889161 10.71482998 16.65159163 12.1875 16.625 C12.92548828 16.59986328 13.66347656 16.57472656 14.42382812 16.54882812 C19.8671869 16.47493638 19.8671869 16.47493638 22.40234375 18.16015625 C23.375 19.8125 23.375 19.8125 23.125 22.4375 C22.375 24.8125 22.375 24.8125 21.375 25.8125 C18.51232433 25.88575168 15.674281 25.90488205 12.8125 25.875 C12.00619141 25.87048828 11.19988281 25.86597656 10.36914062 25.86132812 C8.37106244 25.84950518 6.37302217 25.83156914 4.375 25.8125 C4.44398285 30.99078686 4.53200057 36.1682744 4.63745117 41.34594727 C4.67064654 43.10627355 4.69869524 44.86670488 4.72143555 46.62719727 C4.7550812 49.16207525 4.8074006 51.69599523 4.86328125 54.23046875 C4.86967117 55.01399216 4.8760611 55.79751556 4.88264465 56.6047821 C5.01635768 61.60624782 5.76449129 65.20199129 9.375 68.8125 C13.92452753 69.38589087 17.36849274 69.39962924 21.375 67.0625 C23.87068967 64.31329307 23.87068967 64.31329307 24.375 60.8125 C24.065625 59.760625 23.75625 58.70875 23.4375 57.625 C20.92799814 48.62031684 22.25409102 38.7842393 26.59375 30.48046875 C31.0633799 23.98708976 37.85992637 19.17438029 45.375 16.8125 C54.16985506 16.04618031 64.94982199 15.21374509 72.375 20.8125 C73.5625 23.9375 73.5625 23.9375 73.375 26.8125 C73.045 27.4725 72.715 28.1325 72.375 28.8125 C71.158125 28.85375 69.94125 28.895 68.6875 28.9375 C68.00300781 28.96070312 67.31851563 28.98390625 66.61328125 29.0078125 C64.375 28.8125 64.375 28.8125 61.9375 27.83203125 C56.89125408 25.82430231 51.08364161 25.72364407 46.0234375 27.7578125 C40.82848462 30.85143612 37.36053226 34.29939273 35.125 40 C33.51018502 48.20864282 33.75922135 54.24790458 37.8828125 61.6796875 C39.9608808 64.64991077 42.15011826 66.20005913 45.375 67.8125 C46.138125 68.225 46.90125 68.6375 47.6875 69.0625 C54.8284446 71.05532175 60.6098414 70.05662242 67.08203125 66.484375 C75.56322644 60.30047118 78.50621126 48.85399214 81.3125 39.25 C84.02186688 30.3237913 87.40790216 23.09872605 95.375 17.8125 C98.80491538 16.66919487 101.5736416 16.60868349 105.1875 16.5625 C106.39019531 16.53671875 107.59289062 16.5109375 108.83203125 16.484375 C113.63010883 16.92873941 116.96589516 18.40339516 120.375 21.8125 C119.81944444 26.36805556 119.81944444 26.36805556 118.375 27.8125 C116.50801604 27.57488386 114.64140461 27.33377153 112.77734375 27.07421875 C105.38867026 26.14948363 105.38867026 26.14948363 98.375 27.8125 C97.95668596 31.10249282 97.95668596 31.10249282 98.375 34.8125 C101.73615052 38.7328068 105.56133357 41.39571121 109.875 44.1875 C119.72869393 50.88315335 119.72869393 50.88315335 121.375 55.8125 C122.18518929 61.2962812 122.32146754 66.75093069 119.8125 71.8125 C116.29651103 76.13987105 112.68952655 78.04099115 107.375 79.8125 C99.87052043 80.50926294 91.70014081 80.44032839 85.375 75.8125 C84.41796875 73.35546875 84.41796875 73.35546875 84.375 70.8125 C85.5546875 68.94921875 85.5546875 68.94921875 87.375 67.8125 C89.3203125 67.95703125 89.3203125 67.95703125 91.5 68.625 C97.55850547 70.22610585 103.30965343 70.51624904 109.375 68.8125 C109.65368395 67.42210943 109.89668931 66.02454454 110.125 64.625 C110.26421875 63.84769531 110.4034375 63.07039063 110.546875 62.26953125 C110.29539553 58.67451792 108.87448213 57.37546104 106.375 54.8125 C104.07934772 52.96171731 101.68599657 51.28499354 99.25 49.625 C92.56559406 45.00309406 92.56559406 45.00309406 90.375 42.8125 C89.92769531 44.0190625 89.48039062 45.225625 89.01953125 46.46875 C88.40930459 48.08350362 87.79860196 49.69807743 87.1875 51.3125 C86.89552734 52.10398438 86.60355469 52.89546875 86.30273438 53.7109375 C82.37605205 64.01320079 77.13082527 72.15412135 67.375 77.8125 C58.08999344 81.6022986 47.90603751 80.71043933 38.765625 76.96875 C35.71682748 75.49416819 33.0740681 73.85503802 30.375 71.8125 C29.92769531 72.22242187 29.48039062 72.63234375 29.01953125 73.0546875 C28.41496094 73.59351562 27.81039062 74.13234375 27.1875 74.6875 C26.59582031 75.22117187 26.00414062 75.75484375 25.39453125 76.3046875 C19.87548138 80.4252934 14.01587028 80.56587604 7.375 79.8125 C2.08248936 78.186064 -1.72469841 75.60915263 -4.625 70.8125 C-7.26340442 63.99488678 -6.93089453 57.1209746 -6.92578125 49.890625 C-6.92967334 48.54018015 -6.93400906 47.18973651 -6.93876648 45.83929443 C-6.94619525 43.02189137 -6.94595976 40.20461375 -6.94067383 37.38720703 C-6.93485266 33.77675578 -6.95188918 30.16681314 -6.9750185 26.55644608 C-6.98973655 23.77348838 -6.99063075 20.9906542 -6.98750877 18.20766449 C-6.98827108 16.22950484 -7.00214185 14.25136432 -7.01618958 12.27325439 C-7.00996078 11.07480896 -7.00373199 9.87636353 -6.99731445 8.64160156 C-6.99794388 7.58571838 -6.9985733 6.52983521 -6.9992218 5.44195557 C-6.625 2.8125 -6.625 2.8125 -5.32829285 0.9364624 C-3.625 -0.1875 -3.625 -0.1875 0 0 Z " fill="#EE3A84" transform="translate(37.625,31.1875)"/>
<path d="M0 0 C1.20269531 -0.02578125 2.40539062 -0.0515625 3.64453125 -0.078125 C8.44260883 0.36623941 11.77839516 1.84089516 15.1875 5.25 C14.63194444 9.80555556 14.63194444 9.80555556 13.1875 11.25 C11.32051604 11.01238386 9.45390461 10.77127153 7.58984375 10.51171875 C0.20117026 9.58698363 0.20117026 9.58698363 -6.8125 11.25 C-7.23081404 14.53999282 -7.23081404 14.53999282 -6.8125 18.25 C-3.45134948 22.1703068 0.37383357 24.83321121 4.6875 27.625 C14.54119393 34.32065335 14.54119393 34.32065335 16.1875 39.25 C16.99768929 44.7337812 17.13396754 50.18843069 14.625 55.25 C11.10901103 59.57737105 7.50202655 61.47849115 2.1875 63.25 C-5.31697957 63.94676294 -13.48735919 63.87782839 -19.8125 59.25 C-20.76953125 56.79296875 -20.76953125 56.79296875 -20.8125 54.25 C-19.6328125 52.38671875 -19.6328125 52.38671875 -17.8125 51.25 C-15.8671875 51.39453125 -15.8671875 51.39453125 -13.6875 52.0625 C-7.62899453 53.66360585 -1.87784657 53.95374904 4.1875 52.25 C4.46618395 50.85960943 4.70918931 49.46204454 4.9375 48.0625 C5.07671875 47.28519531 5.2159375 46.50789063 5.359375 45.70703125 C5.108081 42.11466932 3.68564581 40.80781489 1.1875 38.25 C-1.06813876 36.46341414 -3.42217357 34.85021853 -5.8125 33.25 C-10.81174148 29.90322746 -15.04107287 26.79285427 -17.8125 21.25 C-19.29188874 10.34522731 -19.29188874 10.34522731 -16.1328125 5.87109375 C-10.91104178 1.29008977 -6.94515679 0.088756 0 0 Z " fill="#F61F44" transform="translate(142.8125,47.75)"/>
<path d="M0 0 C1.670625 0.4021875 1.670625 0.4021875 3.375 0.8125 C4.87656874 3.81563748 4.46781204 6.60317522 4.4375 9.9375 C4.42847656 11.21882813 4.41945313 12.50015625 4.41015625 13.8203125 C4.39855469 14.80773438 4.38695312 15.79515625 4.375 16.8125 C6.05529297 16.76029297 6.05529297 16.76029297 7.76953125 16.70703125 C9.24217251 16.67889161 10.71482998 16.65159163 12.1875 16.625 C12.92548828 16.59986328 13.66347656 16.57472656 14.42382812 16.54882812 C19.8671869 16.47493638 19.8671869 16.47493638 22.40234375 18.16015625 C23.375 19.8125 23.375 19.8125 23.125 22.4375 C22.375 24.8125 22.375 24.8125 21.375 25.8125 C18.51030675 25.88580331 15.67606326 25.90467831 12.8125 25.875 C10.028125 25.854375 7.24375 25.83375 4.375 25.8125 C4.375 35.3825 4.375 44.9525 4.375 54.8125 C3.88 53.3275 3.88 53.3275 3.375 51.8125 C0.405 51.4825 -2.565 51.1525 -5.625 50.8125 C-5.955 51.4725 -6.285 52.1325 -6.625 52.8125 C-6.70095253 45.74673331 -6.75355861 38.68107156 -6.78979492 31.61499023 C-6.80489816 29.21032782 -6.82538208 26.80569302 -6.85131836 24.40112305 C-6.88763351 20.94833569 -6.904711 17.49591196 -6.91796875 14.04296875 C-6.93345261 12.96476364 -6.94893646 11.88655853 -6.96488953 10.77568054 C-6.96511612 9.77486954 -6.96534271 8.77405853 -6.96557617 7.74291992 C-6.97223801 6.86133713 -6.97889984 5.97975433 -6.98576355 5.07145691 C-6.625 2.8125 -6.625 2.8125 -5.33027649 0.99263 C-3.625 -0.1875 -3.625 -0.1875 0 0 Z " fill="#FB0B16" transform="translate(37.625,31.1875)"/>
<path d="M0 0 C1.69921875 1.28125 1.69921875 1.28125 2.88671875 4.40625 C2.69921875 7.28125 2.69921875 7.28125 1.69921875 9.28125 C0.48234375 9.3225 -0.73453125 9.36375 -1.98828125 9.40625 C-3.01501953 9.44105469 -3.01501953 9.44105469 -4.0625 9.4765625 C-6.30078125 9.28125 -6.30078125 9.28125 -8.73828125 8.30078125 C-13.78452717 6.29305231 -19.59213964 6.19239407 -24.65234375 8.2265625 C-30.18402297 11.52070855 -34.36044813 15.54094967 -35.99609375 21.96875 C-36.70701838 27.36448568 -36.43631783 32.85225711 -36.30078125 38.28125 C-36.63078125 37.62125 -36.96078125 36.96125 -37.30078125 36.28125 C-38.61549693 36.56276087 -39.92753892 36.85678339 -41.23828125 37.15625 C-42.33462891 37.39988281 -42.33462891 37.39988281 -43.453125 37.6484375 C-45.50778419 38.11086523 -45.50778419 38.11086523 -46.30078125 40.28125 C-49.99303681 31.28137707 -48.53183612 22.25232282 -45.30078125 13.28125 C-36.93134434 -2.73334562 -15.78975055 -7.50616325 0 0 Z " fill="#FB5607" transform="translate(108.30078125,50.71875)"/>
<path d="M0 0 C6.83033757 6.65059185 6.83033757 6.65059185 7.3359375 10.671875 C7.42087463 17.36492087 7.28727418 21.72335486 3 27 C-3.90000192 32.11227415 -10.6710605 32.72600925 -19 32 C-22.59162674 31.13273055 -25.99852422 30.19604832 -29 28 C-29.95703125 25.54296875 -29.95703125 25.54296875 -30 23 C-28.8203125 21.13671875 -28.8203125 21.13671875 -27 20 C-25.0546875 20.14453125 -25.0546875 20.14453125 -22.875 20.8125 C-16.68614202 22.44805464 -11.21097186 22.55274296 -5 21 C-4.67 18.03 -4.34 15.06 -4 12 C-3.01 12 -2.02 12 -1 12 C-0.67 8.04 -0.34 4.08 0 0 Z " fill="#EF347B" transform="translate(152,79)"/>
<path d="M0 0 C1.20269531 -0.02578125 2.40539062 -0.0515625 3.64453125 -0.078125 C8.44260883 0.36623941 11.77839516 1.84089516 15.1875 5.25 C14.63194444 9.80555556 14.63194444 9.80555556 13.1875 11.25 C11.32051604 11.01238386 9.45390461 10.77127153 7.58984375 10.51171875 C0.20117026 9.58698363 0.20117026 9.58698363 -6.8125 11.25 C-7.21979228 13.57156597 -7.55688677 15.9068787 -7.8125 18.25 C-14.53391503 13.12049905 -14.53391503 13.12049905 -15.25 8.3125 C-14.8125 5.25 -14.8125 5.25 -12.5 2.9375 C-8.23827354 0.26153222 -4.95682397 0.06334599 0 0 Z " fill="#FCB111" transform="translate(142.8125,47.75)"/>
<path d="M0 0 C-0.47050781 0.36351562 -0.94101563 0.72703125 -1.42578125 1.1015625 C-6.59116922 5.27237266 -9.73076848 9.34511043 -11 16 C-11.06831987 18.4157906 -11.08487642 20.83334713 -11.0625 23.25 C-11.05347656 24.51328125 -11.04445313 25.7765625 -11.03515625 27.078125 C-11.02355469 28.04234375 -11.01195313 29.0065625 -11 30 C-11.33 29.34 -11.66 28.68 -12 28 C-13.31471568 28.28151087 -14.62675767 28.57553339 -15.9375 28.875 C-17.03384766 29.11863281 -17.03384766 29.11863281 -18.15234375 29.3671875 C-20.20700294 29.82961523 -20.20700294 29.82961523 -21 32 C-23.29646902 26.40235675 -24.47160987 20.60675811 -22.125 14.85546875 C-18.72659459 9.00886998 -7.64091617 -3.82045808 0 0 Z " fill="#FB1422" transform="translate(83,59)"/>
<path d="M0 0 C0.33 0 0.66 0 1 0 C1.06058594 0.71285156 1.12117188 1.42570312 1.18359375 2.16015625 C1.26738281 3.11792969 1.35117188 4.07570313 1.4375 5.0625 C1.51871094 6.00222656 1.59992188 6.94195312 1.68359375 7.91015625 C1.95185409 11.06322511 1.95185409 11.06322511 2.70703125 14.36328125 C3.07615511 18.94533873 1.97406842 21.94136609 0.25 26.125 C-0.01554687 26.81464844 -0.28109375 27.50429687 -0.5546875 28.21484375 C-2.06175399 32.04103682 -3.76030996 35.53252806 -6 39 C-6.33 38.34 -6.66 37.68 -7 37 C-8.97888961 36.27306096 -10.97954558 35.60183749 -13 35 C-11.86415262 31.40314996 -10.56766513 27.91920758 -9.125 24.4375 C-7.07914878 19.41033398 -5.52353677 14.29232557 -4.02734375 9.078125 C-2.9563431 5.8691953 -1.57879759 2.98763963 0 0 Z " fill="#8407D1" transform="translate(124,58)"/>
<path d="M0 0 C1.670625 0.4021875 1.670625 0.4021875 3.375 0.8125 C5.60602556 5.27455113 4.41846299 12.03157124 4.375 16.8125 C9.655 16.8125 14.935 16.8125 20.375 16.8125 C20.375 17.1425 20.375 17.4725 20.375 17.8125 C19.79008789 17.83755615 19.20517578 17.8626123 18.60253906 17.88842773 C15.94315529 18.00472962 13.28409597 18.12730067 10.625 18.25 C9.70460938 18.28931641 8.78421875 18.32863281 7.8359375 18.36914062 C6.94648437 18.41103516 6.05703125 18.45292969 5.140625 18.49609375 C3.91520996 18.55108032 3.91520996 18.55108032 2.66503906 18.60717773 C0.41911821 18.80854441 -1.51264449 19.01320665 -3.625 19.8125 C-3.955 20.8025 -4.285 21.7925 -4.625 22.8125 C-5.285 22.8125 -5.945 22.8125 -6.625 22.8125 C-6.71206892 19.54183434 -6.76541241 16.27146635 -6.8125 13 C-6.83763672 12.07123047 -6.86277344 11.14246094 -6.88867188 10.18554688 C-6.89833984 9.29287109 -6.90800781 8.40019531 -6.91796875 7.48046875 C-6.9336792 6.65828857 -6.94938965 5.8361084 -6.96557617 4.98901367 C-6.625 2.8125 -6.625 2.8125 -5.33325195 1.0090332 C-3.625 -0.1875 -3.625 -0.1875 0 0 Z " fill="#FA9710" transform="translate(37.625,31.1875)"/>
<path d="M0 0 C0 3.3 0 6.6 0 10 C-1.485 10.391875 -2.97 10.78375 -4.5 11.1875 C-12.5959603 13.63804527 -17.92564116 17.28393683 -23 24 C-23.66 24.66 -24.32 25.32 -25 26 C-23.98966059 17.49921322 -21.59537116 11.64069899 -14.78125 6.2421875 C-10.19332077 3.07651633 -5.72230795 0 0 0 Z " fill="#FC8A0B" transform="translate(86,48)"/>
<path d="M0 0 C3.375 1.0625 3.375 1.0625 5.375 2.6875 C6.84826389 6.18650175 6.34614747 8.43688276 5.375 12.0625 C3.75 14.5625 3.75 14.5625 1.375 16.0625 C-2.41314147 16.0625 -4.66429943 15.8992392 -7.5625 13.375 C-8.9863395 10.2760552 -9.17653827 8.44067188 -8.625 5.0625 C-5.92665364 1.21940065 -4.75860157 0.08204485 0 0 Z " fill="#1B83C7" transform="translate(197.625,71.9375)"/>
<path d="M0 0 C1.07894531 0.31710938 1.07894531 0.31710938 2.1796875 0.640625 C6.8150831 1.8736859 11.28103689 2.43599161 16.0546875 2.890625 C16.93359375 9.04296875 16.93359375 9.04296875 17.0546875 10.890625 C15.46069424 12.48461826 13.82470025 12.1376917 11.6171875 12.203125 C6.103653 12.13956841 0.63172521 11.11766775 -3.9453125 7.890625 C-4.91015625 5.43359375 -4.91015625 5.43359375 -4.9453125 2.890625 C-3.47980216 0.58074777 -2.77688333 -0.15612999 0 0 Z " fill="#A51DBD" transform="translate(126.9453125,99.109375)"/>
<path d="M0 0 C1.38832031 -0.00386719 1.38832031 -0.00386719 2.8046875 -0.0078125 C3.76375 -0.00007813 4.7228125 0.00765625 5.7109375 0.015625 C6.67773438 0.00789063 7.64453125 0.00015625 8.640625 -0.0078125 C9.56359375 -0.00523438 10.4865625 -0.00265625 11.4375 0 C12.28135254 0.00225586 13.12520508 0.00451172 13.99462891 0.00683594 C16.0859375 0.265625 16.0859375 0.265625 18.0859375 2.265625 C17.53038194 6.82118056 17.53038194 6.82118056 16.0859375 8.265625 C13.22326183 8.33887668 10.3852185 8.35800705 7.5234375 8.328125 C6.71712891 8.32361328 5.91082031 8.31910156 5.08007812 8.31445312 C3.08199994 8.30263018 1.08395967 8.28469414 -0.9140625 8.265625 C-0.9140625 7.605625 -0.9140625 6.945625 -0.9140625 6.265625 C-3.5540625 5.605625 -6.1940625 4.945625 -8.9140625 4.265625 C-8.9140625 3.605625 -8.9140625 2.945625 -8.9140625 2.265625 C-5.82114818 0.4689335 -3.56215841 0.00949728 0 0 Z " fill="#F80001" transform="translate(42.9140625,48.734375)"/>
<path d="M0 0 C0.33 0 0.66 0 1 0 C1.2475 0.886875 1.495 1.77375 1.75 2.6875 C3.25207645 6.6680026 5.2364062 9.62831593 8.6171875 12.2578125 C10.67235636 14.84709304 10.29220267 16.94171729 10.1875 20.1875 C10.16042969 21.27417969 10.13335937 22.36085938 10.10546875 23.48046875 C10.07066406 24.31191406 10.03585938 25.14335938 10 26 C6.31681063 24.7472145 4.19050515 23.53136429 1.75 20.5 C0.99976562 19.58734375 0.99976562 19.58734375 0.234375 18.65625 C-2.2990044 15.25703207 -2.16428451 12.69736127 -2.1875 8.5 C-2.20876953 6.75203125 -2.20876953 6.75203125 -2.23046875 4.96875 C-2 2 -2 2 0 0 Z " fill="#FB101D" transform="translate(127,54)"/>
<path d="M0 0 C2.31 0 4.62 0 7 0 C7.83739781 2.1234016 8.66980283 4.2487728 9.5 6.375 C9.9640625 7.55835938 10.428125 8.74171875 10.90625 9.9609375 C12 13 12 13 12 15 C10.02 15 8.04 15 6 15 C5.01 12.69 4.02 10.38 3 8 C2.01 10.31 1.02 12.62 0 15 C-1.65 15 -3.3 15 -5 15 C-4.43174347 9.45949887 -2.37113483 4.96284034 0 0 Z " fill="#077DC5" transform="translate(226,49)"/>
<path d="M0 0 C1.4540625 0.0309375 1.4540625 0.0309375 2.9375 0.0625 C3.75424796 1.81052146 4.56573451 3.56100189 5.375 5.3125 C6.05369141 6.77429687 6.05369141 6.77429687 6.74609375 8.265625 C7.72132356 10.55501695 8.4349274 12.63628746 8.9375 15.0625 C6.9575 15.0625 4.9775 15.0625 2.9375 15.0625 C1.68085022 12.15649739 0.9375 10.26645416 0.9375 7.0625 C0.2775 7.0625 -0.3825 7.0625 -1.0625 7.0625 C-1.206875 8.01125 -1.35125 8.96 -1.5 9.9375 C-2.0625 13.0625 -2.0625 13.0625 -3.0625 15.0625 C-5.0425 15.0625 -7.0225 15.0625 -9.0625 15.0625 C-8.25343245 12.74874595 -7.44043083 10.43651052 -6.625 8.125 C-6.39490234 7.46564453 -6.16480469 6.80628906 -5.92773438 6.12695312 C-3.78708343 0.07728742 -3.78708343 0.07728742 0 0 Z " fill="#077DC5" transform="translate(199.0625,48.9375)"/>
<path d="M0 0 C1.52519276 0.08937803 3.04681929 0.24537146 4.5625 0.4375 C5.80193359 0.59025391 5.80193359 0.59025391 7.06640625 0.74609375 C7.70449219 0.82988281 8.34257813 0.91367188 9 1 C10.22517308 6.66642551 10.09228867 12.23708518 10 18 C9.67 17.01 9.34 16.02 9 15 C6.03 14.67 3.06 14.34 0 14 C-0.33 14.66 -0.66 15.32 -1 16 C-1.02685095 13.52076199 -1.04676547 11.0418116 -1.0625 8.5625 C-1.07506836 7.50192383 -1.07506836 7.50192383 -1.08789062 6.41992188 C-1.09653588 4.61306441 -1.05220011 2.80612397 -1 1 C-0.67 0.67 -0.34 0.34 0 0 Z " fill="#F32657" transform="translate(32,68)"/>
<path d="M0 0 C3.08089673 2.77280706 4.68775452 5.06326356 6 9 C4.87720538 9.98169476 3.75168527 10.96027298 2.625 11.9375 C1.99851562 12.48277344 1.37203125 13.02804688 0.7265625 13.58984375 C-2.53118232 16.25058104 -4.87122208 16.08975604 -9 16 C-9.66 13.36 -10.32 10.72 -11 8 C-10.45730469 7.75765625 -9.91460937 7.5153125 -9.35546875 7.265625 C-3.80914453 4.69107324 -3.80914453 4.69107324 0 0 Z " fill="#B922AB" transform="translate(62,94)"/>
<path d="M0 0 C1.00484204 1.95585325 2.00373805 3.91476237 3 5.875 C3.556875 6.96554688 4.11375 8.05609375 4.6875 9.1796875 C6 12 6 12 6 14 C3.09399739 15.25664978 1.20395416 16 -2 16 C-3.5703125 14.390625 -3.5703125 14.390625 -5.125 12.25 C-5.64320312 11.55390625 -6.16140625 10.8578125 -6.6953125 10.140625 C-7.98263681 8.0284881 -8.67803792 6.44587323 -9 4 C-6.56321964 0.71034652 -4.05748164 0 0 0 Z " fill="#F22A62" transform="translate(71,87)"/>
<path d="M0 0 C12.7981748 -0.55914356 12.7981748 -0.55914356 18 3 C18.66 3.66 19.32 4.32 20 5 C19.44444444 9.55555556 19.44444444 9.55555556 18 11 C12.56851267 10.63176357 8.79187538 9.75532834 4 7 C4 5.02 4 3.04 4 1 C2.68 0.67 1.36 0.34 0 0 Z " fill="#F88818" transform="translate(138,48)"/>
<path d="M0 0 C4.62 0 9.24 0 14 0 C14 1.32 14 2.64 14 4 C12.68 4 11.36 4 10 4 C10 7.63 10 11.26 10 15 C8.02 15 6.04 15 4 15 C4 11.37 4 7.74 4 4 C2.68 4 1.36 4 0 4 C0 2.68 0 1.36 0 0 Z " fill="#017AC4" transform="translate(207,49)"/>
<path d="M0 0 C4.62 0 9.24 0 14 0 C14 1.32 14 2.64 14 4 C12.68 4 11.36 4 10 4 C10 7.63 10 11.26 10 15 C8.02 15 6.04 15 4 15 C4 11.37 4 7.74 4 4 C2.68 4 1.36 4 0 4 C0 2.68 0 1.36 0 0 Z " fill="#017AC4" transform="translate(177,49)"/>
<path d="M0 0 C7 0 7 0 9 1.125 C10.48939866 3.91762249 9.58927905 5.93574894 9 9 C9.2644354 11.34214207 9.58244638 13.68025766 10 16 C9.01 15.67 8.02 15.34 7 15 C6.33333333 13.33333333 5.66666667 11.66666667 5 10 C4.01 9.67 3.02 9.34 2 9 C2 10.98 2 12.96 2 15 C1.34 15 0.68 15 0 15 C0 10.05 0 5.1 0 0 Z " fill="#2688C9" transform="translate(201,95)"/>
<path d="M0 0 C1.32 0 2.64 0 4 0 C5.65 2.97 7.3 5.94 9 9 C9.33 6.03 9.66 3.06 10 0 C10.66 0 11.32 0 12 0 C12 4.95 12 9.9 12 15 C8 14 8 14 6.734375 12.37109375 C5.82291667 10.58072917 4.91145833 8.79036458 4 7 C3.67 9.97 3.34 12.94 3 16 C2.01 16 1.02 16 0 16 C0 10.72 0 5.44 0 0 Z " fill="#288ACA" transform="translate(206,72)"/>
<path d="M0 0 C4.62 0 9.24 0 14 0 C13.01 0.495 13.01 0.495 12 1 C12.33 3.64 12.66 6.28 13 9 C10.27157939 10.36421031 8.39046682 9.87807211 5.375 9.5625 C4.37210937 9.46066406 3.36921875 9.35882813 2.3359375 9.25390625 C1.56507812 9.17011719 0.79421875 9.08632813 0 9 C0 6.03 0 3.06 0 0 Z " fill="#FB6607" transform="translate(86,48)"/>
<path d="M0 0 C2.31 1.98 4.62 3.96 7 6 C6.42365861 10.75481646 4.44931479 13.97048212 2 18 C1.67 17.34 1.34 16.68 1 16 C-0.97888961 15.27306096 -2.97954558 14.60183749 -5 14 C-3.46527032 9.27775484 -1.76054874 4.64144669 0 0 Z " fill="#AB18B4" transform="translate(116,79)"/>
<path d="M0 0 C4 1 4 1 5.265625 2.62890625 C6.17708333 4.41927083 7.08854167 6.20963542 8 8 C8.33 5.36 8.66 2.72 9 0 C9.99 0 10.98 0 12 0 C12 4.95 12 9.9 12 15 C8 14 8 14 6.515625 12.15234375 C6.09796875 11.42144531 5.6803125 10.69054687 5.25 9.9375 C4.82203125 9.20402344 4.3940625 8.47054687 3.953125 7.71484375 C3.63859375 7.14894531 3.3240625 6.58304687 3 6 C2.67 8.97 2.34 11.94 2 15 C1.34 15 0.68 15 0 15 C0 10.05 0 5.1 0 0 Z " fill="#1781C7" transform="translate(283,72)"/>
<path d="M0 0 C-0.45890625 0.32871094 -0.9178125 0.65742187 -1.390625 0.99609375 C-6.51605961 4.96938234 -8.82968864 8.93391235 -11 15 C-11.33 14.34 -11.66 13.68 -12 13 C-12.7425 13.33 -13.485 13.66 -14.25 14 C-17 15 -17 15 -21 15 C-19.63481309 9.36860399 -15.5203239 6.24634467 -11 3 C-2.96619083 -1.48309542 -2.96619083 -1.48309542 0 0 Z " fill="#FD0604" transform="translate(83,59)"/>
<path d="M0 0 C2.8125 2.1875 2.8125 2.1875 4.30078125 3.62109375 C8.80295703 7.27458352 15.39247654 8.28108674 21 9 C21 9.66 21 10.32 21 11 C12.04413797 11.51257716 2.45259096 11.56743009 -4.8046875 5.48828125 C-6 4 -6 4 -6 2 C-3.375 0.6875 -3.375 0.6875 0 0 Z " fill="#EE3881" transform="translate(77,100)"/>
<path d="M0 0 C2.97 0.33 5.94 0.66 9 1 C10.28317892 4.84953676 10.06643637 7.94738135 10 12 C9.67 11.34 9.34 10.68 9 10 C7.72125 9.979375 6.4425 9.95875 5.125 9.9375 C4.40570313 9.92589844 3.68640625 9.91429688 2.9453125 9.90234375 C0.91814596 9.87350758 0.91814596 9.87350758 -1 11 C-1.0270043 9.54176788 -1.04639787 8.08339325 -1.0625 6.625 C-1.07410156 5.81289062 -1.08570312 5.00078125 -1.09765625 4.1640625 C-1 2 -1 2 0 0 Z " fill="#F12D6B" transform="translate(32,82)"/>
<path d="M0 0 C2.97 0 5.94 0 9 0 C9 0.66 9 1.32 9 2 C7.02 2 5.04 2 3 2 C3 3.32 3 4.64 3 6 C4.98 6 6.96 6 9 6 C9 6.99 9 7.98 9 9 C7.02 9 5.04 9 3 9 C3 10.32 3 11.64 3 13 C5.31 13 7.62 13 10 13 C10 13.99 10 14.98 10 16 C6.7 16 3.4 16 0 16 C0 10.72 0 5.44 0 0 Z " fill="#328FCC" transform="translate(247,95)"/>
<path d="M0 0 C1.32 0 2.64 0 4 0 C4.67220351 1.93558599 5.33758077 3.87354372 6 5.8125 C6.556875 7.43091797 6.556875 7.43091797 7.125 9.08203125 C8 12 8 12 8 15 C7.01 15 6.02 15 5 15 C4.67 14.01 4.34 13.02 4 12 C2.35 11.67 0.7 11.34 -1 11 C-1.33 12.32 -1.66 13.64 -2 15 C-2.66 15 -3.32 15 -4 15 C-3.43179252 9.54520815 -2.05362055 5.08940744 0 0 Z " fill="#0F7DC5" transform="translate(272,72)"/>
<path d="M0 0 C5.875 3.875 5.875 3.875 7 5 C7.07258946 7.18639453 7.08373783 9.37500389 7.0625 11.5625 C7.05347656 12.76003906 7.04445312 13.95757812 7.03515625 15.19140625 C7.02355469 16.11824219 7.01195312 17.04507813 7 18 C1.125 14.375 1.125 14.375 0 11 C-0.0685495 9.10529184 -0.08480372 7.2083166 -0.0625 5.3125 C-0.05347656 4.31863281 -0.04445312 3.32476562 -0.03515625 2.30078125 C-0.02355469 1.54152344 -0.01195312 0.78226562 0 0 Z " fill="#F22A60" transform="translate(145,74)"/>
<path d="M0 0 C2.97 0 5.94 0 9 0 C9 0.66 9 1.32 9 2 C7.02 2 5.04 2 3 2 C3 3.65 3 5.3 3 7 C4.65 7 6.3 7 8 7 C8 7.66 8 8.32 8 9 C6.35 9 4.7 9 3 9 C3 10.32 3 11.64 3 13 C4.98 13 6.96 13 9 13 C9 13.99 9 14.98 9 16 C6.03 16 3.06 16 0 16 C0 10.72 0 5.44 0 0 Z " fill="#2D8ACA" transform="translate(189,95)"/>
<path d="M0 0 C2.97 0.33 5.94 0.66 9 1 C9.85221996 4.40887983 10.10783755 6.80434631 10.0625 10.25 C10.05347656 11.14203125 10.04445313 12.0340625 10.03515625 12.953125 C10.02355469 13.62859375 10.01195312 14.3040625 10 15 C9.67 15 9.34 15 9 15 C9 13.02 9 11.04 9 9 C6.03 8.67 3.06 8.34 0 8 C0 5.36 0 2.72 0 0 Z " fill="#F9132D" transform="translate(32,60)"/>
<path d="M0 0 C3.4375 1.3125 3.4375 1.3125 7 3 C7.33 3.99 7.66 4.98 8 6 C6.0625 8.6875 6.0625 8.6875 4 11 C-0.40114397 10.49701212 -2.71195019 8.91227269 -6 6 C-4 4 -2 2 0 0 Z " fill="#D33099" transform="translate(110,92)"/>
<path d="M0 0 C-0.33 0.99 -0.66 1.98 -1 3 C-2.32 3 -3.64 3 -5 3 C-5 3.66 -5 4.32 -5 5 C-3.03852126 6.38938077 -1.03833424 7.7260411 1 9 C0.25 13.75 0.25 13.75 -2 16 C-5.125 16.125 -5.125 16.125 -8 16 C-8.33 15.01 -8.66 14.02 -9 13 C-6.69 13 -4.38 13 -2 13 C-3.33332095 9.00003714 -5.4957827 8.16217663 -9 6 C-8.625 3.5625 -8.625 3.5625 -8 1 C-5.29120665 -0.35439668 -2.99066732 -0.06501451 0 0 Z " fill="#2588CA" transform="translate(230,72)"/>
<path d="M0 0 C1.9375 0.8125 1.9375 0.8125 3.9375 2.8125 C3.36057692 9.38942308 3.36057692 9.38942308 1.9375 10.8125 C-0.5 11 -0.5 11 -3.0625 10.8125 C-5.0625 8.8125 -5.0625 8.8125 -5.375 5.875 C-5.0625 2.8125 -5.0625 2.8125 -3.8125 0.875 C-2.0625 -0.1875 -2.0625 -0.1875 0 0 Z " fill="#F3F7FB" transform="translate(197.0625,74.1875)"/>
<path d="M0 0 C0.94875 0.04125 1.8975 0.0825 2.875 0.125 C2.545 1.115 2.215 2.105 1.875 3.125 C0.555 2.795 -0.765 2.465 -2.125 2.125 C-2.125 3.445 -2.125 4.765 -2.125 6.125 C-1.320625 6.434375 -0.51625 6.74375 0.3125 7.0625 C2.875 8.125 2.875 8.125 3.875 9.125 C4.125 11.5625 4.125 11.5625 3.875 14.125 C0.4397952 16.41513653 -1.110331 16.30342973 -5.125 16.125 C-5.125 15.135 -5.125 14.145 -5.125 13.125 C-3.145 13.125 -1.165 13.125 0.875 13.125 C0.18614204 9.91438622 0.18614204 9.91438622 -2.6875 8.75 C-3.8940625 7.945625 -3.8940625 7.945625 -5.125 7.125 C-5.5625 4.5625 -5.5625 4.5625 -5.125 2.125 C-3.125 0.125 -3.125 0.125 0 0 Z " fill="#1580C6" transform="translate(182.125,94.875)"/>
<path d="M0 0 C0.99 0.33 1.98 0.66 3 1 C4.33859334 3.9140571 5.08761099 6.9152562 6 10 C7.32 6.7 8.64 3.4 10 0 C10.99 0 11.98 0 13 0 C9.92482916 10.55808656 9.92482916 10.55808656 8 15 C6.68 15 5.36 15 4 15 C3.32779649 13.06441401 2.66241923 11.12645628 2 9.1875 C1.62875 8.10855469 1.2575 7.02960938 0.875 5.91796875 C0 3 0 3 0 0 Z " fill="#1781C7" transform="translate(213,95)"/>
<path d="M0 0 C0.94875 0.04125 1.8975 0.0825 2.875 0.125 C2.545 1.115 2.215 2.105 1.875 3.125 C0.555 3.125 -0.765 3.125 -2.125 3.125 C-2.125 3.785 -2.125 4.445 -2.125 5.125 C-1.135 5.723125 -0.145 6.32125 0.875 6.9375 C3.875 9.125 3.875 9.125 4.4375 11.75 C3.875 14.125 3.875 14.125 0.875 16.125 C-2.3125 16.25 -2.3125 16.25 -5.125 16.125 C-5.125 15.135 -5.125 14.145 -5.125 13.125 C-3.145 13.125 -1.165 13.125 0.875 13.125 C0.18614204 9.91438622 0.18614204 9.91438622 -2.6875 8.75 C-3.8940625 7.945625 -3.8940625 7.945625 -5.125 7.125 C-5.5625 4.5625 -5.5625 4.5625 -5.125 2.125 C-3.125 0.125 -3.125 0.125 0 0 Z " fill="#127EC5" transform="translate(264.125,94.875)"/>
<path d="M0 0 C3.3 0 6.6 0 10 0 C10 0.99 10 1.98 10 3 C15.61 3 21.22 3 27 3 C27 3.33 27 3.66 27 4 C26.41508789 4.02505615 25.83017578 4.0501123 25.22753906 4.07592773 C22.56815529 4.19222962 19.90909597 4.31480067 17.25 4.4375 C15.86941406 4.49647461 15.86941406 4.49647461 14.4609375 4.55664062 C13.57148437 4.59853516 12.68203125 4.64042969 11.765625 4.68359375 C10.94868164 4.72025146 10.13173828 4.75690918 9.29003906 4.79467773 C7.04411821 4.99604441 5.11235551 5.20070665 3 6 C2.67 6.99 2.34 7.98 2 9 C1.34 9 0.68 9 0 9 C0 6.03 0 3.06 0 0 Z " fill="#F8843A" transform="translate(31,45)"/>
<path d="M0 0 C0 0.66 0 1.32 0 2 C-0.969375 2.309375 -1.93875 2.61875 -2.9375 2.9375 C-5.84065792 3.69523342 -5.84065792 3.69523342 -7 5 C-7.16666667 8 -7.16666667 8 -7 11 C-5.03177114 12.96822886 -1.65191291 12.66248381 1 13 C1 13.99 1 14.98 1 16 C-3.3322929 16.4247346 -5.34962488 16.47048413 -8.9375 13.875 C-11 11 -11 11 -11.625 8 C-10.27636173 1.52653629 -6.33481301 -0.73660616 0 0 Z " fill="#0B7DC5" transform="translate(244,95)"/>
<path d="M0 0 C6.66135458 2.42231076 6.66135458 2.42231076 8.0625 4.8125 C7.97735775 7.79247885 7.06823409 10.23515882 6 13 C3.50638429 11.79618552 1.31856917 10.54571278 -1 9 C-0.67 6.03 -0.34 3.06 0 0 Z " fill="#8F0FCA" transform="translate(118,72)"/>
<path d="M0 0 C3.02116333 0.1770436 5.99598232 0.61920903 9 1 C9.33 4.63 9.66 8.26 10 12 C9.67 10.68 9.34 9.36 9 8 C6.03 7.67 3.06 7.34 0 7 C-0.33 7.99 -0.66 8.98 -1 10 C-1.02689216 8.52093108 -1.04634621 7.04172517 -1.0625 5.5625 C-1.07410156 4.73878906 -1.08570312 3.91507812 -1.09765625 3.06640625 C-1 1 -1 1 0 0 Z " fill="#F61D43" transform="translate(32,68)"/>
<path d="M0 0 C0.66 0 1.32 0 2 0 C2.33 3.96 2.66 7.92 3 12 C4.32 12.33 5.64 12.66 7 13 C8.81115956 11.18884044 8.38199448 8.38721773 8.5625 5.9375 C8.64628906 4.83277344 8.73007813 3.72804688 8.81640625 2.58984375 C8.87699219 1.73519531 8.93757812 0.88054687 9 0 C9.66 0 10.32 0 11 0 C11.0810206 2.10353495 11.13919907 4.20795952 11.1875 6.3125 C11.22230469 7.48425781 11.25710937 8.65601562 11.29296875 9.86328125 C11 13 11 13 9.64453125 14.89453125 C7.28900824 16.47793508 5.77585184 16.41637778 3 16 C1.35546875 14.89453125 1.35546875 14.89453125 0 13 C-0.29296875 9.86328125 -0.29296875 9.86328125 -0.1875 6.3125 C-0.16042969 5.13300781 -0.13335937 3.95351562 -0.10546875 2.73828125 C-0.07066406 1.83464844 -0.03585938 0.93101563 0 0 Z " fill="#0277C2" transform="translate(234,72)"/>
<path d="M0 0 C0.66 0.33 1.32 0.66 2 1 C1.67 1.33 1.34 1.66 1 2 C1.144375 3.03125 1.28875 4.0625 1.4375 5.125 C0.93767027 9.5520633 0.43186694 9.94636515 -2.8125 12.6875 C-3.52019531 13.22761719 -4.22789063 13.76773438 -4.95703125 14.32421875 C-7.04365523 16.03580898 -8.47179984 17.7872433 -10 20 C-8.97624086 11.38630239 -6.09234896 6.09234896 0 0 Z " fill="#FCAD12" transform="translate(71,54)"/>
<path d="M0 0 C0 0.66 0 1.32 0 2 C-2.31 2.66 -4.62 3.32 -7 4 C-8.01540112 8.10223585 -8.01540112 8.10223585 -7 12 C-4.67843403 12.40729228 -2.3431213 12.74438677 0 13 C-0.33 13.99 -0.66 14.98 -1 16 C-4.45669582 16.31424507 -6.39901677 16.37956836 -9.375 14.5 C-11.65700312 10.98922596 -11.81004807 8.07529338 -11 4 C-8.12243286 -0.60410742 -5.14365078 -0.39566544 0 0 Z " fill="#0D7CC5" transform="translate(309,72)"/>
<path d="M0 0 C0 0.66 0 1.32 0 2 C-2.31 2.66 -4.62 3.32 -7 4 C-8.01540112 8.10223585 -8.01540112 8.10223585 -7 12 C-4.67843403 12.40729228 -2.3431213 12.74438677 0 13 C-0.33 13.99 -0.66 14.98 -1 16 C-4.45669582 16.31424507 -6.39901677 16.37956836 -9.375 14.5 C-11.65700312 10.98922596 -11.81004807 8.07529338 -11 4 C-8.12243286 -0.60410742 -5.14365078 -0.39566544 0 0 Z " fill="#0C7CC5" transform="translate(188,72)"/>
<path d="M0 0 C0.66 3.3 1.32 6.6 2 10 C-4.66666667 8.66666667 -4.66666667 8.66666667 -7 7 C-7.9375 4.5625 -7.9375 4.5625 -8 2 C-5.66015618 -1.89973969 -4.75070585 -0.95014117 0 0 Z " fill="#9214CB" transform="translate(130,100)"/>
<path d="M0 0 C0.66 3.3 1.32 6.6 2 10 C-0.64 10.66 -3.28 11.32 -6 12 C-7.34956843 4.51602959 -7.34956843 4.51602959 -5.6875 2.0625 C-2.41176471 0 -2.41176471 0 0 0 Z " fill="#D32E98" transform="translate(149,99)"/>
<path d="M0 0 C0.99 0 1.98 0 3 0 C3.99 1.98 4.98 3.96 6 6 C6.99 4.02 7.98 2.04 9 0 C9.99 0.33 10.98 0.66 12 1 C11.360625 1.99 10.72125 2.98 10.0625 4 C7.74593674 8.00282486 7.32145895 11.41921002 7 16 C6.01 16 5.02 16 4 16 C3.87882812 15.34773438 3.75765625 14.69546875 3.6328125 14.0234375 C2.71056011 9.21353658 1.69832723 4.60974535 0 0 Z " fill="#1C84C8" transform="translate(311,72)"/>
<path d="M0 0 C1.32 0 2.64 0 4 0 C4 5.28 4 10.56 4 16 C2.68 16 1.36 16 0 16 C0 10.72 0 5.44 0 0 Z " fill="#60A6D6" transform="translate(227,95)"/>
<path d="M0 0 C0.33 0 0.66 0 1 0 C1.91527603 4.11874212 1.93728438 7.81731561 1.75 12 C1.68845107 16.12377811 1.79494145 18.55863878 4.5 21.75 C5.325 22.4925 6.15 23.235 7 24 C2.61144323 22.27592413 0.08513063 19.17026127 -2 15 C-2.12244289 12.83589316 -2.17551142 10.66753477 -2.1875 8.5 C-2.20876953 6.75203125 -2.20876953 6.75203125 -2.23046875 4.96875 C-2 2 -2 2 0 0 Z " fill="#F80911" transform="translate(127,54)"/>
<path d="M0 0 C0.99 0.33 1.98 0.66 3 1 C3.94921875 3.328125 3.94921875 3.328125 4.6875 6.25 C4.93886719 7.20390625 5.19023437 8.1578125 5.44921875 9.140625 C5.9703456 11.84604951 6.10521678 14.25434317 6 17 C5.01 17.33 4.02 17.66 3 18 C1.50178941 14.62902617 1 12.79557881 1 9 C0.34 8.67 -0.32 8.34 -1 8 C-0.67 7.67 -0.34 7.34 0 7 C0.04092937 4.66702567 0.04241723 2.33294775 0 0 Z " fill="#E4378D" transform="translate(148,90)"/>
<path d="M0 0 C0.66 1.98 1.32 3.96 2 6 C-2.455 7.485 -2.455 7.485 -7 9 C-7.66 7.35 -8.32 5.7 -9 4 C-6.19632015 0.92930303 -4.26207314 0 0 0 Z " fill="#F61E45" transform="translate(71,87)"/>
<path d="M0 0 C0.99 0 1.98 0 3 0 C3 4.29 3 8.58 3 13 C4.98 13 6.96 13 9 13 C9 13.66 9 14.32 9 15 C6.03 15 3.06 15 0 15 C0 10.05 0 5.1 0 0 Z " fill="#2687C9" transform="translate(249,72)"/>
<path d="M0 0 C0.33 2.31 0.66 4.62 1 7 C-1.3125 8.5625 -1.3125 8.5625 -4 10 C-4.99 9.67 -5.98 9.34 -7 9 C-7.24862931 6.01644824 -7.18991433 4.35134151 -5.75 1.6875 C-4 0 -4 0 0 0 Z " fill="#FD9C05" transform="translate(78,52)"/>
<path d="M0 0 C3.625 0.375 3.625 0.375 7 1 C7.33 2.65 7.66 4.3 8 6 C4.37 6 0.74 6 -3 6 C-2 2 -2 2 0 0 Z " fill="#FEC30E" transform="translate(34,31)"/>
<path d="M0 0 C3.08089673 2.77280706 4.68775452 5.06326356 6 9 C4.68 10.32 3.36 11.64 2 13 C0 12 0 12 -0.703125 10.0390625 C-0.88359375 9.24242188 -1.0640625 8.44578125 -1.25 7.625 C-1.44078125 6.83351563 -1.6315625 6.04203125 -1.828125 5.2265625 C-2 3 -2 3 0 0 Z " fill="#A015BC" transform="translate(62,94)"/>
<path d="M0 0 C1.98 0 3.96 0 6 0 C6.09765625 6.15234375 6.09765625 6.15234375 6 8 C5 9 5 9 2.4375 9.0625 C1.633125 9.041875 0.82875 9.02125 0 9 C0 6.03 0 3.06 0 0 Z " fill="#FC7603" transform="translate(86,48)"/>
<path d="M0 0 C2.875 2.0625 2.875 2.0625 5 4 C2 6 2 6 -0.9375 5.8125 C-4.01881087 4.99500936 -5.71649356 4.19567927 -8 2 C-8 1.34 -8 0.68 -8 0 C-5.0233079 -1.48834605 -3.18307201 -0.8113713 0 0 Z " fill="#E3388E" transform="translate(108,100)"/>
<path d="M0 0 C1.98 0.66 3.96 1.32 6 2 C6.6875 4.3125 6.6875 4.3125 7 7 C5.5625 8.8125 5.5625 8.8125 4 10 C4 9.34 4 8.68 4 8 C2.02 7.34 0.04 6.68 -2 6 C-1.34 4.02 -0.68 2.04 0 0 Z " fill="#B920AA" transform="translate(113,87)"/>
<path d="M0 0 C1.9375 0.375 1.9375 0.375 4 1 C5.32229189 3.64458379 5.09677194 5.67761301 5.0625 8.625 C5.05347656 9.62789062 5.04445312 10.63078125 5.03515625 11.6640625 C5.02355469 12.43492188 5.01195312 13.20578125 5 14 C1.125 12.25 1.125 12.25 0 10 C-0.06996014 8.29297265 -0.08440154 6.58331997 -0.0625 4.875 C-0.05347656 3.96492188 -0.04445312 3.05484375 -0.03515625 2.1171875 C-0.02355469 1.41851562 -0.01195312 0.71984375 0 0 Z " fill="#F81A35" transform="translate(136,69)"/>
<path d="M0 0 C1.65 1.65 3.3 3.3 5 5 C4.01 5.495 4.01 5.495 3 6 C3 9.63 3 13.26 3 17 C2.01 16.34 1.02 15.68 0 15 C-0.22137393 12.37302936 -0.28162025 9.99106036 -0.1875 7.375 C-0.17396484 6.66859375 -0.16042969 5.9621875 -0.14648438 5.234375 C-0.1111104 3.48925872 -0.05730221 1.74453392 0 0 Z " fill="#F03572" transform="translate(152,79)"/>
<path d="M0 0 C3.63 0 7.26 0 11 0 C11 0.66 11 1.32 11 2 C9.68 2.33 8.36 2.66 7 3 C6.67 6.96 6.34 10.92 6 15 C5.34 15 4.68 15 4 15 C4 10.71 4 6.42 4 2 C2.68 2 1.36 2 0 2 C0 1.34 0 0.68 0 0 Z " fill="#077AC4" transform="translate(257,72)"/>
<path d="M0 0 C2.64 0.33 5.28 0.66 8 1 C7.34 1.66 6.68 2.32 6 3 C6.32326553 6.59679066 6.32326553 6.59679066 7 10 C4.13275314 9.42655063 3.1385485 9.1385485 1 7 C0.59952556 4.67724823 0.2602896 2.34260643 0 0 Z " fill="#D3319A" transform="translate(46,100)"/>
<path d="M0 0 C2.97 0.495 2.97 0.495 6 1 C6 2.98 6 4.96 6 7 C6.99 7.33 7.98 7.66 9 8 C9 8.33 9 8.66 9 9 C6.36 9 3.72 9 1 9 C0.67 6.03 0.34 3.06 0 0 Z " fill="#FAA023" transform="translate(136,48)"/>
<path d="M0 0 C0.33 1.65 0.66 3.3 1 5 C0.67 4.34 0.34 3.68 0 3 C-1.31471568 3.28151087 -2.62675767 3.57553339 -3.9375 3.875 C-5.03384766 4.11863281 -5.03384766 4.11863281 -6.15234375 4.3671875 C-8.20700294 4.82961523 -8.20700294 4.82961523 -9 7 C-9.625 5.1875 -9.625 5.1875 -10 3 C-8 0 -8 0 -6.125 -0.75 C-3.80466218 -1.02298092 -2.21024918 -0.71043724 0 0 Z " fill="#F81735" transform="translate(71,84)"/>
<path d="M0 0 C1.32 0.33 2.64 0.66 4 1 C4 3.64 4 6.28 4 9 C2.02 9 0.04 9 -2 9 C-2.33 10.32 -2.66 11.64 -3 13 C-4 11 -4 11 -3.22265625 8.3984375 C-2.83980469 7.40070313 -2.45695312 6.40296875 -2.0625 5.375 C-1.68222656 4.37210937 -1.30195313 3.36921875 -0.91015625 2.3359375 C-0.60980469 1.56507812 -0.30945313 0.79421875 0 0 Z " fill="#57A2D5" transform="translate(272,72)"/>
<path d="M0 0 C0.66 0 1.32 0 2 0 C2 4.95 2 9.9 2 15 C0.68 14.67 -0.64 14.34 -2 14 C-3.25 11.4375 -3.25 11.4375 -4 9 C-3.01 9 -2.02 9 -1 9 C-0.67 6.03 -0.34 3.06 0 0 Z " fill="#0678C3" transform="translate(216,72)"/>
<path d="M0 0 C2.86724686 0.57344937 3.8614515 0.8614515 6 3 C5.75 5.5625 5.75 5.5625 5 8 C4.01 8.495 4.01 8.495 3 9 C2.01 8.67 1.02 8.34 0 8 C0 5.36 0 2.72 0 0 Z " fill="#F46B34" transform="translate(152,50)"/>
<path d="M0 0 C1.65 0.33 3.3 0.66 5 1 C6.125 6.75 6.125 6.75 5 9 C2.69 9 0.38 9 -2 9 C-1.01 8.67 -0.02 8.34 1 8 C0.67 5.36 0.34 2.72 0 0 Z " fill="#FA4105" transform="translate(105,51)"/>
<path d="M0 0 C1.65 0 3.3 0 5 0 C5.33 2.64 5.66 5.28 6 8 C4.68 8.33 3.36 8.66 2 9 C0.14223235 5.86501708 -0.20140476 3.62528568 0 0 Z " fill="#B91FAA" transform="translate(138,102)"/>
<path d="M0 0 C3.32462531 2.8956414 4.30151606 4.69268237 5 9 C5.66 9.33 6.32 9.66 7 10 C5.68 11.32 4.36 12.64 3 14 C2.49528803 12.23050388 1.99639315 10.45934777 1.5 8.6875 C1.2215625 7.70136719 0.943125 6.71523437 0.65625 5.69921875 C0 3 0 3 0 0 Z " fill="#EE3F87" transform="translate(151,92)"/>
<path d="M0 0 C2.97 0.33 5.94 0.66 9 1 C9 1.99 9 2.98 9 4 C6.98177083 3.96744792 4.96354167 3.93489583 2.9453125 3.90234375 C0.91814596 3.87350758 0.91814596 3.87350758 -1 5 C-0.67 3.35 -0.34 1.7 0 0 Z " fill="#EF3278" transform="translate(32,88)"/>
<path d="M0 0 C2.97 0 5.94 0 9 0 C9 0.66 9 1.32 9 2 C7.02 2 5.04 2 3 2 C3 3.65 3 5.3 3 7 C2.01 7 1.02 7 0 7 C0 4.69 0 2.38 0 0 Z " fill="#1B83C8" transform="translate(189,95)"/>
<path d="M0 0 C0.99 0.33 1.98 0.66 3 1 C2.67 2.98 2.34 4.96 2 7 C2.99 7.33 3.98 7.66 5 8 C4.01 8 3.02 8 2 8 C2 9.98 2 11.96 2 14 C1.34 14 0.68 14 0 14 C0 9.38 0 4.76 0 0 Z " fill="#0075C2" transform="translate(201,96)"/>
<path d="M0 0 C3.63 0 7.26 0 11 0 C10.67 0.99 10.34 1.98 10 3 C6.7 3 3.4 3 0 3 C0 2.01 0 1.02 0 0 Z " fill="#FBAE10" transform="translate(31,37)"/>
<path d="M0 0 C0.99 0 1.98 0 3 0 C3 2.97 3 5.94 3 9 C3.99 9.33 4.98 9.66 6 10 C3.03 9.505 3.03 9.505 0 9 C0 6.03 0 3.06 0 0 Z " fill="#F57020" transform="translate(149,49)"/>
<path d="M0 0 C1.17539996 0.92652701 2.34010577 1.86663387 3.5 2.8125 C4.1496875 3.33457031 4.799375 3.85664062 5.46875 4.39453125 C7 6 7 6 7 9 C4.33333333 7.66666667 1.66666667 6.33333333 -1 5 C-0.67 3.35 -0.34 1.7 0 0 Z " fill="#A31CBD" transform="translate(116,79)"/>
<path d="M0 0 C0.66 0 1.32 0 2 0 C2 4.29 2 8.58 2 13 C1.01 13.33 0.02 13.66 -1 14 C-0.67 9.38 -0.34 4.76 0 0 Z " fill="#0277C2" transform="translate(243,72)"/>
<path d="M0 0 C0.99 1.32 1.98 2.64 3 4 C0.69 4.66 -1.62 5.32 -4 6 C-4.66 5.34 -5.32 4.68 -6 4 C-6 3.34 -6 2.68 -6 2 C-4.02 1.34 -2.04 0.68 0 0 Z " fill="#F03170" transform="translate(77,100)"/>
<path d="M0 0 C4.12989477 4.26311718 4.61271765 7.28758534 5 13 C1.33329274 10.5555285 1.06655209 9.18416588 0 5 C-0.125 2.125 -0.125 2.125 0 0 Z " fill="#E23D92" transform="translate(42,94)"/>
<path d="M0 0 C-0.33 0.66 -0.66 1.32 -1 2 C-3 2.33333333 -5 2.66666667 -7 3 C-7.33 3.66 -7.66 4.32 -8 5 C-8.66 4.01 -9.32 3.02 -10 2 C-6.27511755 -0.66063032 -4.42132508 -1.38955931 0 0 Z " fill="#F32455" transform="translate(74,94)"/>
<path d="M0 0 C0.99 0.99 1.98 1.98 3 3 C-0.4352048 5.29013653 -1.985331 5.17842973 -6 5 C-6 4.01 -6 3.02 -6 2 C-4.02 2 -2.04 2 0 2 C0 1.34 0 0.68 0 0 Z " fill="#3E92CE" transform="translate(265,106)"/>
<path d="M0 0 C0.99 1.32 1.98 2.64 3 4 C-0.4352048 6.29013653 -1.985331 6.17842973 -6 6 C-6 5.01 -6 4.02 -6 3 C-4.02 3 -2.04 3 0 3 C0 2.01 0 1.02 0 0 Z " fill="#3E92CE" transform="translate(183,105)"/>
<path d="M0 0 C0.66 0.33 1.32 0.66 2 1 C1.67 1.33 1.34 1.66 1 2 C1.1018371 3.91424457 1.1018371 3.91424457 1.4375 6.0625 C1.623125 7.361875 1.80875 8.66125 2 10 C0.68 10.33 -0.64 10.66 -2 11 C-2.96891192 5.62694301 -2.96891192 5.62694301 -3 3 C-1.5625 1 -1.5625 1 0 0 Z " fill="#C830A4" transform="translate(145,100)"/>
<path d="M0 0 C2.97 0 5.94 0 9 0 C9 0.99 9 1.98 9 3 C6.03 3 3.06 3 0 3 C0 2.01 0 1.02 0 0 Z " fill="#FAA216" transform="translate(32,40)"/>
<path d="M0 0 C0.99 0 1.98 0 3 0 C3.66 2.97 4.32 5.94 5 9 C3.68 8.67 2.36 8.34 1 8 C0.67 5.36 0.34 2.72 0 0 Z " fill="#AC19B4" transform="translate(135,102)"/>
<path d="M0 0 C0.66 0.33 1.32 0.66 2 1 C2.6328125 3.06640625 2.6328125 3.06640625 3.125 5.5625 C3.29257812 6.38878906 3.46015625 7.21507813 3.6328125 8.06640625 C3.75398438 8.70449219 3.87515625 9.34257813 4 10 C3.01 10 2.02 10 1 10 C0.63883954 8.5225254 0.28624952 7.04295325 -0.0625 5.5625 C-0.25972656 4.73878906 -0.45695312 3.91507812 -0.66015625 3.06640625 C-0.82837891 2.04353516 -0.82837891 2.04353516 -1 1 C-0.67 0.67 -0.34 0.34 0 0 Z " fill="#AD1DB5" transform="translate(59,98)"/>
<path d="M0 0 C1.77961312 1.61783011 2.93401678 2.85483691 3.9375 5.0625 C5.24994775 7.45578707 6.51014367 8.00405747 9 9 C7.02 9.33 5.04 9.66 3 10 C0.64551835 7.44931155 0.01672076 6.28982642 -0.1875 2.75 C-0.125625 1.8425 -0.06375 0.935 0 0 Z " fill="#3B92CE" transform="translate(189,77)"/>
<path d="M0 0 C2.475 0.495 2.475 0.495 5 1 C5 2.32 5 3.64 5 5 C3.35 5 1.7 5 0 5 C0 3.35 0 1.7 0 0 Z " fill="#DAE8F4" transform="translate(203,97)"/>
<path d="M0 0 C3.4375 1.3125 3.4375 1.3125 7 3 C7.33 3.99 7.66 4.98 8 6 C4.65626525 5.44271087 1.96687001 4.64826111 -1 3 C-0.67 2.01 -0.34 1.02 0 0 Z " fill="#C630A6" transform="translate(110,92)"/>
<path d="M0 0 C2.69082872 0.17635452 5.32851446 0.61835921 8 1 C7.67 1.99 7.34 2.98 7 4 C4.125 4.1875 4.125 4.1875 1 4 C0.34 3.01 -0.32 2.02 -1 1 C-0.67 0.67 -0.34 0.34 0 0 Z " fill="#308CCB" transform="translate(180,84)"/>
<path d="M0 0 C0 0.66 0 1.32 0 2 C-0.94875 2.309375 -1.8975 2.61875 -2.875 2.9375 C-5.86080408 3.87394742 -5.86080408 3.87394742 -8 5 C-8.66 4.34 -9.32 3.68 -10 3 C-6.68152292 -0.06320961 -4.44849969 -0.3033068 0 0 Z " fill="#1882C7" transform="translate(244,95)"/>
<path d="M0 0 C2.97 0 5.94 0 9 0 C8.67 0.99 8.34 1.98 8 3 C5.125 3.1875 5.125 3.1875 2 3 C1.34 2.01 0.68 1.02 0 0 Z " fill="#318DCC" transform="translate(300,85)"/>
<path d="M0 0 C3 3 3 3 3.07421875 5.26171875 C2.94660156 6.06222656 2.81898438 6.86273438 2.6875 7.6875 C2.50767578 8.89986328 2.50767578 8.89986328 2.32421875 10.13671875 C2.21722656 10.75160156 2.11023438 11.36648437 2 12 C1.34 11.67 0.68 11.34 0 11 C0 7.37 0 3.74 0 0 Z " fill="#F42654" transform="translate(145,74)"/>
<path d="M0 0 C2.31 0 4.62 0 7 0 C7 0.99 7 1.98 7 3 C4.69 3 2.38 3 0 3 C0 2.01 0 1.02 0 0 Z " fill="#4A98D1" transform="translate(238,108)"/>
<path d="M0 0 C0.99 0.495 0.99 0.495 2 1 C2.6328125 3.06640625 2.6328125 3.06640625 3.125 5.5625 C3.29257813 6.38878906 3.46015625 7.21507813 3.6328125 8.06640625 C3.75398437 8.70449219 3.87515625 9.34257813 4 10 C3.01 9.67 2.02 9.34 1 9 C0.67 6.03 0.34 3.06 0 0 Z " fill="#9B13C1" transform="translate(130,100)"/>
<path d="M0 0 C4.8 2.46153846 4.8 2.46153846 5.8125 5.1875 C5.874375 5.785625 5.93625 6.38375 6 7 C3.50638429 5.79618552 1.31856917 4.54571278 -1 3 C-0.67 2.01 -0.34 1.02 0 0 Z " fill="#9A10C0" transform="translate(118,78)"/>
<path d="M0 0 C-0.33 0.99 -0.66 1.98 -1 3 C-2.32 3 -3.64 3 -5 3 C-5.66 3.66 -6.32 4.32 -7 5 C-7.33 3.68 -7.66 2.36 -8 1 C-5.29120665 -0.35439668 -2.99066732 -0.06501451 0 0 Z " fill="#147EC5" transform="translate(230,72)"/>
<path d="M0 0 C0.99 0 1.98 0 3 0 C3.66 2.31 4.32 4.62 5 7 C4.01 7.33 3.02 7.66 2 8 C1.34 5.36 0.68 2.72 0 0 Z " fill="#C525A2" transform="translate(51,102)"/>
<path d="M0 0 C0.33 0 0.66 0 1 0 C1.66 2.64 2.32 5.28 3 8 C1.68 7.67 0.36 7.34 -1 7 C-1.625 4.625 -1.625 4.625 -2 2 C-1.34 1.34 -0.68 0.68 0 0 Z " fill="#8417D9" transform="translate(124,100)"/>
<path d="M0 0 C0.99 0.33 1.98 0.66 3 1 C2.67 3.97 2.34 6.94 2 10 C-0.77867692 7.22132308 -0.65193902 4.8286708 -1 1 C-0.67 0.67 -0.34 0.34 0 0 Z " fill="#F58532" transform="translate(147,48)"/>
<path d="M0 0 C1.65 0 3.3 0 5 0 C5.33 0.66 5.66 1.32 6 2 C5.360625 2.103125 4.72125 2.20625 4.0625 2.3125 C3.381875 2.539375 2.70125 2.76625 2 3 C1.67 3.99 1.34 4.98 1 6 C0.67 6 0.34 6 0 6 C0 4.02 0 2.04 0 0 Z " fill="#F56C24" transform="translate(32,48)"/>
<path d="M0 0 C1.65 0.99 3.3 1.98 5 3 C4.34 4.32 3.68 5.64 3 7 C0.64046906 4.64046906 0.50858587 3.22104383 0 0 Z " fill="#9814C4" transform="translate(63,98)"/>
<path d="M0 0 C2.31 0.66 4.62 1.32 7 2 C6.67 2.66 6.34 3.32 6 4 C3.625 4.1875 3.625 4.1875 1 4 C0.34 3.01 -0.32 2.02 -1 1 C-0.67 0.67 -0.34 0.34 0 0 Z " fill="#1F83C8" transform="translate(236,84)"/>
</svg>
