<?xml version="1.0" encoding="UTF-8"?>
<svg version="1.1" xmlns="http://www.w3.org/2000/svg" width="428" height="118">
<path d="M0 0 C141.24 0 282.48 0 428 0 C428 38.94 428 77.88 428 118 C286.76 118 145.52 118 0 118 C0 79.06 0 40.12 0 0 Z " fill="#FDFCFD" transform="translate(0,0)"/>
<path d="M0 0 C2.4375 2.4375 2.4375 2.4375 4 5 C4.53729736 5.80679199 4.53729736 5.80679199 5.08544922 6.62988281 C6.45867493 10.18868559 6.24450357 13.72598518 6.1953125 17.484375 C6.1924826 18.29996887 6.18965271 19.11556274 6.18673706 19.95587158 C6.17556558 22.55406528 6.15046675 25.15191095 6.125 27.75 C6.11496627 29.51431793 6.10584111 31.27864128 6.09765625 33.04296875 C6.07563619 37.36211273 6.04112733 41.68099741 6 46 C1.71 46 -2.58 46 -7 46 C-7.33 44.68 -7.66 43.36 -8 42 C-9.175625 42.9590625 -9.175625 42.9590625 -10.375 43.9375 C-15.06020689 47.61873399 -18.85183238 47.44525969 -24.71484375 47.42578125 C-29.4935854 46.80641997 -32.09176102 44.74193415 -35 41 C-36.39865903 38.20268195 -36.24537267 35.80715441 -36.3125 32.6875 C-36.34988281 31.55699219 -36.38726562 30.42648438 -36.42578125 29.26171875 C-35.91309279 25.33424293 -34.75422786 23.78902858 -32 21 C-26.07650613 17.47111003 -20.9962098 16.86872515 -14.1875 16.9375 C-13.02605469 16.94652344 -11.86460938 16.95554687 -10.66796875 16.96484375 C-9.78753906 16.97644531 -8.90710938 16.98804687 -8 17 C-8.32960216 11.98464948 -8.32960216 11.98464948 -11 8 C-15.08259838 7.42528523 -15.08259838 7.42528523 -19 8 C-19.44085937 8.82757813 -19.88171875 9.65515625 -20.3359375 10.5078125 C-20.88507812 11.33023438 -21.43421875 12.15265625 -22 13 C-25.13671875 13.48828125 -25.13671875 13.48828125 -28.6875 13.3125 C-30.45673828 13.24482422 -30.45673828 13.24482422 -32.26171875 13.17578125 C-33.16535156 13.11777344 -34.06898437 13.05976562 -35 13 C-34.26839216 6.96848888 -32.45414965 4.00873468 -28 0 C-19.85652816 -5.04895254 -8.3780587 -4.48252822 0 0 Z " fill="#040404" transform="translate(40,67)"/>
<path d="M0 0 C5.46093122 4.06283723 8.65271663 8.5334873 9.78515625 15.328125 C9.78515625 18.958125 9.78515625 22.588125 9.78515625 26.328125 C-0.77484375 26.328125 -11.33484375 26.328125 -22.21484375 26.328125 C-19.33657574 34.96673017 -19.33657574 34.96673017 -15.21484375 37.328125 C-13.02446657 37.50361695 -13.02446657 37.50361695 -10.71484375 37.203125 C-9.5546875 37.10644531 -9.5546875 37.10644531 -8.37109375 37.0078125 C-6.03488225 36.51537222 -6.03488225 36.51537222 -4.8203125 34.2890625 C-3.21484375 32.328125 -3.21484375 32.328125 -0.296875 31.9375 C0.78207031 31.98390625 1.86101562 32.0303125 2.97265625 32.078125 C4.05933594 32.11421875 5.14601562 32.1503125 6.265625 32.1875 C7.09707031 32.23390625 7.92851562 32.2803125 8.78515625 32.328125 C8.33088029 37.21159161 7.21172792 39.80637079 3.78515625 43.328125 C-3.45969307 48.39951953 -11.68328465 48.08687793 -20.21484375 47.328125 C-26.53307876 45.4475933 -30.12035259 41.93825707 -33.33984375 36.29296875 C-36.79626412 28.53145336 -36.45662564 17.70109064 -33.71484375 9.765625 C-30.88620254 3.7372088 -26.22448288 0.79950413 -20.40234375 -2.046875 C-13.26824941 -3.44571703 -6.43303203 -3.75150122 0 0 Z " fill="#050505" transform="translate(190.21484375,66.671875)"/>
<path d="M0 0 C3.77898719 3.45890904 5.68699095 7.99763439 6.75 12.9375 C6.75 16.5675 6.75 20.1975 6.75 23.9375 C-3.81 23.9375 -14.37 23.9375 -25.25 23.9375 C-24.26 27.2375 -23.27 30.5375 -22.25 33.9375 C-20.6825 34.14375 -19.115 34.35 -17.5 34.5625 C-16.61828125 34.67851563 -15.7365625 34.79453125 -14.828125 34.9140625 C-11.95402662 34.94019067 -10.61754006 34.53301613 -8.25 32.9375 C-7.59 31.9475 -6.93 30.9575 -6.25 29.9375 C-3.4296875 29.64453125 -3.4296875 29.64453125 -0.125 29.75 C1.51855469 29.79060547 1.51855469 29.79060547 3.1953125 29.83203125 C4.45988281 29.88423828 4.45988281 29.88423828 5.75 29.9375 C4.94347893 35.39558444 2.73335268 38.24583447 -1.25 41.9375 C-7.81257229 46.26600513 -15.63993791 45.67129797 -23.25 44.9375 C-29.23345245 43.33041186 -32.82173337 39.97906857 -36.25 34.9375 C-38.35490573 29.92723144 -38.61607402 25.40916143 -38.625 20.0625 C-38.64949219 19.29808594 -38.67398437 18.53367187 -38.69921875 17.74609375 C-38.73115784 11.47538494 -37.22732248 6.00941066 -32.7668457 1.40722656 C-22.52961246 -7.30921813 -11.07879997 -7.03077691 0 0 Z " fill="#050505" transform="translate(418.25,69.0625)"/>
<path d="M0 0 C3.94155441 5.49921791 4.55890059 9.55601468 4.390625 16.21484375 C4.38496521 17.07058487 4.37930542 17.92632599 4.37347412 18.80799866 C4.35123507 21.51842211 4.30106425 24.22748191 4.25 26.9375 C4.22991878 28.784486 4.21167086 30.6314929 4.1953125 32.47851562 C4.15141147 36.9861957 4.08247269 41.49286733 4 46 C-0.29 46 -4.58 46 -9 46 C-9.02505615 45.0212793 -9.0501123 44.04255859 -9.07592773 43.03417969 C-9.17023983 39.39619296 -9.27040203 35.75838657 -9.37231445 32.12060547 C-9.41557338 30.54740626 -9.45725474 28.97416283 -9.49731445 27.40087891 C-9.55523662 25.13690885 -9.61886714 22.87315949 -9.68359375 20.609375 C-9.70030624 19.90818542 -9.71701874 19.20699585 -9.73423767 18.48455811 C-9.83351022 15.19766179 -10.00812672 12.14857995 -11 9 C-12.60332791 8.91878076 -14.20784026 8.86070866 -15.8125 8.8125 C-16.70582031 8.77769531 -17.59914062 8.74289063 -18.51953125 8.70703125 C-20.96509983 8.81575541 -20.96509983 8.81575541 -22.62304688 10.02148438 C-24.75840946 13.08974295 -24.48094517 16.33677824 -24.51171875 19.94921875 C-24.52966995 20.72183548 -24.54762115 21.49445221 -24.56611633 22.29048157 C-24.62026104 24.756099 -24.65412731 27.22152243 -24.6875 29.6875 C-24.72066952 31.36005306 -24.75515885 33.03258051 -24.79101562 34.70507812 C-24.87598949 38.8032455 -24.9427802 42.90135494 -25 47 C-29.62 47 -34.24 47 -39 47 C-39 30.83 -39 14.66 -39 -2 C-34.38 -2 -29.76 -2 -25 -2 C-24.67 -0.35 -24.34 1.3 -24 3 C-23.0925 2.195625 -22.185 1.39125 -21.25 0.5625 C-14.84537425 -4.72243593 -7.07317036 -4.13713738 0 0 Z " fill="#050505" transform="translate(247,67)"/>
<path d="M0 0 C4.62 0 9.24 0 14 0 C14.01981934 1.04454346 14.03963867 2.08908691 14.06005859 3.1652832 C14.13612114 7.0400405 14.22483728 10.91442257 14.31738281 14.78881836 C14.35566993 16.46582634 14.39052331 18.14291638 14.421875 19.82006836 C14.46753179 22.23060432 14.5255241 24.64057557 14.5859375 27.05078125 C14.59748871 27.80087967 14.60903992 28.55097809 14.62094116 29.32380676 C14.72695459 33.06127713 14.87619082 34.81428623 17 38 C20.68988683 38.40998743 23.08969806 38.5030616 26.375 36.6875 C29.63687037 33.30017307 29.20844126 29.12884661 29.31640625 24.70703125 C29.33718735 24.00100266 29.35796844 23.29497406 29.37937927 22.56755066 C29.44467491 20.31596449 29.50366647 18.06426338 29.5625 15.8125 C29.60570425 14.2844934 29.64931916 12.75649836 29.69335938 11.22851562 C29.80033574 7.48579438 29.90165922 3.7429577 30 0 C34.29 0 38.58 0 43 0 C43 15.84 43 31.68 43 48 C38.71 48 34.42 48 30 48 C30 46.02 30 44.04 30 42 C29.34 42 28.68 42 28 42 C27.773125 42.598125 27.54625 43.19625 27.3125 43.8125 C25.60338617 46.66102306 23.95967899 47.51393397 21 49 C16.16347564 49.85001586 11.20393791 50.10576885 6.734375 47.86328125 C2.76569501 44.68666975 1.34142933 41.93499603 0 37 C-0.25606838 34.10252621 -0.23386307 31.22717621 -0.1953125 28.3203125 C-0.19106766 27.10116653 -0.19106766 27.10116653 -0.18673706 25.85739136 C-0.17560619 23.27977325 -0.15051515 20.70251181 -0.125 18.125 C-0.11496101 16.36979671 -0.10583677 14.61458794 -0.09765625 12.859375 C-0.07569015 8.57278074 -0.04120978 4.2864507 0 0 Z " fill="#040404" transform="translate(294,65)"/>
<path d="M0 0 C3.14979892 3.24244007 5.07269096 6.29060909 5.19921875 10.87890625 C5.16248047 12.02166016 5.16248047 12.02166016 5.125 13.1875 C1.07081557 13.53172321 -2.83410687 13.73532578 -6.875 13.1875 C-9.1875 10.25 -9.1875 10.25 -10.875 7.1875 C-14.27469811 5.8565684 -14.27469811 5.8565684 -17.875 6.1875 C-20.67689446 7.95391172 -22.39024911 9.21799822 -23.875 12.1875 C-23.99972772 14.63854466 -24.06016331 17.04881348 -24.0625 19.5 C-24.07667969 20.81613281 -24.09085938 22.13226563 -24.10546875 23.48828125 C-23.81991852 28.07160438 -23.13781327 30.92468673 -19.875 34.1875 C-16.83812504 34.68308111 -13.91536195 34.6505276 -10.875 34.1875 C-8.40259532 31.94688325 -7.93190157 30.35820471 -6.875 27.1875 C-2.585 27.1875 1.705 27.1875 6.125 27.1875 C4.60881378 33.78736945 3.41230712 37.81116747 -1.9609375 42.03125 C-8.81573707 46.17210852 -16.12431755 45.99383427 -23.875 45.1875 C-29.76083582 43.06157124 -34.04887757 38.95041894 -36.77734375 33.328125 C-39.66602538 26.0332055 -40.32508825 17.87934108 -37.99609375 10.34375 C-34.81375133 3.36990391 -30.58405594 -1.32887762 -23.4375 -4.1875 C-14.70765583 -5.71905161 -7.55348734 -4.76198115 0 0 Z " fill="#030303" transform="translate(142.875,68.8125)"/>
<path d="M0 0 C3.80583253 3.29350892 6.64048513 7.10574647 8 12 C8 12.99 8 13.98 8 15 C3.71 15 -0.58 15 -5 15 C-5.66 13.02 -6.32 11.04 -7 9 C-10.02771081 8.33377169 -12.89439071 7.86994936 -16 8 C-19.32375203 10.49281402 -20.68934755 12.06804266 -22 16 C-22.75629073 26.02408117 -22.75629073 26.02408117 -19 35 C-17.42077594 36.57922406 -15.80556126 36.207659 -13.625 36.25 C-12.43777344 36.28867188 -12.43777344 36.28867188 -11.2265625 36.328125 C-8.44231165 35.91781435 -7.69959963 35.20649777 -6 33 C-5.34 31.68 -4.68 30.36 -4 29 C-0.04 29 3.92 29 8 29 C7.63554617 34.95274591 6.099528 38.63005459 2 43 C-3.64192 47.889664 -10.00587554 47.68935418 -17.16796875 47.38671875 C-23.32613274 46.76525266 -26.93176516 45.12413308 -31.3125 40.625 C-35.28643562 34.44332237 -36.55488259 29.94126733 -36.5 22.6875 C-36.49572998 21.84243896 -36.49145996 20.99737793 -36.48706055 20.12670898 C-36.26881993 12.15051583 -34.24712009 7.33488009 -28.6875 1.625 C-19.62625954 -3.85388958 -9.62490003 -5.15619645 0 0 Z " fill="#030303" transform="translate(90,67)"/>
<path d="M0 0 C0 4.62 0 9.24 0 14 C3.3 14 6.6 14 10 14 C10 17.3 10 20.6 10 24 C7.03 24 4.06 24 1 24 C1.33 32.91 1.66 41.82 2 51 C4.64 51.33 7.28 51.66 10 52 C10.02688151 53.64574566 10.04634123 55.29161413 10.0625 56.9375 C10.07410156 57.85402344 10.08570313 58.77054688 10.09765625 59.71484375 C10 62 10 62 9 63 C3.14728186 63.51075223 -2.21132654 63.80181914 -7.625 61.375 C-11.1345605 57.8654395 -12.83448975 54.62472924 -13.34057617 49.65673828 C-13.32486572 48.47321777 -13.30915527 47.28969727 -13.29296875 46.0703125 C-13.28330078 44.78125 -13.27363281 43.4921875 -13.26367188 42.1640625 C-13.23861188 40.81770214 -13.21321712 39.47134797 -13.1875 38.125 C-13.17243504 36.75522295 -13.15874982 35.38542998 -13.14648438 34.015625 C-13.11121379 30.67667642 -13.06191896 27.33854325 -13 24 C-14.98 24 -16.96 24 -19 24 C-19 20.7 -19 17.4 -19 14 C-17.02 14 -15.04 14 -13 14 C-13 10.7 -13 7.4 -13 4 C-11.2097939 3.32942113 -9.41778511 2.6636531 -7.625 2 C-6.62726563 1.62875 -5.62953125 1.2575 -4.6015625 0.875 C-2 0 -2 0 0 0 Z " fill="#050505" transform="translate(276,51)"/>
<path d="M0 0 C9.0683272 2.35656288 17.53152054 6.02135666 26.125 9.6875 C27.57271522 10.3006061 29.02063053 10.91323994 30.46875 11.52539062 C33.98149543 13.01149687 37.49147751 14.50395275 41 16 C41 19.63 41 23.26 41 27 C40.24493164 27.30703857 39.48986328 27.61407715 38.71191406 27.93041992 C35.84895593 29.09489075 32.98618668 30.25982448 30.12353516 31.42504883 C28.29994505 32.16717443 26.4761473 32.90878972 24.65234375 33.65039062 C23.47285156 34.13056641 22.29335938 34.61074219 21.078125 35.10546875 C19.90185547 35.58419434 18.72558594 36.06291992 17.51367188 36.55615234 C13.09950214 38.37003504 8.70684959 40.23322491 4.31933594 42.1105957 C2 43 2 43 0 43 C0 38.71 0 34.42 0 30 C1.25296875 29.51789062 2.5059375 29.03578125 3.796875 28.5390625 C5.44795646 27.90114466 7.09899594 27.26311813 8.75 26.625 C9.575 26.30789062 10.4 25.99078125 11.25 25.6640625 C12.44882812 25.2 12.44882812 25.2 13.671875 24.7265625 C14.4050293 24.44377441 15.13818359 24.16098633 15.89355469 23.86962891 C17.98540882 23.00602385 19.98931648 22.03713122 22 21 C21.36908447 20.76289307 20.73816895 20.52578613 20.08813477 20.28149414 C17.24519405 19.21129388 14.40383542 18.13695457 11.5625 17.0625 C10.07266602 16.50272461 10.07266602 16.50272461 8.55273438 15.93164062 C7.60849609 15.57392578 6.66425781 15.21621094 5.69140625 14.84765625 C4.81685791 14.51773682 3.94230957 14.18781738 3.04125977 13.84790039 C1 13 1 13 0 12 C-0.07244053 9.98035801 -0.08377188 7.95832876 -0.0625 5.9375 C-0.05347656 4.83277344 -0.04445312 3.72804688 -0.03515625 2.58984375 C-0.02355469 1.73519531 -0.01195312 0.88054688 0 0 Z " fill="#BD03FF" transform="translate(249,4)"/>
<path d="M0 0 C0 4.62 0 9.24 0 14 C-2.47395833 14.35807292 -4.94791667 14.71614583 -7.421875 15.07421875 C-10.90579422 16.32526247 -11.97721666 17.92267509 -14 21 C-14.63549565 24.17793092 -14.63549565 24.17793092 -14.609375 27.61328125 C-14.64160156 28.86044922 -14.67382812 30.10761719 -14.70703125 31.39257812 C-14.72830078 33.33293945 -14.72830078 33.33293945 -14.75 35.3125 C-14.77964844 36.62541016 -14.80929687 37.93832031 -14.83984375 39.29101562 C-14.91044735 42.5270139 -14.9574985 45.76351064 -15 49 C-19.29 49 -23.58 49 -28 49 C-28 33.16 -28 17.32 -28 1 C-23.71 1 -19.42 1 -15 1 C-14.67 3.31 -14.34 5.62 -14 8 C-13.278125 7.05125 -12.55625 6.1025 -11.8125 5.125 C-8.32011826 0.94203431 -5.46177401 0 0 0 Z " fill="#020202" transform="translate(375,64)"/>
<path d="M0 0 C4.71568193 3.56295968 4.98058954 4.88353726 6 11 C-0.27 11 -6.54 11 -13 11 C-12 5 -12 5 -9.3125 2.125 C-5.66321982 -0.21604766 -4.22122772 -0.89813356 0 0 Z " fill="#EAEAEA" transform="translate(406,73)"/>
<path d="M0 0 C4.71568193 3.56295968 4.98058954 4.88353726 6 11 C0.06 11 -5.88 11 -12 11 C-11 4 -11 4 -8.8125 1.5625 C-5.43724821 -0.31263988 -3.7992366 -0.71235686 0 0 Z " fill="#EDEDED" transform="translate(181,73)"/>
<path d="M0 0 C1.08667969 0.02707031 2.17335938 0.05414063 3.29296875 0.08203125 C4.54013672 0.13423828 4.54013672 0.13423828 5.8125 0.1875 C6.41800459 7.45355505 6.41800459 7.45355505 3.75 10.6875 C0.12108192 12.54056455 -2.16240253 12.70927189 -6.1875 12.1875 C-8.125 11.0625 -8.125 11.0625 -9.1875 9.1875 C-9.57028316 6.1252347 -9.82071345 4.12100024 -8.05078125 1.51171875 C-5.3527934 -0.40571916 -3.26594078 -0.10535293 0 0 Z " fill="#FAFAFA" transform="translate(26.1875,92.8125)"/>
</svg>
