<?xml version="1.0" encoding="UTF-8"?>
<svg version="1.1" xmlns="http://www.w3.org/2000/svg" width="300" height="168">
<path d="M0 0 C99 0 198 0 300 0 C300 55.44 300 110.88 300 168 C201 168 102 168 0 168 C0 112.56 0 57.12 0 0 Z " fill="#000000" transform="translate(0,0)"/>
<path d="M0 0 C29.51050885 0 29.51050885 0 37.4609375 6.38671875 C42.7868371 11.96945107 44.33227472 17.90256583 44.5625 25.5 C44.22044745 34.20041347 42.69714576 40.8330175 36.25 46.9375 C25.72229992 55.93912591 13.47272505 53 0 53 C0 35.51 0 18.02 0 0 Z " fill="#F5F5F5" transform="translate(7,57)"/>
<path d="M0 0 C4.29477834 2.50309167 6.67727044 5.45351793 8.8125 9.9375 C10.42035919 17.17286638 10.61310594 24.03385681 6.84375 30.58984375 C4.34780237 33.94567578 1.3182229 36.43463855 -2.4375 38.3125 C-16.60499272 39.68075419 -16.60499272 39.68075419 -22.1875 35.75 C-27.98860135 30.27678698 -28.62464249 25.50349635 -28.875 17.75 C-28.96457918 11.9154091 -28.09215495 8.89071396 -24.4375 4.3125 C-17.87174446 -2.44589385 -8.63726307 -4.02639331 0 0 Z " fill="#FAFAFA" transform="translate(143.4375,71.6875)"/>
<path d="M0 0 C3.66864538 2.68437467 6.50666083 5.76332166 8.5625 9.875 C8.7018329 14.21103979 8.60504111 18.53580671 8.5625 22.875 C0.9725 22.875 -6.6175 22.875 -14.4375 22.875 C-12.11498574 27.75995525 -12.11498574 27.75995525 -9.4375 28.875 C-4.65360858 29.06260359 -0.15727508 28.64557552 4.5625 27.875 C5.2225 30.845 5.8825 33.815 6.5625 36.875 C1.76822049 39.27213975 -1.56492465 39.24200065 -6.8125 39.25 C-7.65039062 39.27449219 -8.48828125 39.29898438 -9.3515625 39.32421875 C-14.895844 39.35037102 -18.04225223 38.56024621 -22.4375 34.875 C-27.67889536 29.19682169 -28.85647522 24.21609359 -28.68359375 16.66015625 C-28.18804049 11.05175188 -26.81449677 6.75743516 -22.5 3 C-15.43205021 -1.90429169 -8.30820667 -2.71904945 0 0 Z " fill="#F8F8F8" transform="translate(265.4375,71.125)"/>
<path d="M0 0 C3.64851234 2.10836164 5.6046842 4.61599366 7.5625 8.375 C8.5625 12.375 8.5625 12.375 8.5625 22.375 C0.9725 22.705 -6.6175 23.035 -14.4375 23.375 C-12.9375 27.375 -12.9375 27.375 -10.4375 28.375 C-5.59332302 28.53647257 -1.20875662 28.32925132 3.5625 27.375 C5.06071059 30.74597383 5.5625 32.57942119 5.5625 36.375 C1.1609852 38.54966146 -2.9942596 38.7415765 -7.8125 38.75 C-8.90691406 38.78673828 -8.90691406 38.78673828 -10.0234375 38.82421875 C-15.62237851 38.85421308 -18.81843335 37.54335476 -23.4375 34.375 C-29.1440534 28.36810169 -28.96027369 22.09557966 -28.7734375 14.08984375 C-28.31687211 9.04107992 -27.12056056 5.86941599 -23.4375 2.375 C-16.7439472 -2.91018083 -7.70839989 -3.4163858 0 0 Z " fill="#F8F8F8" transform="translate(83.4375,71.625)"/>
<path d="M0 0 C0 3.96 0 7.92 0 12 C2.64 12 5.28 12 8 12 C8 15.3 8 18.6 8 22 C5.36 22 2.72 22 0 22 C0.33 27.94 0.66 33.88 1 40 C5.455 39.505 5.455 39.505 10 39 C10 42.3 10 45.6 10 49 C4.13267267 51.93366367 -1.54134926 51.76343389 -8 51 C-11.54585671 49.19230834 -12.74961069 46.75116794 -14 43 C-14.08143855 41.37280518 -14.1075302 39.74248281 -14.09765625 38.11328125 C-14.09443359 37.17548828 -14.09121094 36.23769531 -14.08789062 35.27148438 C-14.07951172 34.29501953 -14.07113281 33.31855469 -14.0625 32.3125 C-14.05798828 31.32443359 -14.05347656 30.33636719 -14.04882812 29.31835938 C-14.03704303 26.87884526 -14.02059011 24.43945311 -14 22 C-15.65 22 -17.3 22 -19 22 C-19 18.7 -19 15.4 -19 12 C-17.35 12 -15.7 12 -14 12 C-14 8.37 -14 4.74 -14 1 C-9.23692563 0.04738513 -4.8333472 -0.08333357 0 0 Z " fill="#F7F7F6" transform="translate(225,59)"/>
<path d="M0 0 C0 3.96 0 7.92 0 12 C2.97 12 5.94 12 9 12 C9 15.3 9 18.6 9 22 C6.03 22 3.06 22 0 22 C0.495 30.415 0.495 30.415 1 39 C5.84937703 40.34088357 5.84937703 40.34088357 10 39 C10 42.63 10 46.26 10 50 C6.56367253 51.14544249 3.74568045 51.2397802 0.125 51.3125 C-1.08929688 51.34988281 -2.30359375 51.38726562 -3.5546875 51.42578125 C-7.60106956 50.92571816 -9.17869869 49.8889709 -12 47 C-13.00005304 43.99984088 -13.11575585 42.02576244 -13.09765625 38.89453125 C-13.09443359 37.91162109 -13.09121094 36.92871094 -13.08789062 35.91601562 C-13.07951172 34.89185547 -13.07113281 33.86769531 -13.0625 32.8125 C-13.05798828 31.77673828 -13.05347656 30.74097656 -13.04882812 29.67382812 C-13.0370401 27.11582734 -13.02058515 24.55794267 -13 22 C-14.65 22 -16.3 22 -18 22 C-18 18.7 -18 15.4 -18 12 C-16.35 12 -14.7 12 -13 12 C-13 8.7 -13 5.4 -13 2 C-8.11126518 0.43560486 -5.39277414 0 0 0 Z " fill="#FBFBFB" transform="translate(194,59)"/>
<path d="M0 0 C4.62 0 9.24 0 14 0 C14 17.49 14 34.98 14 53 C9.38 53 4.76 53 0 53 C0 35.51 0 18.02 0 0 Z " fill="#F3F3F3" transform="translate(96,57)"/>
<path d="M0 0 C4.29 0 8.58 0 13 0 C13 12.87 13 25.74 13 39 C8.71 39 4.42 39 0 39 C0 26.13 0 13.26 0 0 Z " fill="#FDFDFD" transform="translate(158,71)"/>
<path d="M0 0 C8.25 0 8.25 0 12 3 C14.35311833 6.5296775 14.29915394 9.76907978 14.3125 13.9375 C14.33763672 15.74541016 14.33763672 15.74541016 14.36328125 17.58984375 C13.97348601 21.24888934 13.18510257 23.07952638 11 26 C6.8930274 29.21897853 5.6328438 29 0 29 C0 19.43 0 9.86 0 0 Z " fill="#020202" transform="translate(22,69)"/>
<path d="M0 0 C2.30055997 3.45083995 2.27010256 4.87175728 2.25 8.9375 C2.25515625 9.97777344 2.2603125 11.01804687 2.265625 12.08984375 C2.00629936 14.93098495 1.46519702 16.58707634 0 19 C-2.8125 19.3125 -2.8125 19.3125 -6 19 C-9.02444656 15.97555344 -9.20960336 13.03520754 -9.3125 8.9375 C-9.29621353 5.41419332 -8.8942335 3.00533866 -7 0 C-4.27584084 -1.36207958 -2.87220643 -0.86166193 0 0 Z " fill="#0B0B0B" transform="translate(137,81)"/>
<path d="M0 0 C3.72206393 1.34627844 5.01947413 2.61005343 6.9375 6.0625 C7.01854732 10.03381876 6.4063579 11.54005834 3.75 14.5 C0.9375 16.0625 0.9375 16.0625 -2.125 16.125 C-5.84706393 14.77872156 -7.14447413 13.51494657 -9.0625 10.0625 C-9.14354732 6.09118124 -8.5313579 4.58494166 -5.875 1.625 C-3.0625 0.0625 -3.0625 0.0625 0 0 Z " fill="#62B501" transform="translate(286.0625,94.9375)"/>
<path d="M0 0 C4.29 0 8.58 0 13 0 C13 2.97 13 5.94 13 9 C8.71 9 4.42 9 0 9 C0 6.03 0 3.06 0 0 Z " fill="#F5F5F5" transform="translate(158,57)"/>
<path d="M0 0 C2.31 0 4.62 0 7 0 C7.66 1.65 8.32 3.3 9 5 C5.37 5 1.74 5 -2 5 C-1.34 3.35 -0.68 1.7 0 0 Z " fill="#080808" transform="translate(253,80)"/>
<path d="M0 0 C3.0625 0.1875 3.0625 0.1875 5.0625 2.1875 C5.0625 3.1775 5.0625 4.1675 5.0625 5.1875 C1.7625 5.1875 -1.5375 5.1875 -4.9375 5.1875 C-3.69966216 0.23614865 -3.69966216 0.23614865 0 0 Z " fill="#010101" transform="translate(73.9375,79.8125)"/>
</svg>
