<?xml version="1.0" encoding="UTF-8"?>
<svg version="1.1" xmlns="http://www.w3.org/2000/svg" width="422" height="119">
<path d="M0 0 C139.26 0 278.52 0 422 0 C422 39.27 422 78.54 422 119 C282.74 119 143.48 119 0 119 C0 79.73 0 40.46 0 0 Z " fill="#FEFDFD" transform="translate(0,0)"/>
<path d="M0 0 C17.26907069 -0.24065286 17.26907069 -0.24065286 24.63867188 -0.29296875 C29.66469392 -0.32881709 34.69005925 -0.37119143 39.71557617 -0.45263672 C43.76808163 -0.51790093 47.81988283 -0.55372044 51.87287331 -0.56926346 C53.41790669 -0.58033746 54.96290214 -0.60196364 56.50763512 -0.63438034 C58.67479628 -0.67804404 60.8390605 -0.68393092 63.0065918 -0.68115234 C64.85525093 -0.70113785 64.85525093 -0.70113785 66.74125671 -0.7215271 C71.22978199 0.27228933 72.54919925 2.20133013 75 6 C75.60127258 8.39193726 75.60127258 8.39193726 75.56762695 10.72021484 C75.5672493 11.60067474 75.56687164 12.48113464 75.56648254 13.38827515 C75.54067612 14.31975372 75.51486969 15.2512323 75.48828125 16.2109375 C75.48120651 17.17907379 75.47413177 18.14721008 75.46684265 19.14468384 C75.43896129 22.2222579 75.3762338 25.29798036 75.3125 28.375 C75.28740907 30.46742155 75.2645973 32.55987176 75.24414062 34.65234375 C75.18915493 39.76893736 75.10292494 44.88415528 75 50 C70.38 50 65.76 50 61 50 C60.97494385 48.88439697 60.9498877 47.76879395 60.92407227 46.61938477 C60.83016579 42.4950741 60.72990486 38.3709385 60.62768555 34.24682617 C60.584273 32.4591073 60.54260271 30.67134526 60.50268555 28.88354492 C60.4451354 26.31936609 60.38139797 23.75540588 60.31640625 21.19140625 C60.29969376 20.3872377 60.28298126 19.58306915 60.26576233 18.75453186 C60.50779304 15.07330002 60.50779304 15.07330002 59 12 C54.38 12 49.76 12 45 12 C44.67 24.54 44.34 37.08 44 50 C39.71 50 35.42 50 31 50 C30.97494385 48.88439697 30.9498877 47.76879395 30.92407227 46.61938477 C30.83016579 42.4950741 30.72990486 38.3709385 30.62768555 34.24682617 C30.584273 32.4591073 30.54260271 30.67134526 30.50268555 28.88354492 C30.4451354 26.31936609 30.38139797 23.75540588 30.31640625 21.19140625 C30.29969376 20.3872377 30.28298126 19.58306915 30.26576233 18.75453186 C30.50779304 15.07330002 30.50779304 15.07330002 29 12 C24.05 11.67 19.1 11.34 14 11 C14 23.87 14 36.74 14 50 C9.38 50 4.76 50 0 50 C0 33.5 0 17 0 0 Z " fill="#E51635" transform="translate(2,67)"/>
<path d="M0 0 C4.62 0 9.24 0 14 0 C14 16.83 14 33.66 14 51 C6.4925 51.103125 -1.015 51.20625 -8.75 51.3125 C-12.29766113 51.38078003 -12.29766113 51.38078003 -15.91699219 51.45043945 C-17.79360536 51.46504375 -19.67023436 51.47778456 -21.546875 51.48828125 C-22.51963379 51.51386108 -23.49239258 51.53944092 -24.49462891 51.5657959 C-31.30817779 51.57020653 -31.30817779 51.57020653 -34.61791992 48.84228516 C-37.10013551 43.73754149 -36.61467913 38.63952847 -36.5625 33.0625 C-36.58634766 31.89525391 -36.61019531 30.72800781 -36.63476562 29.52539062 C-36.63283203 28.39423828 -36.63089844 27.26308594 -36.62890625 26.09765625 C-36.62963135 25.07164307 -36.63035645 24.04562988 -36.63110352 22.98852539 C-35.74746112 18.80412828 -34.14529689 16.8652759 -31 14 C-27.58666992 13.31884766 -27.58666992 13.31884766 -23.73046875 13.4140625 C-23.04946609 13.42255219 -22.36846344 13.43104187 -21.66682434 13.43978882 C-19.50539515 13.47320698 -17.3477881 13.54844014 -15.1875 13.625 C-13.71685102 13.65511568 -12.24614316 13.68248871 -10.77539062 13.70703125 C-7.1809608 13.76785071 -3.59472194 13.88520699 0 14 C0 9.38 0 4.76 0 0 Z " fill="#E51937" transform="translate(314,66)"/>
<path d="M0 0 C4.95 0 9.9 0 15 0 C17 2 17 2 17.22705078 5.62353516 C17.22673357 7.17874689 17.21540299 8.73398051 17.1953125 10.2890625 C17.1924826 11.10748627 17.18965271 11.92591003 17.18673706 12.76913452 C17.17552532 15.38790393 17.15041929 18.00633364 17.125 20.625 C17.11497147 22.39843257 17.1058454 24.17187049 17.09765625 25.9453125 C17.07558278 30.29700626 17.04104644 34.6484455 17 39 C21.29 39 25.58 39 30 39 C29.99476318 37.854104 29.98952637 36.70820801 29.98413086 35.52758789 C29.96608283 31.29159318 29.95456872 27.05560188 29.94506836 22.81958008 C29.94002769 20.98331125 29.93319523 19.14704646 29.92456055 17.31079102 C29.91248328 14.67723599 29.90676919 12.04373384 29.90234375 9.41015625 C29.89718246 8.58411392 29.89202118 7.75807159 29.88670349 6.90699768 C29.88650795 4.93763632 29.93795848 2.96838386 30 1 C31.93341947 -0.93341947 35.37479121 -0.17449133 37.9375 -0.1875 C39.20464844 -0.20167969 40.47179688 -0.21585937 41.77734375 -0.23046875 C45 0 45 0 47 2 C47.17525055 4.79684797 47.23143189 7.4932808 47.1953125 10.2890625 C47.1924826 11.10748627 47.18965271 11.92591003 47.18673706 12.76913452 C47.17552532 15.38790393 47.15041929 18.00633364 47.125 20.625 C47.11497147 22.39843257 47.1058454 24.17187049 47.09765625 25.9453125 C47.07558278 30.29700626 47.04104644 34.6484455 47 39 C51.62 39 56.24 39 61 39 C60.505 39.99 60.505 39.99 60 41 C35.91 41 11.82 41 -13 41 C-13 40.67 -13 40.34 -13 40 C-8.71 40 -4.42 40 0 40 C0 26.8 0 13.6 0 0 Z " fill="#FEFAFB" transform="translate(16,78)"/>
<path d="M0 0 C1.17018677 -0.00717545 1.17018677 -0.00717545 2.36401367 -0.01449585 C4.00799586 -0.01788758 5.65204615 -0.00873581 7.29589844 0.01220703 C9.80557295 0.03898858 12.31077629 0.0124405 14.8203125 -0.01953125 C16.42188482 -0.01622702 18.02345438 -0.00982049 19.625 0 C20.37096436 -0.01012115 21.11692871 -0.02024231 21.88549805 -0.03067017 C25.65418579 0.05367368 27.67855868 0.57090358 30.79370117 2.73754883 C33.36797454 6.4692957 33.39057949 8.64447223 33.30078125 13.15234375 C33.29370651 13.85554245 33.28663177 14.55874115 33.27934265 15.2832489 C33.25149212 17.51546477 33.1887832 19.74511327 33.125 21.9765625 C33.09990451 23.49540631 33.07709352 25.0142897 33.05664062 26.53320312 C33.00170007 30.24431498 32.91549739 33.95393791 32.8125 37.6640625 C26.15563186 37.7146541 19.49881306 37.7497501 12.84179688 37.77392578 C10.57582751 37.78400109 8.30987119 37.79766168 6.04394531 37.81494141 C2.79228499 37.83912261 -0.45920387 37.85053013 -3.7109375 37.859375 C-5.23755508 37.87485886 -5.23755508 37.87485886 -6.79501343 37.89065552 C-7.73583771 37.89080658 -8.67666199 37.89095764 -9.64599609 37.89111328 C-10.89175919 37.89777512 -10.89175919 37.89777512 -12.16268921 37.90457153 C-14.1875 37.6640625 -14.1875 37.6640625 -16.1875 35.6640625 C-16.41302341 32.80840891 -16.51178763 30.0815274 -16.5 27.2265625 C-16.51611328 26.44990234 -16.53222656 25.67324219 -16.54882812 24.87304688 C-16.55370319 19.21309545 -16.55370319 19.21309545 -15.03637695 16.93823242 C-12.39709487 15.11934781 -10.42643407 15.3080519 -7.2421875 15.3359375 C-6.08332031 15.34109375 -4.92445313 15.34625 -3.73046875 15.3515625 C-1.91482422 15.3825 -1.91482422 15.3825 -0.0625 15.4140625 C1.76474609 15.42179687 1.76474609 15.42179687 3.62890625 15.4296875 C12.6586579 15.5102204 12.6586579 15.5102204 13.8125 16.6640625 C13.8125 18.6440625 13.8125 20.6240625 13.8125 22.6640625 C5.3975 23.1590625 5.3975 23.1590625 -3.1875 23.6640625 C-3.5175 25.3140625 -3.8475 26.9640625 -4.1875 28.6640625 C3.7325 28.6640625 11.6525 28.6640625 19.8125 28.6640625 C19.668125 26.0446875 19.52375 23.4253125 19.375 20.7265625 C19.33189697 19.900354 19.28879395 19.07414551 19.24438477 18.22290039 C19.35045177 14.64361958 19.35045177 14.64361958 17.8125 11.6640625 C15.36641002 11.50425813 12.94518942 11.40476803 10.49609375 11.34765625 C9.76503922 11.32687515 9.03398468 11.30609406 8.28077698 11.28468323 C5.93728344 11.21911226 3.59367461 11.16026818 1.25 11.1015625 C-0.33529855 11.05838442 -1.92058529 11.01477037 -3.50585938 10.97070312 C-7.39962037 10.8634233 -11.29349772 10.7621776 -15.1875 10.6640625 C-12.64408055 2.57136424 -8.2252674 -0.11159944 0 0 Z " fill="#E51634" transform="translate(388.1875,79.3359375)"/>
<path d="M0 0 C4.62 0 9.24 0 14 0 C14.33 6.93 14.66 13.86 15 21 C16.98 18.36 18.96 15.72 21 13 C23.62133789 12.02832031 23.62133789 12.02832031 26.22265625 12.078125 C27.17333984 12.08585938 28.12402344 12.09359375 29.10351562 12.1015625 C30.07998047 12.15054687 31.05644531 12.19953125 32.0625 12.25 C33.53299805 12.25386719 33.53299805 12.25386719 35.03320312 12.2578125 C39.49722361 12.3669128 42.26666569 12.54843494 46.12109375 14.921875 C49.44357609 18.59663717 49.11752956 21.08772779 49.09765625 25.9765625 C49.0962413 26.66181 49.09482635 27.3470575 49.09336853 28.05307007 C49.08776675 30.24375761 49.07521406 32.4343433 49.0625 34.625 C49.05748522 36.10937352 49.05292228 37.59374865 49.04882812 39.078125 C49.03864721 42.7188209 49.01907237 46.35929631 49 50 C44.38 50 39.76 50 35 50 C34.505 37.13 34.505 37.13 34 24 C27.4 23.67 20.8 23.34 14 23 C14 31.91 14 40.82 14 50 C9.38 50 4.76 50 0 50 C0 33.5 0 17 0 0 Z " fill="#676464" transform="translate(165,3)"/>
<path d="M0 0 C0.7857843 -0.00807175 1.5715686 -0.01614349 2.38116455 -0.02445984 C4.04900902 -0.03831824 5.71688206 -0.04903251 7.38476562 -0.05688477 C9.92893877 -0.07405552 12.47179826 -0.11791829 15.015625 -0.16210938 C16.6354071 -0.17223978 18.25520027 -0.18075479 19.875 -0.1875 C20.63351257 -0.20500809 21.39202515 -0.22251617 22.17352295 -0.24055481 C25.68401002 -0.22623384 28.06314869 0.16567004 31.19311523 1.78930664 C33.88800092 5.07272682 33.84086065 7.78681239 33.69140625 11.84765625 C33.68433151 12.57446594 33.67725677 13.30127563 33.66996765 14.05010986 C33.6420523 16.36389582 33.57932883 18.67523123 33.515625 20.98828125 C33.49053799 22.55986079 33.46772551 24.13147841 33.44726562 25.703125 C33.39223632 29.54911645 33.30599166 33.3932839 33.203125 37.23828125 C26.68867295 37.28887515 20.17427132 37.32396981 13.65966797 37.34814453 C11.44220079 37.3582195 9.22474695 37.37187984 7.00732422 37.38916016 C3.82516188 37.41334288 0.64317476 37.42474922 -2.5390625 37.43359375 C-4.03286942 37.44907761 -4.03286942 37.44907761 -5.55685425 37.46487427 C-6.93805954 37.46510086 -6.93805954 37.46510086 -8.34716797 37.46533203 C-9.1599118 37.46977325 -9.97265564 37.47421448 -10.81002808 37.47879028 C-12.796875 37.23828125 -12.796875 37.23828125 -14.796875 35.23828125 C-15.05566406 33.390625 -15.05566406 33.390625 -15.0625 31.17578125 C-15.06507812 30.37914063 -15.06765625 29.5825 -15.0703125 28.76171875 C-15.06257813 27.92898437 -15.05484375 27.09625 -15.046875 26.23828125 C-15.05460937 25.40554687 -15.06234375 24.5728125 -15.0703125 23.71484375 C-15.06773438 22.91820313 -15.06515625 22.1215625 -15.0625 21.30078125 C-15.06024414 20.56988281 -15.05798828 19.83898437 -15.05566406 19.0859375 C-14.796875 17.23828125 -14.796875 17.23828125 -12.796875 15.23828125 C-10.09130859 15.01123047 -10.09130859 15.01123047 -6.6953125 15.04296875 C-4.87773438 15.05263672 -4.87773438 15.05263672 -3.0234375 15.0625 C-1.75242187 15.07925781 -0.48140625 15.09601563 0.828125 15.11328125 C2.106875 15.12230469 3.385625 15.13132812 4.703125 15.140625 C7.86997667 15.16425822 11.03645924 15.19720496 14.203125 15.23828125 C14.203125 17.54828125 14.203125 19.85828125 14.203125 22.23828125 C8.593125 22.23828125 2.983125 22.23828125 -2.796875 22.23828125 C-2.796875 24.21828125 -2.796875 26.19828125 -2.796875 28.23828125 C4.793125 28.23828125 12.383125 28.23828125 20.203125 28.23828125 C19.873125 22.62828125 19.543125 17.01828125 19.203125 11.23828125 C7.983125 10.90828125 -3.236875 10.57828125 -14.796875 10.23828125 C-8.02289241 0.07730737 -8.02289241 0.07730737 0 0 Z " fill="#E51635" transform="translate(100.796875,79.76171875)"/>
<path d="M0 0 C4.62 0 9.24 0 14 0 C14.33 6.93 14.66 13.86 15 21 C17.97 17.535 17.97 17.535 21 14 C23.62133789 13.12597656 23.62133789 13.12597656 26.22265625 13.140625 C27.17333984 13.140625 28.12402344 13.140625 29.10351562 13.140625 C30.07998047 13.17671875 31.05644531 13.2128125 32.0625 13.25 C33.04283203 13.2396875 34.02316406 13.229375 35.03320312 13.21875 C42.10651904 13.33399751 42.10651904 13.33399751 45.78759766 16.07788086 C48.61041208 19.80622625 48.58068215 21.84975607 48.48828125 26.48828125 C48.48120651 27.19147995 48.47413177 27.89467865 48.46684265 28.6191864 C48.43899212 30.85140227 48.3762832 33.08105077 48.3125 35.3125 C48.28740451 36.83134381 48.26459352 38.3502272 48.24414062 39.86914062 C48.18920007 43.58025248 48.10299739 47.28987541 48 51 C43.71 51 39.42 51 35 51 C34.93941406 49.20691406 34.87882812 47.41382813 34.81640625 45.56640625 C34.73202151 43.23176176 34.64737249 40.89712681 34.5625 38.5625 C34.52318359 37.37849609 34.48386719 36.19449219 34.44335938 34.97460938 C34.40146484 33.84990234 34.35957031 32.72519531 34.31640625 31.56640625 C34.26141968 30.00321655 34.26141968 30.00321655 34.20532227 28.40844727 C34.26484659 26.0500174 34.26484659 26.0500174 33 25 C31.58672053 24.84379445 30.1664541 24.74943827 28.74609375 24.68359375 C27.9770874 24.64548584 27.20808105 24.60737793 26.41577148 24.56811523 C24.9415271 24.50346069 24.9415271 24.50346069 23.4375 24.4375 C20.323125 24.293125 17.20875 24.14875 14 24 C14 32.91 14 41.82 14 51 C9.38 51 4.76 51 0 51 C0 34.17 0 17.34 0 0 Z " fill="#E51E3C" transform="translate(143,66)"/>
<path d="M0 0 C6.37203593 -0.0505963 12.7440203 -0.08568957 19.11621094 -0.10986328 C21.28517594 -0.11993789 23.45412731 -0.13359798 25.62304688 -0.15087891 C28.73571126 -0.17506323 31.84819651 -0.18646832 34.9609375 -0.1953125 C35.934935 -0.20563507 36.9089325 -0.21595764 37.91244507 -0.22659302 C39.26361923 -0.22681961 39.26361923 -0.22681961 40.64208984 -0.22705078 C41.43706879 -0.231492 42.23204773 -0.23593323 43.05111694 -0.24050903 C45 0 45 0 47 2 C47.22552341 4.85565359 47.32428763 7.5825351 47.3125 10.4375 C47.32861328 11.21416016 47.34472656 11.99082031 47.36132812 12.79101562 C47.36621415 18.46369011 47.36621415 18.46369011 45.8215332 20.72583008 C43.30274058 22.48773581 41.54835049 22.35716931 38.4921875 22.328125 C36.88923828 22.32039063 36.88923828 22.32039063 35.25390625 22.3125 C34.13886719 22.291875 33.02382812 22.27125 31.875 22.25 C30.19083984 22.24226563 30.19083984 22.24226563 28.47265625 22.234375 C20.15390339 22.15390339 20.15390339 22.15390339 19 21 C19 18.69 19 16.38 19 14 C24.28 14 29.56 14 35 14 C35 12.35 35 10.7 35 9 C28.07 9 21.14 9 14 9 C14.33 14.61 14.66 20.22 15 26 C25.23 26.33 35.46 26.66 46 27 C44.05460202 31.86349495 43.02655799 33.84915619 39 37 C36.27325616 37.4892166 34.18312903 37.68180281 31.46875 37.62890625 C30.39844543 37.63252419 30.39844543 37.63252419 29.30651855 37.63621521 C27.80373556 37.63523935 26.30091546 37.62190765 24.79833984 37.59692383 C22.50623713 37.56259342 20.21799028 37.57627762 17.92578125 37.59570312 C16.46092119 37.58880418 14.99607103 37.57913133 13.53125 37.56640625 C12.85090698 37.57136612 12.17056396 37.57632599 11.46960449 37.58143616 C6.73926654 37.46514486 4.33112774 36.32762865 1 33 C-0.48679725 30.02640551 -0.11112605 27.33700821 -0.09765625 24.0234375 C-0.09553383 22.99556625 -0.09553383 22.99556625 -0.09336853 21.94692993 C-0.08776675 19.75624239 -0.07521406 17.5656567 -0.0625 15.375 C-0.05748522 13.89062648 -0.05292228 12.40625135 -0.04882812 10.921875 C-0.03779677 7.28121685 -0.02053099 3.64061836 0 0 Z " fill="#696666" transform="translate(58,16)"/>
<path d="M0 0 C5.74828029 -0.09193163 11.49400137 -0.17153786 17.24243164 -0.21972656 C19.19694673 -0.23981774 21.1514019 -0.26709589 23.10571289 -0.30175781 C25.91828208 -0.35038601 28.73005527 -0.3729936 31.54296875 -0.390625 C32.41398727 -0.41127014 33.2850058 -0.43191528 34.18241882 -0.45318604 C38.09890374 -0.45462821 40.51881366 -0.24351038 44.06054688 1.54882812 C46.66744206 4.8435446 46.63638857 7.58513282 46.48828125 11.609375 C46.48120651 12.33618469 46.47413177 13.06299438 46.46684265 13.81182861 C46.4389273 16.12561457 46.37620383 18.43694998 46.3125 20.75 C46.28741299 22.32157954 46.26460051 23.89319716 46.24414062 25.46484375 C46.18911132 29.3108352 46.10286666 33.15500265 46 37 C41.71 37 37.42 37 33 37 C32.67 28.09 32.34 19.18 32 10 C25.73 9.67 19.46 9.34 13 9 C13 18.24 13 27.48 13 37 C8.71 37 4.42 37 0 37 C0 24.79 0 12.58 0 0 Z " fill="#E41230" transform="translate(223,80)"/>
<path d="M0 0 C16.83 0 33.66 0 51 0 C51 3.96 51 7.92 51 12 C44.73 12 38.46 12 32 12 C32 24.87 32 37.74 32 51 C27.71 51 23.42 51 19 51 C19 38.13 19 25.26 19 12 C12.73 12 6.46 12 0 12 C0 8.04 0 4.08 0 0 Z " fill="#646161" transform="translate(2,2)"/>
<path d="M0 0 C0.83778992 0.00565979 1.67557983 0.01131958 2.53875732 0.01715088 C5.20871666 0.03950171 7.87732287 0.08969402 10.546875 0.140625 C12.35935559 0.16069175 14.17185726 0.17894222 15.984375 0.1953125 C20.42239459 0.23936206 24.85940556 0.30837934 29.296875 0.390625 C27.421875 7.265625 27.421875 7.265625 26.296875 8.390625 C24.61394615 8.52382798 22.92593311 8.59401341 21.23828125 8.63671875 C19.70010742 8.68602539 19.70010742 8.68602539 18.13085938 8.73632812 C15.95387919 8.79741354 13.77678958 8.85471937 11.59960938 8.90820312 C10.05950195 8.95944336 10.05950195 8.95944336 8.48828125 9.01171875 C7.54154541 9.0367749 6.59480957 9.06183105 5.61938477 9.08764648 C3.10546076 9.1755749 3.10546076 9.1755749 1.296875 11.390625 C0.97629629 14.67826515 0.97629629 14.67826515 1.046875 18.390625 C1.04171875 19.64875 1.0365625 20.906875 1.03125 22.203125 C0.95907045 25.48344861 0.95907045 25.48344861 3.296875 27.390625 C6.11090183 27.76301727 6.11090183 27.76301727 9.3984375 27.8046875 C10.61015625 27.84335937 11.821875 27.88203125 13.0703125 27.921875 C14.34132812 27.9528125 15.61234375 27.98375 16.921875 28.015625 C18.200625 28.05429687 19.479375 28.09296875 20.796875 28.1328125 C23.96339517 28.22733549 27.1299054 28.31288857 30.296875 28.390625 C30.296875 31.360625 30.296875 34.330625 30.296875 37.390625 C24.8159715 37.48955828 19.33558855 37.56212365 13.85400391 37.61035156 C11.98965399 37.63045761 10.12536706 37.6577468 8.26123047 37.69238281 C5.58024552 37.74094621 2.90009477 37.76360338 0.21875 37.78125 C-0.61368225 37.80189514 -1.4461145 37.82254028 -2.30377197 37.84381104 C-5.97876283 37.84523358 -8.08054044 37.78826025 -11.22753906 35.77832031 C-13.17089778 32.63370611 -13.22013487 30.48506982 -13.234375 26.796875 C-13.23953125 25.51941406 -13.2446875 24.24195312 -13.25 22.92578125 C-13.24162109 22.26336426 -13.23324219 21.60094727 -13.22460938 20.91845703 C-13.2031845 18.89624052 -13.22442239 16.87757539 -13.25 14.85546875 C-13.24484375 13.57800781 -13.2396875 12.30054688 -13.234375 10.984375 C-13.22986328 9.81583984 -13.22535156 8.64730469 -13.22070312 7.44335938 C-12.703125 4.390625 -12.703125 4.390625 -11.21386719 2.00292969 C-7.58532368 -0.32718519 -4.16763742 -0.10615084 0 0 Z " fill="#636060" transform="translate(126.703125,15.609375)"/>
<path d="M0 0 C0.72822464 0.00424484 1.45644928 0.00848969 2.20674133 0.01286316 C4.53013252 0.02964142 6.85265275 0.0672902 9.17578125 0.10546875 C10.75194059 0.12051678 12.32811354 0.13420498 13.90429688 0.14648438 C17.76596002 0.1795419 21.62697303 0.23131681 25.48828125 0.29296875 C23.72711051 3.51649663 21.89896233 6.5122731 19.48828125 9.29296875 C15.91015625 10.3203125 15.91015625 10.3203125 12.23828125 10.23046875 C9.98828619 10.20910804 7.73722284 10.22088729 5.48828125 10.29296875 C2.84836857 12.93288143 3.18587328 14.27243171 3.07421875 17.95703125 C3.01621094 19.63925781 3.01621094 19.63925781 2.95703125 21.35546875 C2.910625 23.11890625 2.910625 23.11890625 2.86328125 24.91796875 C2.80527344 26.69300781 2.80527344 26.69300781 2.74609375 28.50390625 C2.65159621 31.43333014 2.56884126 34.36312845 2.48828125 37.29296875 C-1.80171875 37.29296875 -6.09171875 37.29296875 -10.51171875 37.29296875 C-10.58587043 32.50581252 -10.64032079 27.71899048 -10.67651367 22.93139648 C-10.69160118 21.30275652 -10.71207381 19.67415719 -10.73803711 18.0456543 C-10.77442324 15.7048134 -10.79144495 13.36450956 -10.8046875 11.0234375 C-10.82017136 10.29521286 -10.83565521 9.56698822 -10.85160828 8.81669617 C-10.85253609 6.03038291 -10.79017215 3.81461516 -9.46289062 1.328125 C-6.41381058 -0.28950505 -3.3626708 -0.07371282 0 0 Z " fill="#E41231" transform="translate(347.51171875,79.70703125)"/>
<path d="M0 0 C1.4840332 -0.03577148 1.4840332 -0.03577148 2.99804688 -0.07226562 C3.95646484 -0.07033203 4.91488281 -0.06839844 5.90234375 -0.06640625 C6.77238037 -0.06713135 7.64241699 -0.06785645 8.53881836 -0.06860352 C12.2872886 0.86878602 13.75612136 2.50330958 16.0625 5.5625 C16.63012695 9.06762695 16.63012695 9.06762695 16.55078125 13.05078125 C16.54370651 13.75397995 16.53663177 14.45717865 16.52934265 15.1816864 C16.50149212 17.41390227 16.4387832 19.64355077 16.375 21.875 C16.34990451 23.39384381 16.32709352 24.9127272 16.30664062 26.43164062 C16.25170007 30.14275248 16.16549739 33.85237541 16.0625 37.5625 C11.7725 37.5625 7.4825 37.5625 3.0625 37.5625 C3.01351562 35.78101563 2.96453125 33.99953125 2.9140625 32.1640625 C2.83904517 29.83852537 2.76349691 27.51300532 2.6875 25.1875 C2.6565625 24.011875 2.625625 22.83625 2.59375 21.625 C2.55507812 20.50351563 2.51640625 19.38203125 2.4765625 18.2265625 C2.42943115 16.67122803 2.42943115 16.67122803 2.38134766 15.08447266 C2.30295528 12.39440165 2.30295528 12.39440165 0.0625 10.5625 C-2.83717757 10.25574768 -5.65533178 10.05076629 -8.5625 9.9375 C-9.36429688 9.89882812 -10.16609375 9.86015625 -10.9921875 9.8203125 C-12.97357556 9.72596069 -14.95550645 9.64313785 -16.9375 9.5625 C-13.81731551 0.20194654 -9.05446483 -0.09988702 0 0 Z " fill="#E41231" transform="translate(174.9375,79.4375)"/>
<path d="M0 0 C0 11.88 0 23.76 0 36 C-4.62 36 -9.24 36 -14 36 C-14.18913066 31.6229762 -14.32779796 27.25412616 -14.4375 22.875 C-14.49615234 21.6375 -14.55480469 20.4 -14.61523438 19.125 C-14.78456045 10.12652857 -14.78456045 10.12652857 -12.50952148 6.85986328 C-10.74002974 5.32922855 -9.03509321 4.14546834 -7 3 C-6.071875 2.38125 -5.14375 1.7625 -4.1875 1.125 C-2 0 -2 0 0 0 Z " fill="#E51A38" transform="translate(214,81)"/>
<path d="M0 0 C0.33 0 0.66 0 1 0 C1 8.91 1 17.82 1 27 C-4.1665625 27.0309375 -4.1665625 27.0309375 -9.4375 27.0625 C-10.52474365 27.071604 -11.6119873 27.08070801 -12.73217773 27.09008789 C-13.58239502 27.09258545 -14.4326123 27.09508301 -15.30859375 27.09765625 C-16.62041626 27.10551147 -16.62041626 27.10551147 -17.95874023 27.11352539 C-20 27 -20 27 -21 26 C-21.09981214 23.3226862 -21.13879875 20.67695825 -21.125 18 C-21.12886719 17.24976562 -21.13273437 16.49953125 -21.13671875 15.7265625 C-21.12661053 10.12661053 -21.12661053 10.12661053 -20 9 C-16.44169919 8.75428613 -12.88428436 8.61560863 -9.3203125 8.4765625 C-6.06954872 8.27919975 -6.06954872 8.27919975 -4.15625 6.62890625 C-2.64122021 4.49455685 -1.33713411 2.24881645 0 0 Z " fill="#FEFCFD" transform="translate(313,81)"/>
<path d="M0 0 C4.62 0 9.24 0 14 0 C15.0531804 6.31908238 15.0531804 6.31908238 14 10 C10.41418483 13.3704509 5.15240018 18 0 18 C0 12.06 0 6.12 0 0 Z " fill="#E6213E" transform="translate(200,66)"/>
</svg>
