<?xml version="1.0" encoding="UTF-8"?>
<svg version="1.1" xmlns="http://www.w3.org/2000/svg" width="371" height="136">
<path d="M0 0 C122.43 0 244.86 0 371 0 C371 44.88 371 89.76 371 136 C248.57 136 126.14 136 0 136 C0 91.12 0 46.24 0 0 Z " fill="#FAFBFB" transform="translate(0,0)"/>
<path d="M0 0 C2.92152702 1.8344472 5.4326609 3.86532181 7 7 C7.35032356 12.34243433 7.4561069 15.64786539 4 20 C-0.38498404 22.92332269 -3.7774672 22.1356502 -9 22 C-9 25.63 -9 29.26 -9 33 C-10.65 33 -12.3 33 -14 33 C-14 22.44 -14 11.88 -14 1 C-13.01 1 -12.02 1 -11 1 C-11 1.66 -11 2.32 -11 3 C-10.29875 2.505 -9.5975 2.01 -8.875 1.5 C-5.46483475 -0.27921665 -3.79446342 -0.61950423 0 0 Z " fill="#2C0F55" transform="translate(61,57)"/>
<path d="M0 0 C3.27634314 2.67456583 4.63024101 4.12149228 5.4375 8.22265625 C5.65604767 12.31359542 5.3293799 14.47299216 3.125 18 C-0.38583817 21.30431828 -3.06429794 21.38948117 -7.73828125 21.359375 C-11.32520929 20.78943134 -12.86838894 18.79773951 -15 16 C-16.61429923 12.77140153 -16.59570657 9.49006347 -16 6 C-12.02163235 -0.93245408 -7.36535785 -2.01912396 0 0 Z " fill="#2D1256" transform="translate(105,58)"/>
<path d="M0 0 C0.66 0 1.32 0 2 0 C3.65 3.3 5.3 6.6 7 10 C8.32 7.03 9.64 4.06 11 1 C12.65 1 14.3 1 16 1 C14.55613874 8.21930632 12.42211826 15.05110733 10 22 C9.01 22 8.02 22 7 22 C4.03 16.06 4.03 16.06 1 10 C-1.31 13.96 -3.62 17.92 -6 22 C-6.99 21.67 -7.98 21.34 -9 21 C-9.89135742 19.05053711 -9.89135742 19.05053711 -10.60546875 16.52734375 C-10.86650391 15.62822266 -11.12753906 14.72910156 -11.39648438 13.80273438 C-11.65751953 12.85720703 -11.91855469 11.91167969 -12.1875 10.9375 C-12.46013672 9.98810547 -12.73277344 9.03871094 -13.01367188 8.06054688 C-13.68695447 5.70996377 -14.34847283 3.35668853 -15 1 C-13.02 1 -11.04 1 -9 1 C-7.68373308 4.61973402 -7 7.09567131 -7 11 C-6.34 11 -5.68 11 -5 11 C-4.731875 10.113125 -4.46375 9.22625 -4.1875 8.3125 C-3.0749365 5.2090334 -1.89804222 2.68889315 0 0 Z " fill="#2D1156" transform="translate(15,57)"/>
<path d="M0 0 C1.32 0 2.64 0 4 0 C4 7.26 4 14.52 4 22 C2.35 22 0.7 22 -1 22 C-1.825 22.268125 -2.65 22.53625 -3.5 22.8125 C-6 23 -6 23 -8.8125 21.0625 C-11.80622285 16.87128801 -11.7242756 15.06992923 -11 10 C-9.375 7.5 -9.375 7.5 -7 6 C-3.75 5.75 -3.75 5.75 -1 6 C-0.67 4.02 -0.34 2.04 0 0 Z " fill="#0B3573" transform="translate(245,57)"/>
<path d="M0 0 C1.918125 -0.0825 3.83625 -0.165 5.8125 -0.25 C7.43091797 -0.31960937 7.43091797 -0.31960937 9.08203125 -0.390625 C12 0 12 0 13.859375 1.765625 C15.62904836 5.23224543 15.69277089 8.20143599 15 12 C13.375 14.5 13.375 14.5 11 16 C7.75 16.25 7.75 16.25 5 16 C4.67 17.98 4.34 19.96 4 22 C2.68 22 1.36 22 0 22 C0 14.74 0 7.48 0 0 Z " fill="#1B447C" transform="translate(356,101)"/>
<path d="M0 0 C3.375 1.0625 3.375 1.0625 5.3125 2.6875 C6.81790722 6.05252791 6.82319965 8.41287432 6.375 12.0625 C4.8125 15 4.8125 15 2.375 17.0625 C-1.55811127 17.69460717 -3.64967068 17.66270266 -7.0625 15.5625 C-9.23532082 12.08598669 -9.50925242 8.98733969 -8.625 5.0625 C-5.9636004 1.11072483 -4.808262 0.08290107 0 0 Z " fill="#0F3875" transform="translate(277.625,99.9375)"/>
<path d="M0 0 C2.9375 0.625 2.9375 0.625 5.3125 2.6875 C7.33220801 6.33851063 7.46166181 8.50658581 6.9375 12.625 C5.875 15 5.875 15 3.9375 16.625 C0.38078292 17.59501375 -1.94415337 18.03702244 -5.4375 16.75 C-8.03331596 13.35547143 -8.49059308 9.83950256 -8.0625 5.625 C-5.652647 2.04673342 -4.22730807 0.86271593 0 0 Z " fill="#0B3573" transform="translate(335.0625,62.375)"/>
<path d="M0 0 C4.95 0 9.9 0 15 0 C15 1.32 15 2.64 15 4 C11.37 4 7.74 4 4 4 C4 5.65 4 7.3 4 9 C7.3 9 10.6 9 14 9 C14 10.32 14 11.64 14 13 C10.7 13 7.4 13 4 13 C4 14.98 4 16.96 4 19 C7.63 19 11.26 19 15 19 C15 19.99 15 20.98 15 22 C10.05 22 5.1 22 0 22 C0 14.74 0 7.48 0 0 Z " fill="#113876" transform="translate(216,57)"/>
<path d="M0 0 C2 1.375 2 1.375 3 3 C3 3.99 3 4.98 3 6 C1.68 6 0.36 6 -1 6 C-1.33 5.34 -1.66 4.68 -2 4 C-3.98 4 -5.96 4 -8 4 C-8 5.32 -8 6.64 -8 8 C-7.07767578 8.16435547 -7.07767578 8.16435547 -6.13671875 8.33203125 C-5.32847656 8.49058594 -4.52023438 8.64914063 -3.6875 8.8125 C-2.88699219 8.96332031 -2.08648437 9.11414062 -1.26171875 9.26953125 C1.28375943 10.09164596 2.4072805 10.86430795 4 13 C3.92999366 16.36030437 3.60671445 18.27194266 1.4375 20.875 C-2.05138132 22.48525292 -5.27939248 22.81042936 -9 22 C-12 19.625 -12 19.625 -14 17 C-14 16.34 -14 15.68 -14 15 C-12.68 15 -11.36 15 -10 15 C-9.34 15.99 -8.68 16.98 -8 18 C-4.91634129 18.2502157 -4.91634129 18.2502157 -2 18 C-1.67 16.68 -1.34 15.36 -1 14 C-1.92232422 13.83564453 -1.92232422 13.83564453 -2.86328125 13.66796875 C-3.67152344 13.50941406 -4.47976562 13.35085937 -5.3125 13.1875 C-6.51326172 12.96126953 -6.51326172 12.96126953 -7.73828125 12.73046875 C-10.28590928 11.9076597 -11.37695759 11.10944313 -13 9 C-13.5 6.0625 -13.5 6.0625 -13 3 C-8.98015175 -1.89919005 -5.7052582 -1.3803044 0 0 Z " fill="#103875" transform="translate(228,20)"/>
<path d="M0 0 C1.32 0.33 2.64 0.66 4 1 C4.66 3.31 5.32 5.62 6 8 C6.99 5.36 7.98 2.72 9 0 C10.32 0 11.64 0 13 0 C13.66 2.31 14.32 4.62 15 7 C16.74627478 4.38058783 17.38722388 2.96175123 18 0 C19.32 0.33 20.64 0.66 22 1 C20.68 5.95 19.36 10.9 18 16 C16.68 16 15.36 16 14 16 C13.01 13.03 12.02 10.06 11 7 C9.68 9.97 8.36 12.94 7 16 C5.68 16 4.36 16 3 16 C2.49411853 14.08487728 1.99551609 12.16783078 1.5 10.25 C1.2215625 9.18265625 0.943125 8.1153125 0.65625 7.015625 C0 4 0 4 0 0 Z " fill="#0D3473" transform="translate(287,101)"/>
<path d="M0 0 C2.1484375 1.06640625 2.1484375 1.06640625 4 3 C4.609375 6.35546875 4.609375 6.35546875 4.75 10.1875 C4.80671875 11.45980469 4.8634375 12.73210937 4.921875 14.04296875 C4.96054687 15.50669922 4.96054687 15.50669922 5 17 C4.030625 16.814375 3.06125 16.62875 2.0625 16.4375 C1.051875 16.293125 0.04125 16.14875 -1 16 C-1.33 16.33 -1.66 16.66 -2 17 C-4.33944736 16.71269945 -6.6739143 16.38063221 -9 16 C-9.625 12.625 -9.625 12.625 -10 9 C-8 7 -8 7 -6.0546875 6.8046875 C-4.03645833 6.86979167 -2.01822917 6.93489583 0 7 C0 5.68 0 4.36 0 3 C-2.97 3.66 -5.94 4.32 -9 5 C-8.67 3.68 -8.34 2.36 -8 1 C-5.19084526 -0.40457737 -3.11189466 -0.24895157 0 0 Z " fill="#002C6E" transform="translate(298,63)"/>
<path d="M0 0 C2.5 2.125 2.5 2.125 4 5 C3.936318 8.18409977 3.51040601 10.14932332 1.875 12.875 C-1.16832808 14.70099685 -3.54249555 14.42460581 -7 14 C-9.4375 12.375 -9.4375 12.375 -11 10 C-11.60605429 6.36367425 -11.47161336 4.71685231 -9.4375 1.625 C-6.04129157 -0.63913895 -3.99900698 -0.64269755 0 0 Z " fill="#4A5E99" transform="translate(167,61)"/>
<path d="M0 0 C3.29690593 0.76082445 4.48226263 1.81068444 6.4375 4.5625 C6.6875 7.8125 6.6875 7.8125 6.4375 10.5625 C3.1375 10.5625 -0.1625 10.5625 -3.5625 10.5625 C-3.2325 11.5525 -2.9025 12.5425 -2.5625 13.5625 C1.8925 13.0675 1.8925 13.0675 6.4375 12.5625 C4.4375 16.5625 4.4375 16.5625 3.4375 17.5625 C-0.34549385 17.91938621 -2.71662807 18.08303657 -6 16.0625 C-8.16828832 12.5932387 -8.46246291 9.48044196 -7.5625 5.5625 C-5.25408008 2.39666697 -3.85720102 0.84670266 0 0 Z " fill="#113A77" transform="translate(240.5625,99.4375)"/>
<path d="M0 0 C4.32624283 1.50478011 4.32624283 1.50478011 5.875 4 C6.0625 7.1875 6.0625 7.1875 5.875 10 C2.575 10 -0.725 10 -4.125 10 C-3.795 10.99 -3.465 11.98 -3.125 13 C-1.475 13.33 0.175 13.66 1.875 14 C1.875 13.34 1.875 12.68 1.875 12 C3.195 12 4.515 12 5.875 12 C4 15.875 4 15.875 2.875 17 C-0.90799385 17.35688621 -3.27912807 17.52053657 -6.5625 15.5 C-8.73335617 12.02663012 -9.01630898 8.92175953 -8.125 5 C-5.60737756 1.37166178 -4.48968459 0 0 0 Z " fill="#20457C" transform="translate(268.125,25)"/>
<path d="M0 0 C1.875 0.3515625 1.875 0.3515625 3.875 2.0390625 C4.875 4.3515625 4.875 4.3515625 4.875 9.3515625 C1.245 9.3515625 -2.385 9.3515625 -6.125 9.3515625 C-5.135 10.8365625 -5.135 10.8365625 -4.125 12.3515625 C0.33 11.8565625 0.33 11.8565625 4.875 11.3515625 C2.875 15.3515625 2.875 15.3515625 1.875 16.3515625 C-5.44427942 16.82377408 -5.44427942 16.82377408 -7.859375 15.1484375 C-9.52814695 12.77919338 -9.52570089 11.23006265 -9.5 8.3515625 C-9.50773437 7.4853125 -9.51546875 6.6190625 -9.5234375 5.7265625 C-9.125 3.3515625 -9.125 3.3515625 -7.8515625 1.56640625 C-5.22304791 -0.28306895 -3.12776024 -0.1264903 0 0 Z " fill="#02296D" transform="translate(322.125,25.6484375)"/>
<path d="M0 0 C0.33 1.32 0.66 2.64 1 4 C-2.465 5.485 -2.465 5.485 -6 7 C-6.33 11.95 -6.66 16.9 -7 22 C-8.98 22 -10.96 22 -13 22 C-13 15.07 -13 8.14 -13 1 C-10.525 1.495 -10.525 1.495 -8 2 C-4.77208445 -0.1519437 -3.71599191 -0.20086443 0 0 Z " fill="#311759" transform="translate(86,57)"/>
<path d="M0 0 C1.32 0.33 2.64 0.66 4 1 C5.7634375 0.690625 5.7634375 0.690625 7.5625 0.375 C11 0 11 0 12.703125 1.02734375 C14.68102876 4.03590218 14.28516297 6.63907871 14.1875 10.1875 C14.16042969 11.45980469 14.13335937 12.73210937 14.10546875 14.04296875 C14.07066406 15.01878906 14.03585937 15.99460937 14 17 C12.68 17 11.36 17 10 17 C9.67 12.71 9.34 8.42 9 4 C7.68 4.33 6.36 4.66 5 5 C4.67 8.96 4.34 12.92 4 17 C2.68 17 1.36 17 0 17 C0 11.39 0 5.78 0 0 Z " fill="#143A77" transform="translate(346,63)"/>
<path d="M0 0 C2.4375 1.5625 2.4375 1.5625 4 4 C3.9375 7.625 3.9375 7.625 3 11 C-0.49124017 13.32749345 -1.89222251 13.50299316 -6 13 C-8.7912125 11.01677007 -9.82597224 9.87013879 -10.5 6.5 C-9.33827182 0.69135908 -5.5534724 -0.92557873 0 0 Z " fill="#314F8A" transform="translate(164,45)"/>
<path d="M0 0 C0.99 0 1.98 0 3 0 C3 2.31 3 4.62 3 7 C3.66 6.67 4.32 6.34 5 6 C8 5.8125 8 5.8125 11 6 C13 8 13 8 13.1953125 11.2578125 C13.17210937 12.53398438 13.14890625 13.81015625 13.125 15.125 C13.10695313 16.40632813 13.08890625 17.68765625 13.0703125 19.0078125 C13.04710937 19.99523437 13.02390625 20.98265625 13 22 C11.68 22 10.36 22 9 22 C9 17.71 9 13.42 9 9 C7.35 9.66 5.7 10.32 4 11 C3.67 14.63 3.34 18.26 3 22 C2.01 22 1.02 22 0 22 C0 14.74 0 7.48 0 0 Z " fill="#022C6F" transform="translate(329,95)"/>
<path d="M0 0 C2.4375 1.625 2.4375 1.625 4 4 C3.93498241 7.18586196 3.51914046 9.18030454 1.8125 11.875 C-0.97669273 13.60622307 -2.79146522 13.52384241 -6 13 C-8.4375 10.875 -8.4375 10.875 -10 8 C-9.9375 4.8125 -9.9375 4.8125 -9 2 C-5.50875983 -0.32749345 -4.10777749 -0.50299316 0 0 Z " fill="#6673AB" transform="translate(164,78)"/>
<path d="M0 0 C9.1796875 -0.1953125 9.1796875 -0.1953125 12 0 C14 2 14 2 14.1953125 5.2578125 C14.16050781 7.17207031 14.16050781 7.17207031 14.125 9.125 C14.10695313 10.40632813 14.08890625 11.68765625 14.0703125 13.0078125 C14.04710937 13.99523438 14.02390625 14.98265625 14 16 C12.68 16 11.36 16 10 16 C10 11.71 10 7.42 10 3 C8.35 3.66 6.7 4.32 5 5 C4.67 8.63 4.34 12.26 4 16 C2.68 16 1.36 16 0 16 C0 10.72 0 5.44 0 0 Z " fill="#1B417A" transform="translate(278,26)"/>
<path d="M0 0 C4.95 0 9.9 0 15 0 C15 0.99 15 1.98 15 3 C11.04 3 7.08 3 3 3 C3 5.31 3 7.62 3 10 C6.3 10 9.6 10 13 10 C13 10.99 13 11.98 13 13 C9.7 13 6.4 13 3 13 C3 15.97 3 18.94 3 22 C2.01 22 1.02 22 0 22 C0 14.74 0 7.48 0 0 Z " fill="#043171" transform="translate(216,95)"/>
<path d="M0 0 C1.98 0 3.96 0 6 0 C6 6.93 6 13.86 6 21 C4.02 21 2.04 21 0 21 C0 14.07 0 7.14 0 0 Z " fill="#321759" transform="translate(35,58)"/>
<path d="M0 0 C2.01822917 0.06510417 4.03645833 0.13020833 6.0546875 0.1953125 C6.7146875 1.5153125 7.3746875 2.8353125 8.0546875 4.1953125 C5.4146875 3.8653125 2.7746875 3.5353125 0.0546875 3.1953125 C0.0546875 3.8553125 0.0546875 4.5153125 0.0546875 5.1953125 C0.62058594 5.35386719 1.18648438 5.51242188 1.76953125 5.67578125 C3.98225466 6.37965285 6.00310621 7.10487118 8.0546875 8.1953125 C9.2421875 10.6953125 9.2421875 10.6953125 9.0546875 13.1953125 C8.1171875 15.0078125 8.1171875 15.0078125 6.0546875 16.1953125 C2.36123329 16.75585753 -0.80313792 16.98055753 -3.9453125 14.8203125 C-4.9453125 13.1953125 -4.9453125 13.1953125 -4.9453125 11.1953125 C-3.6253125 11.1953125 -2.3053125 11.1953125 -0.9453125 11.1953125 C-0.9453125 11.8553125 -0.9453125 12.5153125 -0.9453125 13.1953125 C1.0346875 13.1953125 3.0146875 13.1953125 5.0546875 13.1953125 C4.7246875 12.2053125 4.3946875 11.2153125 4.0546875 10.1953125 C1.73620876 9.4786918 -0.59850953 8.81289223 -2.9453125 8.1953125 C-3.6053125 7.5353125 -4.2653125 6.8753125 -4.9453125 6.1953125 C-4.53127117 2.88298187 -3.68015042 0.36949301 0 0 Z " fill="#153977" transform="translate(315.9453125,100.8046875)"/>
<path d="M0 0 C3.5625 0.3125 3.5625 0.3125 5.5625 1.375 C7.19628851 4.54046524 6.41517564 6.96270286 5.5625 10.3125 C2.32096834 12.4735211 1.32557099 12.95497553 -2.4375 12.3125 C-4.8125 10.125 -4.8125 10.125 -6.4375 7.3125 C-6.21102591 2.44330699 -5.02322095 0.45665645 0 0 Z " fill="#956198" transform="translate(154.4375,93.6875)"/>
<path d="M0 0 C2.875 0.5 2.875 0.5 4.75 1.8125 C5.875 3.5 5.875 3.5 5.875 6.5 C3.8035876 5.9821469 1.74079924 5.46165693 -0.3125 4.875 C-0.910625 4.75125 -1.50875 4.6275 -2.125 4.5 C-3.33061184 5.48267859 -3.33061184 5.48267859 -3.22265625 7.34765625 C-3.21105469 8.07855469 -3.19945312 8.80945313 -3.1875 9.5625 C-3.166875 10.861875 -3.14625 12.16125 -3.125 13.5 C-0.155 12.84 2.815 12.18 5.875 11.5 C4.875 15.5 4.875 15.5 1.875 17.5 C-0.5625 17.875 -0.5625 17.875 -3.125 17.5 C-6.35860026 14.80533312 -7.94030112 12.8852416 -8.5 8.6875 C-8.125 5.5 -8.125 5.5 -6 2.625 C-3.125 0.5 -3.125 0.5 0 0 Z " fill="#284980" transform="translate(279.125,62.5)"/>
<path d="M0 0 C1.5778125 0.4021875 1.5778125 0.4021875 3.1875 0.8125 C3.8475 2.4625 4.5075 4.1125 5.1875 5.8125 C3.8675 5.8125 2.5475 5.8125 1.1875 5.8125 C1.1875 5.1525 1.1875 4.4925 1.1875 3.8125 C-0.4625 4.1425 -2.1125 4.4725 -3.8125 4.8125 C-3.8125 7.1225 -3.8125 9.4325 -3.8125 11.8125 C-1.92070797 12.4939823 -1.92070797 12.4939823 0.1875 12.8125 C0.8475 12.1525 1.5075 11.4925 2.1875 10.8125 C3.1775 10.8125 4.1675 10.8125 5.1875 10.8125 C4.875 12.6875 4.875 12.6875 4.1875 14.8125 C1.1875 16.8125 1.1875 16.8125 -2.3125 16.75 C-5.8125 15.8125 -5.8125 15.8125 -7.75 13.625 C-9.00333603 10.3073458 -9.39806445 8.32588668 -8.8125 4.8125 C-6.008316 0.81866219 -4.96013314 -0.24394097 0 0 Z " fill="#0B3372" transform="translate(242.8125,25.1875)"/>
<path d="M0 0 C0.99 0 1.98 0 3 0 C3.33 3.96 3.66 7.92 4 12 C5.65 11.67 7.3 11.34 9 11 C9.33 7.37 9.66 3.74 10 0 C10.99 0 11.98 0 13 0 C13 5.28 13 10.56 13 16 C3.60207612 17.34256055 3.60207612 17.34256055 1.1875 15.96875 C-0.6363819 12.9449458 -0.28343191 10.29802621 -0.1875 6.8125 C-0.16042969 5.54019531 -0.13335937 4.26789063 -0.10546875 2.95703125 C-0.07066406 1.98121094 -0.03585938 1.00539063 0 0 Z " fill="#0C3674" transform="translate(254,63)"/>
<path d="M0 0 C2 2 2 2 2 5 C-0.64 4.67 -3.28 4.34 -6 4 C-6 6.64 -6 9.28 -6 12 C-4.68 12 -3.36 12 -2 12 C-1.67 11.34 -1.34 10.68 -1 10 C0.32 10 1.64 10 3 10 C2.6875 11.875 2.6875 11.875 2 14 C-1.49124017 16.32749345 -2.89222251 16.50299316 -7 16 C-9.375 14.5 -9.375 14.5 -11 12 C-11.6908363 8.21204367 -11.42804058 5.07010144 -10 1.5 C-6.72233698 -0.95824727 -4.0234816 -0.38318872 0 0 Z " fill="#1A407A" transform="translate(307,26)"/>
<path d="M0 0 C1.9375 1.1875 1.9375 1.1875 3 3 C2.77669287 6.64734979 2.61627165 8.38372835 0 11 C-3.5 11.25 -3.5 11.25 -7 11 C-9 9 -9 9 -9.3125 5.5625 C-9 2 -9 2 -7.875 0 C-4.97628638 -1.5459806 -3.07995476 -0.89832014 0 0 Z " fill="#0C3675" transform="translate(158,31)"/>
<path d="M0 0 C2 2 2 2 2.3125 4.9375 C2 8 2 8 0.8125 9.875 C-1.65507108 11.40659584 -3.14519831 11.42822025 -6 11 C-7.8125 9.875 -7.8125 9.875 -9 8 C-9.4375 5 -9.4375 5 -9 2 C-6.12524616 -1.3006433 -4.03854228 -1.38160657 0 0 Z " fill="#F7F7F8" transform="translate(103,63)"/>
<path d="M0 0 C2.4375 0.75 2.4375 0.75 4.4375 2.75 C4.6875 6.25 4.6875 6.25 4.4375 9.75 C2.4375 11.75 2.4375 11.75 -1.125 11.9375 C-4.5625 11.75 -4.5625 11.75 -5.5625 10.75 C-5.765625 8.75390625 -5.765625 8.75390625 -5.8125 6.3125 C-5.83828125 5.50941406 -5.8640625 4.70632812 -5.890625 3.87890625 C-5.78234375 3.17636719 -5.6740625 2.47382812 -5.5625 1.75 C-2.5625 -0.25 -2.5625 -0.25 0 0 Z " fill="#F2F1F4" transform="translate(57.5625,62.25)"/>
<path d="M0 0 C0.99 0 1.98 0 3 0 C3 1.32 3 2.64 3 4 C4.32 4 5.64 4 7 4 C7 4.99 7 5.98 7 7 C5.68 7 4.36 7 3 7 C3 10.3 3 13.6 3 17 C4.65 17 6.3 17 8 17 C7.67 18.32 7.34 19.64 7 21 C4.625 21.125 4.625 21.125 2 21 C0 19 0 19 -0.1953125 16.1796875 C-0.16050781 14.54386719 -0.16050781 14.54386719 -0.125 12.875 C-0.10695313 11.77929688 -0.08890625 10.68359375 -0.0703125 9.5546875 C-0.04710937 8.71164063 -0.02390625 7.86859375 0 7 C-0.99 7 -1.98 7 -3 7 C-3 6.01 -3 5.02 -3 4 C-2.01 4 -1.02 4 0 4 C0 2.68 0 1.36 0 0 Z " fill="#063070" transform="translate(308,59)"/>
<path d="M0 0 C2.5625 0.3125 2.5625 0.3125 4.4375 1.375 C6.21032183 4.42819315 5.25485306 6.97661708 4.5625 10.3125 C-1.82457103 11.63811852 -1.82457103 11.63811852 -4.4375 10.25 C-5.9390177 7.34080946 -5.29001616 5.3946738 -4.4375 2.3125 C-2.4375 0.3125 -2.4375 0.3125 0 0 Z " fill="#B50D6D" transform="translate(144.4375,106.6875)"/>
<path d="M0 0 C0.33 2.31 0.66 4.62 1 7 C-0.6875 8.5625 -0.6875 8.5625 -3 10 C-6.37036311 9.75925978 -7.58798021 9.41201979 -10 7 C-9.75 3.4375 -9.75 3.4375 -9 0 C-5.93109813 -1.53445094 -3.29905734 -0.54984289 0 0 Z " fill="#1E4884" transform="translate(149,19)"/>
<path d="M0 0 C1.32 0 2.64 0 4 0 C4 6.6 4 13.2 4 20 C4.66 20 5.32 20 6 20 C6 20.99 6 21.98 6 23 C1.125 22.125 1.125 22.125 0 21 C-0.08685603 19.43827255 -0.10702219 17.87270656 -0.09765625 16.30859375 C-0.09443359 15.36435547 -0.09121094 14.42011719 -0.08789062 13.44726562 C-0.07951172 12.45404297 -0.07113281 11.46082031 -0.0625 10.4375 C-0.05798828 9.44041016 -0.05347656 8.44332031 -0.04882812 7.41601562 C-0.03700007 4.94395151 -0.02051849 2.47200482 0 0 Z " fill="#0A3473" transform="translate(251,94)"/>
<path d="M0 0 C2 1.375 2 1.375 3 3 C3 3.99 3 4.98 3 6 C1.68 6 0.36 6 -1 6 C-1.33 5.34 -1.66 4.68 -2 4 C-3.98 4 -5.96 4 -8 4 C-7.67 6.31 -7.34 8.62 -7 11 C-7.99 11.33 -8.98 11.66 -10 12 C-12.4832167 10.13758747 -12.96917166 9.18111649 -13.5 6.0625 C-13 3 -13 3 -11 0.5625 C-6.729198 -1.66187604 -4.66041289 -1.12751925 0 0 Z " fill="#133D78" transform="translate(228,20)"/>
<path d="M0 0 C1.875 1.1875 1.875 1.1875 3 3 C2.75546876 6.34192692 2.39456443 7.60543557 0 10 C-3.625 9.625 -3.625 9.625 -7 9 C-8.33157895 3.55263158 -8.33157895 3.55263158 -6.875 1.125 C-4.36737712 -0.37957373 -2.87879197 -0.4318188 0 0 Z " fill="#4B5F9A" transform="translate(148,63)"/>
<path d="M0 0 C2 2 2 2 2.25 5 C2 8 2 8 0 10 C-2.84602594 10.36487512 -4.3864306 10.40199375 -6.8125 8.8125 C-8.41501866 6.36655047 -8.4409511 4.86618213 -8 2 C-4.77626323 -0.14915785 -3.73296326 -0.38286803 0 0 Z " fill="#B30668" transform="translate(134,118)"/>
<path d="M0 0 C2.5 0.25 2.5 0.25 4.5 2.25 C4.75 5.25 4.75 5.25 4.5 8.25 C2.5 10.25 2.5 10.25 -0.5 10.5625 C-1.49 10.459375 -2.48 10.35625 -3.5 10.25 C-5.5 7.25 -5.5 7.25 -5.25 4.6875 C-4.24098289 1.40819438 -3.4742892 0.34742892 0 0 Z " fill="#3173B1" transform="translate(131.5,7.75)"/>
<path d="M0 0 C3.29714793 0.32971479 4.6226839 0.6226839 7 3 C6.625 6.125 6.625 6.125 6 9 C0.56559513 10.32841008 0.56559513 10.32841008 -1.9375 8.875 C-3 7 -3 7 -2.8125 4.4375 C-2 2 -2 2 0 0 Z " fill="#D6535C" transform="translate(114,124)"/>
<path d="M0 0 C1.32841008 5.43440487 1.32841008 5.43440487 -0.125 7.9375 C-2 9 -2 9 -4.5625 8.8125 C-7 8 -7 8 -9 6 C-8.75 2.9375 -8.75 2.9375 -8 0 C-5.13822943 -1.43088528 -3.06624227 -0.59991697 0 0 Z " fill="#4C8FCC" transform="translate(120,3)"/>
<path d="M0 0 C0.99 0 1.98 0 3 0 C3.33 5.94 3.66 11.88 4 18 C4.66 18.33 5.32 18.66 6 19 C6 19.99 6 20.98 6 22 C4.02 21.67 2.04 21.34 0 21 C0 14.07 0 7.14 0 0 Z " fill="#073171" transform="translate(261,95)"/>
<path d="M0 0 C2.875 -0.125 2.875 -0.125 6 0 C8 2 8 2 8.1953125 5.2578125 C8.16050781 7.17207031 8.16050781 7.17207031 8.125 9.125 C8.10695313 10.40632813 8.08890625 11.68765625 8.0703125 13.0078125 C8.04710937 13.99523438 8.02390625 14.98265625 8 16 C6.68 16 5.36 16 4 16 C4 11.71 4 7.42 4 3 C2.68 2.67 1.36 2.34 0 2 C0 1.34 0 0.68 0 0 Z " fill="#0F3775" transform="translate(284,26)"/>
<path d="M0 0 C2.5 0.25 2.5 0.25 4.5 2.25 C4.75 4.75 4.75 4.75 4.5 7.25 C2.5 9.25 2.5 9.25 0 9.5 C-2.5 9.25 -2.5 9.25 -4.5 7.25 C-4.75 4.75 -4.75 4.75 -4.5 2.25 C-2.5 0.25 -2.5 0.25 0 0 Z " fill="#3E9EB7" transform="translate(99.5,-0.25)"/>
<path d="M0 0 C3.63 0 7.26 0 11 0 C11 0.33 11 0.66 11 1 C9.35 1 7.7 1 6 1 C5.01 3.97 4.02 6.94 3 10 C2.34 10 1.68 10 1 10 C1 12.31 1 14.62 1 17 C1.66 17 2.32 17 3 17 C3 18.65 3 20.3 3 22 C2.01 22 1.02 22 0 22 C0 14.74 0 7.48 0 0 Z " fill="#001E69" transform="translate(356,101)"/>
<path d="M0 0 C2.5 0.25 2.5 0.25 4.5 2.25 C4.8125 4.75 4.8125 4.75 4.5 7.25 C1.5 9.25 1.5 9.25 -1.1875 8.875 C-1.950625 8.66875 -2.71375 8.4625 -3.5 8.25 C-4.125 5.375 -4.125 5.375 -4.5 2.25 C-2.5 0.25 -2.5 0.25 0 0 Z " fill="#E2634E" transform="translate(99.5,126.75)"/>
<path d="M0 0 C4.95 0 9.9 0 15 0 C15 1.32 15 2.64 15 4 C11.37 4 7.74 4 4 4 C4 5.65 4 7.3 4 9 C3.01 9 2.02 9 1 9 C0.67 6.03 0.34 3.06 0 0 Z " fill="#254B7F" transform="translate(216,57)"/>
<path d="M0 0 C2.33944736 0.28730055 4.6739143 0.61936779 7 1 C7.125 3.875 7.125 3.875 7 7 C6.34 7.66 5.68 8.32 5 9 C1.70285207 8.67028521 0.3773161 8.3773161 -2 6 C-1.44444444 1.44444444 -1.44444444 1.44444444 0 0 Z " fill="#304F89" transform="translate(141,52)"/>
<path d="M0 0 C4.55555556 0.55555556 4.55555556 0.55555556 6 2 C6.04080783 3.99958364 6.04254356 6.00045254 6 8 C3.69 8.33 1.38 8.66 -1 9 C-3 6 -3 6 -2.75 3.9375 C-2 2 -2 2 0 0 Z " fill="#6573AC" transform="translate(142,75)"/>
<path d="M0 0 C3.53571429 0.53571429 3.53571429 0.53571429 5 2 C5.1875 5.4375 5.1875 5.4375 5 9 C4.34 9.66 3.68 10.32 3 11 C-0.53571429 10.46428571 -0.53571429 10.46428571 -2 9 C-2.1875 5.5625 -2.1875 5.5625 -2 2 C-1.34 1.34 -0.68 0.68 0 0 Z " fill="#F3F4F6" transform="translate(333,66)"/>
<path d="M0 0 C1.32 0 2.64 0 4 0 C4 5.28 4 10.56 4 16 C2.68 16 1.36 16 0 16 C0 10.72 0 5.44 0 0 Z " fill="#01296D" transform="translate(347,101)"/>
<path d="M0 0 C1.32 0 2.64 0 4 0 C4 5.28 4 10.56 4 16 C2.68 16 1.36 16 0 16 C0 10.72 0 5.44 0 0 Z " fill="#193E79" transform="translate(319,63)"/>
<path d="M0 0 C2.625 0.375 2.625 0.375 5 1 C5.09765625 7.15234375 5.09765625 7.15234375 5 9 C4 10 4 10 1.5 10.125 C-1 10 -1 10 -2 9 C-2.1875 5.5625 -2.1875 5.5625 -2 2 C-1.34 1.34 -0.68 0.68 0 0 Z " fill="#F7F8F9" transform="translate(240,66)"/>
<path d="M0 0 C1.32 0 2.64 0 4 0 C4 5.28 4 10.56 4 16 C2.68 16 1.36 16 0 16 C0 10.72 0 5.44 0 0 Z " fill="#093273" transform="translate(252,26)"/>
<path d="M0 0 C1.2065625 0.0309375 1.2065625 0.0309375 2.4375 0.0625 C3.81875018 2.82500036 3.62829306 5.00981099 3.4375 8.0625 C2.7775 8.7225 2.1175 9.3825 1.4375 10.0625 C-1.1875 9.6875 -1.1875 9.6875 -3.5625 9.0625 C-3.66015625 2.91015625 -3.66015625 2.91015625 -3.5625 1.0625 C-2.5625 0.0625 -2.5625 0.0625 0 0 Z " fill="#F8F9FA" transform="translate(363.5625,103.9375)"/>
<path d="M0 0 C0.33 0 0.66 0 1 0 C1.33 4.62 1.66 9.24 2 14 C-0.90130187 13.27467453 -3.48132518 12.49882535 -6.25 11.4375 C-6.95640625 11.16808594 -7.6628125 10.89867188 -8.390625 10.62109375 C-8.92171875 10.41613281 -9.4528125 10.21117188 -10 10 C-9.34 8.68 -8.68 7.36 -8 6 C-5.625 5.875 -5.625 5.875 -3 6 C-2.34 6.66 -1.68 7.32 -1 8 C-0.67 5.36 -0.34 2.72 0 0 Z " fill="#294B81" transform="translate(301,66)"/>
<path d="M0 0 C2.5 0.125 2.5 0.125 3.5 1.125 C3.6875 4.5625 3.6875 4.5625 3.5 8.125 C2.84 8.785 2.18 9.445 1.5 10.125 C-2.03571429 9.58928571 -2.03571429 9.58928571 -3.5 8.125 C-3.625 4.625 -3.625 4.625 -3.5 1.125 C-2.5 0.125 -2.5 0.125 0 0 Z " fill="#F8F8FA" transform="translate(276.5,103.875)"/>
<path d="M0 0 C2.0625 1.75 2.0625 1.75 4 4 C3.67 5.32 3.34 6.64 3 8 C0.03 8 -2.94 8 -6 8 C-6.33 6.68 -6.66 5.36 -7 4 C-2.25 1.125 -2.25 1.125 0 0 Z " fill="#244A7F" transform="translate(323,26)"/>
<path d="M0 0 C6.38197767 0.48165869 6.38197767 0.48165869 8.9375 2.625 C10.37148358 5.83037505 10.20006114 8.53227365 10 12 C8.35 12.33 6.7 12.66 5 13 C5 10.36 5 7.72 5 5 C3.68 4.67 2.36 4.34 1 4 C0.67 2.68 0.34 1.36 0 0 Z " fill="#0C3674" transform="translate(274,100)"/>
<path d="M0 0 C1.32 0.33 2.64 0.66 4 1 C4 5.62 4 10.24 4 15 C2.68 15 1.36 15 0 15 C0 10.05 0 5.1 0 0 Z " fill="#1D417B" transform="translate(338,102)"/>
<path d="M0 0 C1.875 1.3125 1.875 1.3125 3 3 C3 3.99 3 4.98 3 6 C0.33333333 5.33333333 -2.33333333 4.66666667 -5 4 C-5.99 6.64 -6.98 9.28 -8 12 C-8.33 12 -8.66 12 -9 12 C-9.58058538 8.989791 -10.0272253 6.07101336 -10 3 C-7.32876934 -0.52602447 -4.21276853 -0.53780024 0 0 Z " fill="#053070" transform="translate(282,63)"/>
<path d="M0 0 C3 0.125 3 0.125 4 1.125 C4.04080783 3.12458364 4.04254356 5.12545254 4 7.125 C1.125 7.75 1.125 7.75 -2 8.125 C-4 6.125 -4 6.125 -4.1875 3.5625 C-3.91067812 -0.03618446 -3.67800108 0.15325004 0 0 Z " fill="#92548F" transform="translate(139,86.875)"/>
<path d="M0 0 C3.125 0.375 3.125 0.375 6 1 C6.04254356 2.99954746 6.04080783 5.00041636 6 7 C5 8 5 8 1.9375 8.0625 C0.968125 8.041875 -0.00125 8.02125 -1 8 C-1.625 5.125 -1.625 5.125 -2 2 C-1.34 1.34 -0.68 0.68 0 0 Z " fill="#F57F21" transform="translate(81,125)"/>
<path d="M0 0 C3.125 0.375 3.125 0.375 6 1 C6.04254356 2.99954746 6.04080783 5.00041636 6 7 C5 8 5 8 1.9375 8.0625 C0.968125 8.041875 -0.00125 8.02125 -1 8 C-1.625 5.125 -1.625 5.125 -2 2 C-1.34 1.34 -0.68 0.68 0 0 Z " fill="#0B3273" transform="translate(137,41)"/>
<path d="M0 0 C3 0.125 3 0.125 4 1.125 C4.1875 3.5625 4.1875 3.5625 4 6.125 C3.34 6.785 2.68 7.445 2 8.125 C-2.55555556 7.56944444 -2.55555556 7.56944444 -4 6.125 C-4.125 3.625 -4.125 3.625 -4 1.125 C-3 0.125 -3 0.125 0 0 Z " fill="#23A69E" transform="translate(83,2.875)"/>
<path d="M0 0 C0.66 0.33 1.32 0.66 2 1 C2 5.62 2 10.24 2 15 C0.68 15 -0.64 15 -2 15 C-2 11.04 -2 7.08 -2 3 C-1.34 3 -0.68 3 0 3 C0 2.01 0 1.02 0 0 Z " fill="#1C3F7A" transform="translate(358,65)"/>
<path d="M0 0 C2.625 0.375 2.625 0.375 5 1 C5.625 3.375 5.625 3.375 6 6 C5.34 6.66 4.68 7.32 4 8 C1.375 7.625 1.375 7.625 -1 7 C-1.625 4.625 -1.625 4.625 -2 2 C-1.34 1.34 -0.68 0.68 0 0 Z " fill="#B40A6B" transform="translate(130,96)"/>
<path d="M0 0 C2.625 0.375 2.625 0.375 5 1 C5.625 3.375 5.625 3.375 6 6 C5.34 6.66 4.68 7.32 4 8 C1.375 7.625 1.375 7.625 -1 7 C-1.625 4.625 -1.625 4.625 -2 2 C-1.34 1.34 -0.68 0.68 0 0 Z " fill="#1A4885" transform="translate(130,32)"/>
<path d="M0 0 C2.625 0.375 2.625 0.375 5 1 C5.625 2.8125 5.625 2.8125 6 5 C5.01 6.485 5.01 6.485 4 8 C2.35 7.67 0.7 7.34 -1 7 C-1.625 4.625 -1.625 4.625 -2 2 C-1.34 1.34 -0.68 0.68 0 0 Z " fill="#F5912B" transform="translate(66,119)"/>
<path d="M0 0 C2.625 0.375 2.625 0.375 5 1 C5.625 3.375 5.625 3.375 6 6 C5.34 6.66 4.68 7.32 4 8 C0.875 7.625 0.875 7.625 -2 7 C-2.125 4.625 -2.125 4.625 -2 2 C-1.34 1.34 -0.68 0.68 0 0 Z " fill="#12B27B" transform="translate(66,9)"/>
<path d="M0 0 C1.9747983 0.26330644 3.94941135 0.52833363 5.921875 0.80859375 C8.4415988 1.04067357 10.57210377 0.68284581 13 0 C11.125 3.875 11.125 3.875 10 5 C4.74229075 5.42400881 4.74229075 5.42400881 2 5 C0 3 0 3 -1 1 C-0.67 0.67 -0.34 0.34 0 0 Z " fill="#163D78" transform="translate(314,37)"/>
<path d="M0 0 C1.35439668 2.70879335 1.06501451 5.00933268 1 8 C-2.3 8 -5.6 8 -9 8 C-9 7.34 -9 6.68 -9 6 C-6.69 6 -4.38 6 -2 6 C-3.36983503 2.83884224 -3.9890638 2.0072908 -7 0 C-4.30234372 -1.34882814 -2.84835666 -0.80338265 0 0 Z " fill="#00286D" transform="translate(273,27)"/>
<path d="M0 0 C1.2065625 0.0309375 1.2065625 0.0309375 2.4375 0.0625 C3.5625 4.8125 3.5625 4.8125 2.4375 7.0625 C0.77138095 7.105221 -0.89632885 7.10313832 -2.5625 7.0625 C-3.5625 6.0625 -3.5625 6.0625 -3.6875 3.5625 C-3.51717518 0.15600356 -3.41884482 0.08338646 0 0 Z " fill="#B50F6D" transform="translate(122.5625,103.9375)"/>
<path d="M0 0 C0.391875 0.474375 0.78375 0.94875 1.1875 1.4375 C3.40808374 3.35179633 5.13375709 3.61266988 8 4 C8 3.34 8 2.68 8 2 C9.32 2 10.64 2 12 2 C10.125 5.875 10.125 5.875 9 7 C5.625 7.3125 5.625 7.3125 2 7 C0 5.1875 0 5.1875 -1 3 C-0.67 2.01 -0.34 1.02 0 0 Z " fill="#133976" transform="translate(262,35)"/>
<path d="M0 0 C1.0725 0.165 2.145 0.33 3.25 0.5 C6.63617619 0.95149016 8.75681674 0.88450453 12 0 C10.125 3.875 10.125 3.875 9 5 C5.625 5.3125 5.625 5.3125 2 5 C0.0625 3 0.0625 3 -1 1 C-0.67 0.67 -0.34 0.34 0 0 Z " fill="#062D6F" transform="translate(235,112)"/>
<path d="M0 0 C2.625 0.375 2.625 0.375 5 1 C5.042721 2.66611905 5.04063832 4.33382885 5 6 C4 7 4 7 1.4375 7.0625 C0.2309375 7.0315625 0.2309375 7.0315625 -1 7 C-1.625 4.625 -1.625 4.625 -2 2 C-1.34 1.34 -0.68 0.68 0 0 Z " fill="#F48F24" transform="translate(53,109)"/>
<path d="M0 0 C3.40312738 1.05875074 6.01353231 2.00902154 9 4 C9 4.66 9 5.32 9 6 C6.69 6.33 4.38 6.66 2 7 C0.4375 5.1875 0.4375 5.1875 -1 3 C-0.67 2.01 -0.34 1.02 0 0 Z " fill="#9C528C" transform="translate(150,99)"/>
<path d="M0 0 C3 0.1875 3 0.1875 5 1.1875 C5 1.8475 5 2.5075 5 3.1875 C3.54293274 3.69117757 2.08429904 4.19032556 0.625 4.6875 C-0.59316406 5.10515625 -0.59316406 5.10515625 -1.8359375 5.53125 C-4 6.1875 -4 6.1875 -6 6.1875 C-5.18094338 2.09221692 -4.51352241 0.28209515 0 0 Z " fill="#1A3F7D" transform="translate(161,44.8125)"/>
<path d="M0 0 C0.38218767 1.65614657 0.71395102 3.32457024 1 5 C0 6 0 6 -2.5 6.125 C-5 6 -5 6 -6 5 C-6.04063832 3.33382885 -6.042721 1.66611905 -6 0 C-3.50907189 -1.24546405 -2.58919267 -0.7767578 0 0 Z " fill="#2C70B0" transform="translate(125,26)"/>
<path d="M0 0 C1.66611905 -0.042721 3.33382885 -0.04063832 5 0 C6 1 6 1 6.0625 3.5625 C6.041875 4.366875 6.02125 5.17125 6 6 C3.625 6.625 3.625 6.625 1 7 C0.34 6.34 -0.32 5.68 -1 5 C-0.625 2.375 -0.625 2.375 0 0 Z " fill="#17B26E" transform="translate(52,20)"/>
<path d="M0 0 C2 3.75 2 3.75 2 6 C4.475 6.99 4.475 6.99 7 8 C6.67 8.66 6.34 9.32 6 10 C3.69 9.67 1.38 9.34 -1 9 C-1.625 5.625 -1.625 5.625 -2 2 C-1.34 1.34 -0.68 0.68 0 0 Z " fill="#1A3E79" transform="translate(290,70)"/>
<path d="M0 0 C0.99 0 1.98 0 3 0 C3 5.28 3 10.56 3 16 C2.01 16 1.02 16 0 16 C0.33 14.35 0.66 12.7 1 11 C0.67 11 0.34 11 0 11 C0 7.37 0 3.74 0 0 Z " fill="#042E70" transform="translate(264,63)"/>
<path d="M0 0 C2.42382831 3.68062818 1.97775695 6.20864582 1.6875 10.5625 C1.3575 9.9025 1.0275 9.2425 0.6875 8.5625 C0.0275 8.5625 -0.6325 8.5625 -1.3125 8.5625 C-1.456875 7.77875 -1.60125 6.995 -1.75 6.1875 C-2.19048925 3.59828982 -2.19048925 3.59828982 -3.3125 1.5625 C-4.6325 1.5625 -5.9525 1.5625 -7.3125 1.5625 C-7.3125 0.9025 -7.3125 0.2425 -7.3125 -0.4375 C-4.133877 -1.497041 -2.90871574 -1.8081206 0 0 Z " fill="#1E467E" transform="translate(369.3125,102.4375)"/>
<path d="M0 0 C1.0725 0.2475 2.145 0.495 3.25 0.75 C3.91 2.4 4.57 4.05 5.25 5.75 C3.93 5.75 2.61 5.75 1.25 5.75 C1.25 5.09 1.25 4.43 1.25 3.75 C-0.07 3.75 -1.39 3.75 -2.75 3.75 C-2.75 3.09 -2.75 2.43 -2.75 1.75 C-4.4 2.41 -6.05 3.07 -7.75 3.75 C-5.15187156 0.32047046 -4.43092205 -0.2953948 0 0 Z " fill="#26467F" transform="translate(242.75,25.25)"/>
<path d="M0 0 C1.67542976 0.28604898 3.34385343 0.61781233 5 1 C5.625 2.875 5.625 2.875 6 5 C5.34 5.66 4.68 6.32 4 7 C1.875 6.625 1.875 6.625 0 6 C-0.38218767 4.34385343 -0.71395102 2.67542976 -1 1 C-0.67 0.67 -0.34 0.34 0 0 Z " fill="#6C7BAF" transform="translate(128,73)"/>
<path d="M0 0 C1.2065625 0.0309375 1.2065625 0.0309375 2.4375 0.0625 C2.81968767 1.71864657 3.15145102 3.38707024 3.4375 5.0625 C2.4375 6.0625 2.4375 6.0625 -0.125 6.125 C-1.3315625 6.0940625 -1.3315625 6.0940625 -2.5625 6.0625 C-2.94468767 4.40635343 -3.27645102 2.73792976 -3.5625 1.0625 C-2.5625 0.0625 -2.5625 0.0625 0 0 Z " fill="#465C97" transform="translate(131.5625,64.9375)"/>
<path d="M0 0 C2.125 0.375 2.125 0.375 4 1 C4.625 2.875 4.625 2.875 5 5 C4.34 5.66 3.68 6.32 3 7 C0.875 6.625 0.875 6.625 -1 6 C-1.625 4.125 -1.625 4.125 -2 2 C-1.34 1.34 -0.68 0.68 0 0 Z " fill="#F5922F" transform="translate(43,96)"/>
<path d="M0 0 C2.125 0.375 2.125 0.375 4 1 C4.625 2.875 4.625 2.875 5 5 C4.34 5.66 3.68 6.32 3 7 C0.875 6.625 0.875 6.625 -1 6 C-1.625 4.125 -1.625 4.125 -2 2 C-1.34 1.34 -0.68 0.68 0 0 Z " fill="#70C263" transform="translate(43,33)"/>
<path d="M0 0 C5.625 -0.25 5.625 -0.25 9 2 C8.67 3.98 8.34 5.96 8 8 C7.46375 7.360625 6.9275 6.72125 6.375 6.0625 C3.55632807 3.61470596 1.66139268 3.33285388 -2 3 C-1.34 2.67 -0.68 2.34 0 2 C0 1.34 0 0.68 0 0 Z " fill="#012D6F" transform="translate(221,29)"/>
<path d="M0 0 C1.2065625 0.0309375 1.2065625 0.0309375 2.4375 0.0625 C3.5625 3.8125 3.5625 3.8125 2.4375 6.0625 C0.7875 6.0625 -0.8625 6.0625 -2.5625 6.0625 C-2.94468767 4.40635343 -3.27645102 2.73792976 -3.5625 1.0625 C-2.5625 0.0625 -2.5625 0.0625 0 0 Z " fill="#D7545D" transform="translate(111.5625,108.9375)"/>
<path d="M0 0 C1.65 0 3.3 0 5 0 C5.625 1.875 5.625 1.875 6 4 C5.34 4.66 4.68 5.32 4 6 C1.375 5.625 1.375 5.625 -1 5 C-0.67 3.35 -0.34 1.7 0 0 Z " fill="#284A84" transform="translate(128,57)"/>
<path d="M0 0 C2.00720923 0.28674418 4.0085944 0.61866701 6 1 C5.67 2.65 5.34 4.3 5 6 C3.35 6 1.7 6 0 6 C-0.38218767 4.34385343 -0.71395102 2.67542976 -1 1 C-0.67 0.67 -0.34 0.34 0 0 Z " fill="#4E91CC" transform="translate(109,21)"/>
<path d="M0 0 C0.33 0 0.66 0 1 0 C1 1.98 1 3.96 1 6 C1.66 6 2.32 6 3 6 C2.625 8.4375 2.625 8.4375 2 11 C-0.70879335 12.35439668 -3.00933268 12.06501451 -6 12 C-5.195625 11.319375 -4.39125 10.63875 -3.5625 9.9375 C-0.57711289 6.51522698 -0.26218749 4.4571874 0 0 Z " fill="#093071" transform="translate(367,105)"/>
<path d="M0 0 C0 0.33 0 0.66 0 1 C-1.65 1 -3.3 1 -5 1 C-5.99 3.97 -6.98 6.94 -8 10 C-8.66 10 -9.32 10 -10 10 C-10 7.03 -10 4.06 -10 1 C-6.41220825 0.10305206 -3.65381163 -0.08304117 0 0 Z " fill="#033171" transform="translate(367,101)"/>
<path d="M0 0 C2.05078125 0.03255208 4.1015625 0.06510417 6.15234375 0.09765625 C6.81234375 1.41765625 7.47234375 2.73765625 8.15234375 4.09765625 C6.89421875 3.87078125 5.63609375 3.64390625 4.33984375 3.41015625 C1.01095666 2.89572428 1.01095666 2.89572428 -1.84765625 4.53515625 C-2.17765625 5.05078125 -2.50765625 5.56640625 -2.84765625 6.09765625 C-2.89037725 4.4315372 -2.88829457 2.7638274 -2.84765625 1.09765625 C-1.84765625 0.09765625 -1.84765625 0.09765625 0 0 Z " fill="#032C6F" transform="translate(315.84765625,100.90234375)"/>
<path d="M0 0 C4.55384615 -0.36923077 4.55384615 -0.36923077 6.8125 1.5 C7.204375 1.995 7.59625 2.49 8 3 C7.34 4.32 6.68 5.64 6 7 C3 5.1875 3 5.1875 0 3 C0 2.01 0 1.02 0 0 Z " fill="#B73980" transform="translate(142,107)"/>
<path d="M0 0 C1.65 0.33 3.3 0.66 5 1 C4.67 2.65 4.34 4.3 4 6 C2.35 5.67 0.7 5.34 -1 5 C-0.67 3.35 -0.34 1.7 0 0 Z " fill="#89C651" transform="translate(36,48)"/>
<path d="M0 0 C1.65 0 3.3 0 5 0 C5.625 1.875 5.625 1.875 6 4 C5.34 4.66 4.68 5.32 4 6 C1.875 5.625 1.875 5.625 0 5 C0 3.35 0 1.7 0 0 Z " fill="#E36E5B" transform="translate(97,111)"/>
<path d="M0 0 C0.4125 0.556875 0.825 1.11375 1.25 1.6875 C3.12256399 4.16195956 5.05339344 6.5835229 7 9 C2.55063291 9.36075949 2.55063291 9.36075949 0.1875 7.8125 C-1.38243085 5.41628976 -1.29573841 3.80951486 -1 1 C-0.67 0.67 -0.34 0.34 0 0 Z " fill="#C32B6F" transform="translate(127,119)"/>
<path d="M0 0 C2.625 0.25 2.625 0.25 4.4375 1.5625 C5.625 3.25 5.625 3.25 5.625 6.25 C1.84954612 5.15931332 -0.84543472 4.3416909 -3.375 1.25 C-2.375 0.25 -2.375 0.25 0 0 Z " fill="#87669E" transform="translate(155.375,93.75)"/>
<path d="M0 0 C1.67542976 0.28604898 3.34385343 0.61781233 5 1 C4.67 2.65 4.34 4.3 4 6 C2.68 5.67 1.36 5.34 0 5 C-0.5625 3.0625 -0.5625 3.0625 -1 1 C-0.67 0.67 -0.34 0.34 0 0 Z " fill="#905C95" transform="translate(125,81)"/>
<path d="M0 0 C2.33944736 0.28730055 4.6739143 0.61936779 7 1 C6.67 1.99 6.34 2.98 6 4 C3.36 4.33 0.72 4.66 -2 5 C-1.125 1.125 -1.125 1.125 0 0 Z " fill="#1E437F" transform="translate(141,52)"/>
<path d="M0 0 C2.0625 0.4375 2.0625 0.4375 4 1 C3.67 2.65 3.34 4.3 3 6 C1.35 5.67 -0.3 5.34 -2 5 C-1.125 1.125 -1.125 1.125 0 0 Z " fill="#0F3575" transform="translate(126,49)"/>
<path d="M0 0 C0.33 1.32 0.66 2.64 1 4 C-0.98 4 -2.96 4 -5 4 C-5 3.34 -5 2.68 -5 2 C-6.32 1.67 -7.64 1.34 -9 1 C-5.8035914 -0.06546953 -3.34252724 -0.07427838 0 0 Z " fill="#EBEDF1" transform="translate(320,110)"/>
<path d="M0 0 C2.97 0.33 5.94 0.66 9 1 C9 1.66 9 2.32 9 3 C5.88228073 4.60339848 4.60988311 5.18974141 1.1875 4.125 C0.465625 3.75375 -0.25625 3.3825 -1 3 C-0.67 2.01 -0.34 1.02 0 0 Z " fill="#D6DBE3" transform="translate(316,103)"/>
<path d="M0 0 C3.875 0.875 3.875 0.875 5 2 C5.04080783 3.99958364 5.04254356 6.00045254 5 8 C3.68 8 2.36 8 1 8 C1.020625 7.236875 1.04125 6.47375 1.0625 5.6875 C1.12942841 2.89814214 1.12942841 2.89814214 0 0 Z " fill="#032E6F" transform="translate(242,102)"/>
<path d="M0 0 C1.2065625 0.0309375 1.2065625 0.0309375 2.4375 0.0625 C2.1075 1.3825 1.7775 2.7025 1.4375 4.0625 C-0.2125 4.3925 -1.8625 4.7225 -3.5625 5.0625 C-3.5625 0.08689024 -3.5625 0.08689024 0 0 Z " fill="#DBDFE7" transform="translate(295.5625,71.9375)"/>
<path d="M0 0 C1.65 0 3.3 0 5 0 C5.5625 1.9375 5.5625 1.9375 6 4 C5 5 5 5 2.4375 5.0625 C1.2309375 5.0315625 1.2309375 5.0315625 0 5 C0 3.35 0 1.7 0 0 Z " fill="#44A0B9" transform="translate(97,20)"/>
<path d="M0 0 C1.32 0 2.64 0 4 0 C4.66 0.99 5.32 1.98 6 3 C8.56282742 3.72965366 8.56282742 3.72965366 11 4 C11 4.33 11 4.66 11 5 C8.36 5.33 5.72 5.66 3 6 C0 2.25 0 2.25 0 0 Z " fill="#032B6F" transform="translate(214,35)"/>
<path d="M0 0 C4.75 0.75 4.75 0.75 7 3 C7 3.99 7 4.98 7 6 C5.68 6 4.36 6 3 6 C0 2.78571429 0 2.78571429 0 0 Z " fill="#0A3071" transform="translate(224,20)"/>
<path d="M0 0 C1.65 0.33 3.3 0.66 5 1 C4.67 2.32 4.34 3.64 4 5 C2.35 4.67 0.7 4.34 -1 4 C-0.67 2.68 -0.34 1.36 0 0 Z " fill="#BA2F7B" transform="translate(120,88)"/>
<path d="M0 0 C-0.99 0.33 -1.98 0.66 -3 1 C-3.73323796 3.01508358 -3.73323796 3.01508358 -4 5 C-5.65 5.33 -7.3 5.66 -9 6 C-7.01260984 0.46369883 -5.82303895 -0.15323787 0 0 Z " fill="#1A3F7A" transform="translate(243,63)"/>
<path d="M0 0 C1.65 0.33 3.3 0.66 5 1 C4.67 2.32 4.34 3.64 4 5 C2.35 4.67 0.7 4.34 -1 4 C-0.67 2.68 -0.34 1.36 0 0 Z " fill="#2E5288" transform="translate(120,43)"/>
<path d="M0 0 C0.99 0.33 1.98 0.66 3 1 C1.02 3.31 -0.96 5.62 -3 8 C-4.32 7.67 -5.64 7.34 -7 7 C-7 6.34 -7 5.68 -7 5 C-6.030625 4.54625 -5.06125 4.0925 -4.0625 3.625 C-0.92920418 2.34213779 -0.92920418 2.34213779 0 0 Z " fill="#284F8A" transform="translate(146,19)"/>
<path d="M0 0 C2.0625 0.4375 2.0625 0.4375 4 1 C3.67 2.65 3.34 4.3 3 6 C2.01 6 1.02 6 0 6 C-0.38218767 4.34385343 -0.71395102 2.67542976 -1 1 C-0.67 0.67 -0.34 0.34 0 0 Z " fill="#F68930" transform="translate(86,109)"/>
<path d="M0 0 C1.65 0.33 3.3 0.66 5 1 C5.33 1.99 5.66 2.98 6 4 C3.36 4 0.72 4 -2 4 C-1.34 2.68 -0.68 1.36 0 0 Z " fill="#DFE3E9" transform="translate(238,103)"/>
<path d="M0 0 C-0.66 3.63 -1.32 7.26 -2 11 C-2.33 11 -2.66 11 -3 11 C-3.144375 10.2575 -3.28875 9.515 -3.4375 8.75 C-3.90187492 6.47972261 -4.41863569 4.24240521 -5 2 C-2 0 -2 0 0 0 Z " fill="#092F71" transform="translate(275,101)"/>
<path d="M0 0 C1.65 0 3.3 0 5 0 C5.33 1.65 5.66 3.3 6 5 C3.69 4.67 1.38 4.34 -1 4 C-0.67 2.68 -0.34 1.36 0 0 Z " fill="#083271" transform="translate(352,63)"/>
<path d="M0 0 C0.66 0.33 1.32 0.66 2 1 C1.67 2.65 1.34 4.3 1 6 C-0.65 6.33 -2.3 6.66 -4 7 C-4.33 6.34 -4.66 5.68 -5 5 C-3.35 3.35 -1.7 1.7 0 0 Z " fill="#2B4F85" transform="translate(134,33)"/>
<path d="M0 0 C1.98 0.495 1.98 0.495 4 1 C3.67 2.65 3.34 4.3 3 6 C1.68 5.67 0.36 5.34 -1 5 C-0.67 3.35 -0.34 1.7 0 0 Z " fill="#2EABA0" transform="translate(86,21)"/>
<path d="M0 0 C-0.33 1.32 -0.66 2.64 -1 4 C-2.65 4.33 -4.3 4.66 -6 5 C-6.33 3.68 -6.66 2.36 -7 1 C-4.53721199 -0.231394 -2.7204945 -0.07159196 0 0 Z " fill="#264B81" transform="translate(225,19)"/>
<path d="M0 0 C0.99 0.33 1.98 0.66 3 1 C3 2.98 3 4.96 3 7 C3.66 7.33 4.32 7.66 5 8 C3.0625 8.5625 3.0625 8.5625 1 9 C0 8 0 8 -0.09765625 6.15234375 C-0.06510417 4.1015625 -0.03255208 2.05078125 0 0 Z " fill="#17417A" transform="translate(269,105)"/>
<path d="M0 0 C1.65 0 3.3 0 5 0 C5 1.32 5 2.64 5 4 C3.02 4 1.04 4 -1 4 C-0.67 2.68 -0.34 1.36 0 0 Z " fill="#E2E5EB" transform="translate(293,66)"/>
<path d="M0 0 C2.475 0.495 2.475 0.495 5 1 C5.33 2.65 5.66 4.3 6 6 C3.37812506 4.95125002 2.20628639 4.35068687 0.75 1.875 C0.5025 1.25625 0.255 0.6375 0 0 Z " fill="#BA4183" transform="translate(130,96)"/>
<path d="M0 0 C-0.33 2.31 -0.66 4.62 -1 7 C-1.99 7 -2.98 7 -4 7 C-4 5.02 -4 3.04 -4 1 C-2 0 -2 0 0 0 Z " fill="#083472" transform="translate(238,68)"/>
<path d="M0 0 C2.1875 1.25 2.1875 1.25 4 3 C4 3.99 4 4.98 4 6 C2.0625 5.6875 2.0625 5.6875 0 5 C-0.33 4.01 -0.66 3.02 -1 2 C-1.66 1.67 -2.32 1.34 -3 1 C-2.01 0.67 -1.02 0.34 0 0 Z " fill="#123B77" transform="translate(281,63)"/>
<path d="M0 0 C1.9375 0.3125 1.9375 0.3125 4 1 C4.33 1.99 4.66 2.98 5 4 C2.69 4 0.38 4 -2 4 C-1.34 2.68 -0.68 1.36 0 0 Z " fill="#EAECF1" transform="translate(266,28)"/>
<path d="M0 0 C3.375 -0.125 3.375 -0.125 7 0 C9 2 9 2 9 5 C8.01 5 7.02 5 6 5 C6 4.01 6 3.02 6 2 C3.03 1.505 3.03 1.505 0 1 C0 0.67 0 0.34 0 0 Z " fill="#022A6E" transform="translate(300,26)"/>
<path d="M0 0 C1.98 0.495 1.98 0.495 4 1 C3.67 2.32 3.34 3.64 3 5 C1.68 4.67 0.36 4.34 -1 4 C-0.67 2.68 -0.34 1.36 0 0 Z " fill="#BA2272" transform="translate(114,93)"/>
<path d="M0 0 C0.78375 0.04125 1.5675 0.0825 2.375 0.125 C2.045 1.445 1.715 2.765 1.375 4.125 C-0.275 4.125 -1.925 4.125 -3.625 4.125 C-3.955 3.465 -4.285 2.805 -4.625 2.125 C-2.625 0.125 -2.625 0.125 0 0 Z " fill="#2E5184" transform="translate(313.625,75.875)"/>
<path d="M0 0 C1.98 0 3.96 0 6 0 C6 0.99 6 1.98 6 3 C4.02 3.33 2.04 3.66 0 4 C0 2.68 0 1.36 0 0 Z " fill="#113C77" transform="translate(309,63)"/>
<path d="M0 0 C1.98 0.495 1.98 0.495 4 1 C3.67 2.32 3.34 3.64 3 5 C1.68 4.67 0.36 4.34 -1 4 C-0.67 2.68 -0.34 1.36 0 0 Z " fill="#3A78B5" transform="translate(114,38)"/>
<path d="M0 0 C1.37562854 1.28965176 2.70766393 2.62689293 4 4 C4 4.66 4 5.32 4 6 C5.32 6.33 6.64 6.66 8 7 C5.1875 7.25 5.1875 7.25 2 7 C0.0625 5.1875 0.0625 5.1875 -1 3 C-0.67 2.01 -0.34 1.02 0 0 Z " fill="#042A6E" transform="translate(262,35)"/>
<path d="M0 0 C1.98 0.495 1.98 0.495 4 1 C3.67 2.32 3.34 3.64 3 5 C1.68 4.67 0.36 4.34 -1 4 C-0.67 2.68 -0.34 1.36 0 0 Z " fill="#26B683" transform="translate(75,26)"/>
<path d="M0 0 C1.32 0 2.64 0 4 0 C3.34 1.32 2.68 2.64 2 4 C0.68 4 -0.64 4 -2 4 C-1.34 2.68 -0.68 1.36 0 0 Z " fill="#153877" transform="translate(243,112)"/>
<path d="M0 0 C0.66 0.99 1.32 1.98 2 3 C2.99387334 4.33790641 3.9926892 5.67218122 5 7 C3.33388095 7.042721 1.66617115 7.04063832 0 7 C-1 6 -1 6 -1.125 3.5 C-1 1 -1 1 0 0 Z " fill="#C43171" transform="translate(120,104)"/>
<path d="M0 0 C1.98 0.495 1.98 0.495 4 1 C3.67 2.32 3.34 3.64 3 5 C1.68 4.67 0.36 4.34 -1 4 C-0.67 2.68 -0.34 1.36 0 0 Z " fill="#F5942F" transform="translate(75,105)"/>
<path d="M0 0 C2.125 0.9375 2.125 0.9375 4 2 C0.375 5 0.375 5 -3 5 C-2.625 3.0625 -2.625 3.0625 -2 1 C-1.34 0.67 -0.68 0.34 0 0 Z " fill="#133574" transform="translate(292,63)"/>
<path d="M0 0 C0.99 0 1.98 0 3 0 C3 2.31 3 4.62 3 7 C2.01 7.495 2.01 7.495 1 8 C-0.35439668 5.29120665 -0.06501451 2.99066732 0 0 Z " fill="#19437B" transform="translate(234,30)"/>
<path d="M0 0 C1.9375 0.3125 1.9375 0.3125 4 1 C4.33 1.99 4.66 2.98 5 4 C3.02 4 1.04 4 -1 4 C-0.67 2.68 -0.34 1.36 0 0 Z " fill="#EBEDF1" transform="translate(318,28)"/>
<path d="M0 0 C1.74627478 2.61941217 2.38722388 4.03824877 3 7 C1.68 6.67 0.36 6.34 -1 6 C-1.625 4.125 -1.625 4.125 -2 2 C-1.34 1.34 -0.68 0.68 0 0 Z " fill="#13A694" transform="translate(81,4)"/>
<path d="M0 0 C0.99 0.33 1.98 0.66 3 1 C3.33 2.98 3.66 4.96 4 7 C2.68 6.67 1.36 6.34 0 6 C0 4.02 0 2.04 0 0 Z " fill="#012C6E" transform="translate(296,31)"/>
<path d="M0 0 C2.625 0.375 2.625 0.375 5 1 C5.33 1.99 5.66 2.98 6 4 C5.01 4.495 5.01 4.495 4 5 C1.96855359 4.06553465 -0.03533587 3.06775224 -2 2 C-1.34 1.34 -0.68 0.68 0 0 Z " fill="#093172" transform="translate(268,26)"/>
<path d="M0 0 C1.98 0 3.96 0 6 0 C6.33 0.66 6.66 1.32 7 2 C6.34 2.66 5.68 3.32 5 4 C3.02 3.34 1.04 2.68 -1 2 C-0.67 1.34 -0.34 0.68 0 0 Z " fill="#89669E" transform="translate(136,87)"/>
<path d="M0 0 C0.66 1.32 1.32 2.64 2 4 C1.02149805 5.02104551 0.02019573 6.0206121 -1 7 C-1.33 7 -1.66 7 -2 7 C-2.125 4.625 -2.125 4.625 -2 2 C-1.34 1.34 -0.68 0.68 0 0 Z " fill="#0E3674" transform="translate(290,70)"/>
<path d="M0 0 C1.32 0 2.64 0 4 0 C2.25 3.875 2.25 3.875 0 5 C-0.66 4.34 -1.32 3.68 -2 3 C-1.34 2.01 -0.68 1.02 0 0 Z " fill="#254A80" transform="translate(323,37)"/>
<path d="M0 0 C-1.875 3.875 -1.875 3.875 -3 5 C-4.99958364 5.04080783 -7.00045254 5.04254356 -9 5 C-9 4.67 -9 4.34 -9 4 C-7.35 4 -5.7 4 -4 4 C-4 3.01 -4 2.02 -4 1 C-2 0 -2 0 0 0 Z " fill="#05296E" transform="translate(283,112)"/>
<path d="M0 0 C2.31 0.33 4.62 0.66 7 1 C6.01 1.33 5.02 1.66 4 2 C4 2.66 4 3.32 4 4 C3.01 4 2.02 4 1 4 C0.67 2.68 0.34 1.36 0 0 Z " fill="#3C5A8A" transform="translate(274,100)"/>
<path d="M0 0 C0.99 0 1.98 0 3 0 C2.625 1.9375 2.625 1.9375 2 4 C1.01 4.495 1.01 4.495 0 5 C-0.66 4.67 -1.32 4.34 -2 4 C-1.34 2.68 -0.68 1.36 0 0 Z " fill="#0C3273" transform="translate(282,74)"/>
<path d="M0 0 C-0.66 3.3 -1.32 6.6 -2 10 C-2.33 10 -2.66 10 -3 10 C-3.144375 9.05125 -3.28875 8.1025 -3.4375 7.125 C-3.82935399 4.1065506 -3.82935399 4.1065506 -5 2 C-2 0 -2 0 0 0 Z " fill="#01286C" transform="translate(240,27)"/>
<path d="M0 0 C0.66 1.32 1.32 2.64 2 4 C0.68 5.32 -0.64 6.64 -2 8 C-2.125 5.125 -2.125 5.125 -2 2 C-1.34 1.34 -0.68 0.68 0 0 Z " fill="#022C6F" transform="translate(217,21)"/>
</svg>
