<?xml version="1.0" encoding="UTF-8" standalone="no"?>
<svg width="456" height="456" viewBox="0 0 456 456" version="1.1" xmlns="http://www.w3.org/2000/svg">
  <g fill="#FFFFFF">
    <circle cx="228" cy="228" r="150" opacity="0.12"/>
    <path d="M138 228c0-57 43-98 102-98 27 0 50 7 68 21l-20 31c-13-10-29-15-46-15-34 0-60 25-60 61s26 61 60 61c18 0 34-6 47-16l20 30c-19 15-42 23-69 23-59 0-102-41-102-98z"/>
    <rect x="198" y="196" width="126" height="22" rx="11"/>
    <rect x="198" y="238" width="114" height="22" rx="11"/>
    <text x="228" y="356" text-anchor="middle" font-family="Arial, Helvetica, sans-serif" font-weight="700" font-size="42">COEPD</text>
  </g>
</svg>
