<?xml version="1.0" encoding="UTF-8"?>
<svg version="1.1" xmlns="http://www.w3.org/2000/svg" width="355" height="142">
<path d="M0 0 C117.15 0 234.3 0 355 0 C355 46.86 355 93.72 355 142 C237.85 142 120.7 142 0 142 C0 95.14 0 48.28 0 0 Z " fill="#FDFDFE" transform="translate(0,0)"/>
<path d="M0 0 C0.78955078 -0.00773438 1.57910156 -0.01546875 2.39257812 -0.0234375 C3.16150391 -0.02085938 3.93042969 -0.01828125 4.72265625 -0.015625 C5.41238525 -0.01336914 6.10211426 -0.01111328 6.81274414 -0.00878906 C8.9375 0.25 8.9375 0.25 13.9375 2.25 C13.9375 6.21 13.9375 10.17 13.9375 14.25 C11.46354167 12.98046875 8.98958333 11.7109375 6.515625 10.44140625 C1.75534931 8.24158188 -2.82904058 7.67661301 -8.0625 8.25 C-12.25930908 10.02198605 -14.28268442 12.0674334 -16.0625 16.25 C-16.2997327 17.97231622 -16.48892166 19.70164727 -16.640625 21.43359375 C-16.7221582 22.3352124 -16.80369141 23.23683105 -16.88769531 24.16577148 C-16.94538086 24.85356689 -17.00306641 25.5413623 -17.0625 26.25 C-16.375047 26.22858948 -15.68759399 26.20717896 -14.97930908 26.18511963 C-8.44954842 25.98563172 -1.91957519 25.8072459 4.61138535 25.65159988 C7.96785493 25.57088934 11.32334144 25.48016641 14.67919922 25.37548828 C18.55152188 25.25605209 22.42369164 25.16456241 26.296875 25.078125 C28.07417999 25.01434662 28.07417999 25.01434662 29.88739014 24.94927979 C41.28671147 24.7461124 51.50012852 27.28526136 59.9375 35.25 C67.64780218 43.13865437 67.64780218 43.13865437 69.9375 48.25 C70.10765625 47.58613281 70.2778125 46.92226563 70.453125 46.23828125 C72.272745 39.60828285 74.11792141 35.532516 79.5625 31.125 C91.77458314 24.34050937 106.64423399 24.9410119 120.125 27.32421875 C124.61843419 29.61935647 126.17146519 35.94045073 127.9765625 40.40234375 C128.25908875 41.09132248 128.54161499 41.78030121 128.83270264 42.49015808 C129.74646708 44.72106032 130.65453153 46.95423335 131.5625 49.1875 C132.18924571 50.72069174 132.81636345 52.25373145 133.44384766 53.78662109 C134.69330119 56.8407331 135.94051722 59.89574208 137.18554688 62.95166016 C138.73923665 66.7650988 140.29812517 70.57636887 141.859375 74.38671875 C143.88878722 79.33977481 145.91454774 84.29430215 147.9375 89.25 C148.35878174 88.1662207 148.35878174 88.1662207 148.78857422 87.06054688 C151.8939555 79.08355934 155.02528565 71.11718422 158.18066406 63.15985107 C158.90838754 61.32346435 159.63392697 59.48621259 160.359375 57.64892578 C161.66263806 54.36408495 162.9842782 51.08731542 164.3125 47.8125 C164.70421387 46.81992187 165.09592773 45.82734375 165.49951172 44.8046875 C167.62279682 39.62867248 169.52141468 35.88801314 173.9375 32.25 C174.95457031 31.40501953 174.95457031 31.40501953 175.9921875 30.54296875 C184.5340268 24.86556151 196.08868505 25.3268955 205.9375 26.25 C209.23850824 26.959982 211.84258083 27.87448037 214.9375 29.25 C214.9375 33.54 214.9375 37.83 214.9375 42.25 C213.431875 41.30125 211.92625 40.3525 210.375 39.375 C202.77514276 34.86191951 195.75837349 33.18786839 186.9375 34.25 C183.53287841 35.42735577 180.77802485 36.92917523 178.7890625 40.0546875 C177.77802242 42.66113027 177.49628542 44.83152294 177.375 47.625 C177.28025391 48.99785156 177.28025391 48.99785156 177.18359375 50.3984375 C178.35965406 54.84674852 181.18625865 56.76844179 184.9375 59.25 C189.18478999 61.54760798 193.60205113 63.4394867 198.0234375 65.37304688 C205.62175518 68.81327356 214.50084422 73.32912768 218.3515625 81.171875 C220.48981896 88.75555792 219.34979389 96.30354459 215.9375 103.25 C211.92999178 109.87780206 204.23685829 113.35351546 196.9375 115.25 C193.35083888 115.58245278 189.78781972 115.6201347 186.1875 115.625 C185.2490625 115.64949219 184.310625 115.67398438 183.34375 115.69921875 C176.49219682 115.72760916 171.05594042 114.35664998 164.9375 111.25 C163.9375 110.25 163.9375 110.25 163.83984375 107.08984375 C163.85724609 105.15818359 163.85724609 105.15818359 163.875 103.1875 C163.88402344 101.89714844 163.89304687 100.60679688 163.90234375 99.27734375 C163.91974609 97.77880859 163.91974609 97.77880859 163.9375 96.25 C168.34409459 98.32307878 172.30833376 101.03476396 176.37890625 103.69140625 C180.79481163 106.38140052 184.72300236 106.46353945 189.75 106.5 C190.44931641 106.520625 191.14863281 106.54125 191.86914062 106.5625 C197.48126774 106.60449908 201.4275642 105.32718825 205.75 101.75 C208.18063455 98.67972478 208.17447473 95.25725425 208.4609375 91.48046875 C207.49030339 87.34440847 204.68887799 84.4042268 201.21972656 82.11791992 C199.29954351 81.08656962 197.35731134 80.15598286 195.375 79.25 C194.67189697 78.91097656 193.96879395 78.57195312 193.24438477 78.22265625 C190.00590917 76.66389402 186.74580361 75.16365028 183.46875 73.6875 C176.74024205 70.56112257 172.298407 67.2999907 167.9375 61.25 C164.96851577 67.01373619 162.38073313 72.83503516 159.9609375 78.84765625 C159.20426662 80.71061291 158.44759335 82.5735686 157.69091797 84.43652344 C157.30176208 85.39812378 156.9126062 86.35972412 156.51165771 87.35046387 C149.87249073 103.74985174 143.14708803 120.09182782 135.9375 136.25 C131.9775 136.25 128.0175 136.25 123.9375 136.25 C124.43378906 135.280625 124.93007813 134.31125 125.44140625 133.3125 C127.64625986 128.97754283 129.80459789 124.6207772 131.9375 120.25 C132.29457031 119.51894043 132.65164063 118.78788086 133.01953125 118.03466797 C134.03486492 115.92842102 135.02162793 113.81112955 136 111.6875 C136.31074463 111.04619141 136.62148926 110.40488281 136.94165039 109.74414062 C139.28107602 104.54932921 139.09175122 100.67086045 137.27745056 95.29380798 C136.43522763 93.14899088 135.5397418 91.03507657 134.62109375 88.921875 C134.28634537 88.13339172 133.95159698 87.34490845 133.60670471 86.53253174 C132.5372499 84.01828409 131.45645309 81.50910675 130.375 79 C129.67565762 77.36230976 128.97708388 75.72429106 128.27929688 74.0859375 C127.23204475 71.62712648 126.1825452 69.16944255 125.12460327 66.71520996 C123.30068826 62.48037883 121.5179809 58.23461047 119.80126953 53.95507812 C119.45226089 53.09537415 119.10325226 52.23567017 118.7436676 51.34991455 C118.08280748 49.71766028 117.4316935 48.08141175 116.79234314 46.44061279 C114.88182889 41.75337723 112.89374675 38.58719812 108.9375 35.25 C103.41611746 33.02837862 95.51325621 33.32527846 90 35.4375 C86.57018489 37.46739058 84.84607014 38.73823094 82.9375 42.25 C82.26276316 47.02440371 82.32487754 51.10051157 84.9375 55.25 C87.14289772 56.79470702 87.14289772 56.79470702 89.8125 58.0546875 C90.79863281 58.55613281 91.78476563 59.05757812 92.80078125 59.57421875 C93.83589844 60.08597656 94.87101563 60.59773438 95.9375 61.125 C121.02529586 73.71720562 121.02529586 73.71720562 124.9375 83.25 C125.814865 91.22604547 125.38410486 98.58750954 120.53125 105.15234375 C114.75223671 111.59921471 106.58438814 114.76314756 98.01757812 115.390625 C88.77192261 115.80973903 80.17547883 116.09930669 71.9375 111.25 C70.9375 110.25 70.9375 110.25 70.83984375 107.08984375 C70.85144531 105.80207031 70.86304688 104.51429687 70.875 103.1875 C70.88402344 101.89714844 70.89304687 100.60679688 70.90234375 99.27734375 C70.91394531 98.27832031 70.92554688 97.27929688 70.9375 96.25 C71.65035156 96.72050781 72.36320312 97.19101563 73.09765625 97.67578125 C83.58823274 104.49536193 91.67818144 108.19182686 104.4140625 105.78125 C107.91620426 104.67945259 109.94445701 103.24252122 112.4375 100.5625 C114.18495446 96.70353808 115.16358582 93.3927993 113.9375 89.25 C110.46458293 84.21394324 107.06492581 81.86709404 101.5625 79.375 C100.14496073 78.69974545 98.72831618 78.02260995 97.3125 77.34375 C96.23162109 76.83134766 96.23162109 76.83134766 95.12890625 76.30859375 C91.56031574 74.58472917 88.05992664 72.73806709 84.5625 70.875 C83.92650879 70.54129395 83.29051758 70.20758789 82.63525391 69.86376953 C80.07964595 68.50306395 77.99732159 67.30982159 75.9375 65.25 C75.83953125 66.26578125 75.7415625 67.2815625 75.640625 68.328125 C73.94721639 84.48943326 70.02094913 98.05144188 56.98828125 108.78125 C47.39441559 115.65228522 36.46527658 116.81484564 24.9375 115.25 C14.44455407 112.35362429 6.68765527 105.61983071 0.75 96.75 C-5.63824018 85.44641148 -8.14075666 71.78896457 -5.3671875 59.05859375 C-2.48194504 49.56638851 1.94146726 42.24603274 8.9375 35.25 C-3.9325 34.755 -3.9325 34.755 -17.0625 34.25 C-17.0625 59.99 -17.0625 85.73 -17.0625 112.25 C-21.0225 112.25 -24.9825 112.25 -29.0625 112.25 C-29.0625 86.51 -29.0625 60.77 -29.0625 34.25 C-32.3625 34.25 -35.6625 34.25 -39.0625 34.25 C-39.0625 31.61 -39.0625 28.97 -39.0625 26.25 C-35.4325 26.25 -31.8025 26.25 -28.0625 26.25 C-28.165625 25.30125 -28.26875 24.3525 -28.375 23.375 C-28.3371772 17.14684524 -25.23881186 11.6810342 -21.16015625 7.125 C-14.6091652 1.08953799 -8.68723606 -0.08551832 0 0 Z " fill="#3882C2" transform="translate(133.0625,2.75)"/>
<path d="M0 0 C2.00374005 0.96012544 3.83082893 2.02037316 5.6875 3.23828125 C6.55375 3.77453125 7.42 4.31078125 8.3125 4.86328125 C16.30196177 12.85274302 20.75322449 24.58285927 21.125 35.80078125 C20.63041486 47.50027809 16.95087796 58.78709925 8.6875 67.23828125 C2.19375771 71.94942762 -3.23211784 74.13326029 -11.3125 73.23828125 C-19.01902813 71.1061418 -24.6994691 66.61181573 -28.78515625 59.7734375 C-30.06709796 57.2880403 -31.24573369 54.82329175 -32.3125 52.23828125 C-32.68117187 51.34753906 -33.04984375 50.45679688 -33.4296875 49.5390625 C-34.60507139 45.14437494 -34.65456959 41.01876552 -34.625 36.48828125 C-34.61936035 35.59520264 -34.6137207 34.70212402 -34.60791016 33.78198242 C-34.40311676 22.68359949 -31.67316921 13.82905219 -23.80078125 5.671875 C-16.85036555 -0.4393829 -9.01908937 -2.97081491 0 0 Z " fill="#FDFDFE" transform="translate(174.3125,37.76171875)"/>
<path d="M0 0 C2.8125 2.25 2.8125 2.25 5 5 C5.63865242 5.7191156 5.63865242 5.7191156 6.29020691 6.45275879 C11.48373657 13.21407261 10.63138338 20.9966236 10.48828125 29.09375 C10.47894217 30.6517218 10.47183123 32.20970839 10.46684265 33.7677002 C10.44785854 37.84510678 10.39883434 41.92160619 10.34332275 45.99865723 C10.29194301 50.16825086 10.2692889 54.33799275 10.24414062 58.5078125 C10.19070508 66.67228879 10.10549927 74.83603117 10 83 C6.04 83 2.08 83 -2 83 C-2.0093457 81.03208496 -2.01869141 79.06416992 -2.02832031 77.03662109 C-2.06389259 70.52251 -2.11771898 64.00874808 -2.18390274 57.49487877 C-2.22335197 53.54686231 -2.25555271 49.59906803 -2.27099609 45.65087891 C-2.28617993 41.83805013 -2.32065493 38.02583225 -2.36830902 34.21327591 C-2.38310524 32.76134181 -2.39104001 31.30932049 -2.39188385 29.85731125 C-2.39426082 27.81746638 -2.42139312 25.77929995 -2.45410156 23.73974609 C-2.46298401 22.58058685 -2.47186646 21.42142761 -2.48101807 20.22714233 C-3.33404016 14.92286575 -5.84493492 11.872192 -10.0625 8.6875 C-15.07852194 5.80595548 -19.33198441 5.35590732 -25 6 C-30.12986465 7.54267669 -34.34708711 10.47584395 -37.74493408 14.59451294 C-40.51651628 19.90658861 -39.84511886 26.26076891 -39.8046875 32.12109375 C-39.81594923 33.59084746 -39.82983494 35.06058319 -39.84622192 36.5302887 C-39.88214444 40.37899641 -39.88264846 44.22690791 -39.87554932 48.07574463 C-39.87463404 52.01092625 -39.90752838 55.94581323 -39.9375 59.88085938 C-39.99125377 67.58741577 -40.004429 75.29321717 -40 83 C-43.96 83 -47.92 83 -52 83 C-52 54.62 -52 26.24 -52 -3 C-48.04 -3 -44.08 -3 -40 -3 C-39.67 -0.03 -39.34 2.94 -39 6 C-37.515 4.6078125 -37.515 4.6078125 -36 3.1875 C-25.76254142 -5.61712969 -11.61657208 -6.32688301 0 0 Z " fill="#3781C2" transform="translate(82,32)"/>
<path d="M0 0 C4.29 0 8.58 0 13 0 C13 36.96 13 73.92 13 112 C8.71 112 4.42 112 0 112 C0 75.04 0 38.08 0 0 Z " fill="#3580C1" transform="translate(3,3)"/>
<path d="M0 0 C3 3 3 3 3.29296875 5.91796875 C3.25816406 6.99691406 3.22335938 8.07585937 3.1875 9.1875 C3.16042969 10.27417969 3.13335937 11.36085938 3.10546875 12.48046875 C3.07066406 13.31191406 3.03585938 14.14335938 3 15 C2.01 14.67 1.02 14.34 0 14 C0 9.38 0 4.76 0 0 Z " fill="#478AC6" transform="translate(204,99)"/>
</svg>
