<?xml version="1.0" encoding="UTF-8" standalone="no"?>
<svg width="220" height="220" viewBox="0 0 456 456" version="1.1" xmlns="http://www.w3.org/2000/svg">
  <defs>
    <linearGradient id="g1" x1="0%" y1="0%" x2="100%" y2="100%">
      <stop offset="0%" stop-color="#1D4ED8"/>
      <stop offset="100%" stop-color="#2563EB"/>
    </linearGradient>
  </defs>
  <rect x="40" y="40" width="376" height="376" rx="96" ry="96" fill="url(#g1)" />
  <g fill="#FFFFFF">
    <circle cx="228" cy="228" r="126" opacity="0.16"/>
    <path d="M142 228c0-51 39-88 94-88 25 0 46 6 63 18l-18 29c-12-8-26-12-41-12-31 0-54 22-54 53s23 53 54 53c16 0 31-5 42-13l18 28c-18 13-39 20-64 20-55 0-94-37-94-88z"/>
    <text x="228" y="340" text-anchor="middle" font-family="Arial, Helvetica, sans-serif" font-weight="700" font-size="40">COEPD</text>
  </g>
</svg>
